<svg width="296" height="168" viewBox="0 0 296 168" fill="none" xmlns="http://www.w3.org/2000/svg">
<path d="M248.286 96.2864C247.966 95.8676 247.685 95.4243 247.404 94.976C241.988 86.464 218.324 90.4983 218.324 90.4983C215.648 111.02 210.991 108.601 210.128 107.311C209.266 106.02 207.709 93.3456 206.679 91.6215C203.702 91.3604 197.621 91.4046 197.621 91.4046C191.752 91.5427 186.232 96.7051 180.802 105.114C175.371 113.517 165.796 120.63 165.796 120.63C165.796 120.63 168.639 120.892 169.674 127.098C170.31 127.295 172.217 126.453 173.607 125.773C174.847 125.167 176.229 124.913 177.604 125.039C179.841 125.246 183.059 125.96 185.631 128.394C185.948 128.689 186.283 128.962 186.637 129.211C186.962 129.029 187.144 128.906 187.144 128.906C192.447 126.709 195.551 119.079 195.551 119.079C195.121 118.119 194.871 117.089 194.812 116.04C194.728 114.994 194.743 113.944 194.856 112.902C194.97 111.882 195.049 110.872 195.078 109.857C195.13 108.834 195.085 107.808 194.945 106.793C195.368 107.757 195.608 108.791 195.655 109.843C195.727 110.887 195.706 111.935 195.591 112.975C195.477 113.99 195.413 115 195.389 116.02C195.352 117.042 195.407 118.066 195.551 119.079C195.849 121.801 196.493 124.475 197.468 127.034C198.869 127.498 200.314 127.817 201.78 127.985C202.502 128.067 203.229 128.09 203.954 128.054C204.696 128.013 205.436 127.934 206.171 127.817C205.508 128.215 204.778 128.488 204.018 128.625C203.637 128.699 203.252 128.745 202.865 128.763C202.476 128.768 202.088 128.753 201.702 128.719C200.932 128.635 200.177 128.453 199.454 128.177C198.733 127.909 198.062 127.523 197.468 127.034C197.883 128.173 198.434 129.258 199.109 130.266C202.765 130.476 206.347 131.374 209.67 132.911C210.513 133.3 211.286 133.822 212.065 134.206C212.858 134.602 213.688 134.917 214.544 135.147C216.267 135.616 218.041 135.867 219.827 135.896C220.734 135.926 221.596 135.876 222.532 135.847C223.452 135.837 224.372 135.881 225.287 135.98C227.101 136.167 228.909 136.374 230.703 136.689C231.388 136.807 232.068 136.935 232.748 137.068C232.433 136.641 232.162 136.182 231.94 135.699C231.593 134.972 231.334 134.206 231.166 133.418C230.994 132.631 230.89 131.83 230.856 131.024C230.811 130.212 230.842 129.397 230.949 128.591L230.954 128.566L230.964 128.532C231.234 127.658 231.401 126.755 231.462 125.842C231.538 124.916 231.548 123.986 231.491 123.059C231.427 122.131 231.314 121.207 231.151 120.291C230.974 119.389 230.737 118.448 230.609 117.498C230.351 115.603 230.292 113.686 230.432 111.778C230.481 110.828 230.58 109.877 230.723 108.941C230.854 108.002 231.033 107.069 231.26 106.148C231.026 108.021 230.898 109.906 230.875 111.793C230.848 113.667 230.985 115.539 231.284 117.389C231.348 117.852 231.462 118.305 231.555 118.759L231.861 120.158C232.043 121.103 232.163 122.059 232.221 123.02C232.366 124.945 232.144 126.881 231.565 128.724C231.443 129.481 231.38 130.247 231.378 131.014C231.372 131.795 231.433 132.574 231.56 133.344C231.684 134.117 231.882 134.876 232.152 135.61C232.342 136.126 232.581 136.623 232.866 137.093C233.936 137.31 234.995 137.556 236.045 137.847C237.81 138.308 239.506 138.998 241.091 139.901C239.453 139.131 237.73 138.559 235.956 138.197C235.044 137.985 234.126 137.801 233.201 137.645C233.199 137.642 233.195 137.64 233.192 137.64C232.339 137.492 231.482 137.364 230.619 137.251C228.825 137.019 227.027 136.817 225.228 136.674C224.337 136.591 223.442 136.556 222.547 136.571C221.675 136.6 220.719 136.665 219.812 136.635C217.964 136.597 216.129 136.322 214.352 135.817C213.46 135.556 212.595 135.21 211.769 134.783C211.356 134.581 210.951 134.31 210.572 134.088C210.193 133.857 209.813 133.615 209.414 133.418C207.82 132.582 206.142 131.918 204.407 131.438C202.672 130.918 200.902 130.527 199.109 130.266L195.034 130.655C195.16 130.828 195.252 131.024 195.305 131.231C196.355 134.625 194.842 147.92 194.842 147.92C200.662 152.186 232.876 158.782 232.876 158.782C253.643 162.275 253.835 143.842 253.835 143.842C257.551 110.764 250.247 98.8281 248.286 96.2864ZM222.301 130.005C221.92 130.078 221.535 130.124 221.147 130.143C220.759 130.148 220.371 130.133 219.984 130.098C219.215 130.015 218.46 129.833 217.737 129.556C217.016 129.288 216.345 128.902 215.751 128.413C217.152 128.878 218.597 129.196 220.063 129.364C220.785 129.446 221.511 129.47 222.236 129.433C222.979 129.392 223.719 129.313 224.454 129.197C223.791 129.594 223.061 129.868 222.301 130.005V130.005Z" fill="black"/>
<path d="M206.635 91.6442C206.493 91.4303 206.335 91.2274 206.163 91.0373C205.991 90.8503 205.802 90.6795 205.599 90.5272C205.397 90.3782 205.18 90.2521 204.95 90.1513C204.729 90.0522 204.494 89.9886 204.253 89.9628L204.33 89.9477C203.835 90.1857 203.312 90.3602 202.774 90.4673C202.227 90.5851 201.664 90.6035 201.11 90.5217C200.536 90.4368 199.994 90.2003 199.541 89.8366C199.125 89.4641 198.76 89.0382 198.455 88.57C197.861 87.6688 197.332 86.7258 196.872 85.7485C196.41 84.778 195.994 83.7968 195.606 82.7886L196.004 83.0515C195.545 83.0981 195.082 83.0277 194.657 82.8469C194.41 82.7309 194.201 82.5461 194.056 82.3146C193.923 82.091 193.843 81.8393 193.824 81.5795C193.801 81.1342 193.864 80.6886 194.01 80.2673C194.139 79.8654 194.308 79.4778 194.516 79.1105C194.905 78.5408 195.088 77.8551 195.034 77.1672C195.003 76.8323 194.911 76.5059 194.762 76.2042L194.493 75.7015C194.4 75.5233 194.31 75.342 194.226 75.1567C194.052 74.7858 193.913 74.3993 193.811 74.0023C193.7 73.6158 193.61 73.2235 193.542 72.8272C193.456 72.434 193.429 72.0309 193.38 71.6325C193.364 71.2304 193.34 70.8292 193.361 70.4275C193.395 68.8121 193.79 67.2248 194.519 65.7825C194.544 65.7339 194.583 65.6935 194.63 65.6661C194.677 65.6386 194.731 65.6251 194.786 65.6272C194.841 65.6293 194.894 65.6468 194.939 65.6779C194.984 65.7089 195.019 65.7521 195.041 65.8024L195.045 65.8134C195.647 67.2016 196.414 68.5118 197.331 69.7153C198.245 70.9305 199.341 71.9962 200.582 72.8742C201.82 73.7543 203.234 74.356 204.726 74.6378C206.216 74.9123 207.748 74.8713 209.221 74.5174L209.231 74.515C209.266 74.5071 209.302 74.5093 209.336 74.5213C209.369 74.5332 209.398 74.5544 209.42 74.5825C210.015 75.4005 210.429 76.3353 210.635 77.3251C210.855 78.2919 210.967 79.2801 210.97 80.2716C210.975 81.2584 210.905 82.2442 210.759 83.2202C210.586 84.1469 210.521 85.0905 210.565 86.0322C210.609 86.9423 210.855 87.8311 211.286 88.6345C211.715 89.4083 212.371 90.0323 213.166 90.4223C213.976 90.8 214.87 90.959 215.761 90.8836C216.673 90.8099 217.566 90.5801 218.401 90.2042C218.482 90.1694 218.57 90.1563 218.657 90.1664C218.744 90.1765 218.827 90.2093 218.897 90.2617C218.967 90.314 219.023 90.384 219.057 90.4645C219.092 90.545 219.104 90.6332 219.094 90.7202L219.093 90.7266C218.731 93.8662 218.169 96.9794 217.409 100.047C217.015 101.596 216.497 103.11 215.861 104.575C215.534 105.324 215.133 106.038 214.663 106.706C214.417 107.051 214.138 107.37 213.831 107.66C213.511 107.974 213.135 108.224 212.723 108.398C212.282 108.588 211.794 108.642 211.321 108.553C210.854 108.457 210.424 108.228 210.084 107.893C209.902 107.721 209.757 107.514 209.658 107.284C209.578 107.086 209.511 106.883 209.456 106.677C209.346 106.283 209.262 105.896 209.179 105.507C208.854 103.956 208.63 102.402 208.382 100.852L207.652 96.2035C207.527 95.43 207.396 94.6577 207.245 93.8903C207.122 93.1221 206.917 92.3691 206.635 91.6441L206.632 91.6372C206.627 91.6256 206.626 91.6124 206.63 91.6005C206.635 91.5885 206.643 91.5786 206.655 91.5729C206.666 91.5672 206.679 91.5662 206.691 91.57C206.703 91.5738 206.714 91.5822 206.72 91.5934C207.063 92.3078 207.321 93.0601 207.489 93.8347C207.685 94.5974 207.859 95.3642 208.029 96.1317C208.37 97.6664 208.658 99.2101 208.967 100.748C209.27 102.286 209.584 103.825 209.93 105.34C210.02 105.716 210.112 106.094 210.223 106.453C210.273 106.624 210.333 106.793 210.403 106.957C210.464 107.087 210.551 107.202 210.658 107.296C210.882 107.513 211.166 107.656 211.474 107.707C211.781 107.758 212.096 107.714 212.378 107.581C212.999 107.25 213.52 106.759 213.89 106.16C214.303 105.531 214.659 104.865 214.952 104.171C215.549 102.75 216.031 101.283 216.393 99.7841C217.126 96.7545 217.697 93.688 218.104 90.5977L218.796 91.12C217.852 91.5288 216.844 91.772 215.817 91.839C214.763 91.9109 213.709 91.7056 212.758 91.2437C211.803 90.7629 211.022 89.9966 210.523 89.0513C210.053 88.1282 209.795 87.1123 209.767 86.0772C209.741 85.0791 209.834 84.0815 210.044 83.1055C210.22 82.1685 210.324 81.2195 210.355 80.2668C210.39 79.3176 210.317 78.3674 210.137 77.4347C209.975 76.5145 209.625 75.6375 209.11 74.8583L209.309 74.9233C207.778 75.2403 206.199 75.2536 204.663 74.9624C203.898 74.8131 203.153 74.5767 202.442 74.2577C201.729 73.9478 201.047 73.5698 200.407 73.1292C199.131 72.2416 197.99 71.1756 197.017 69.9638C196.023 68.7628 195.179 67.4449 194.504 66.0392L195.03 66.0702C194.412 67.4417 194.105 68.933 194.131 70.4371C194.134 71.1876 194.212 71.9358 194.365 72.6705C194.437 73.0386 194.528 73.4024 194.64 73.7604C194.738 74.1145 194.866 74.4598 195.023 74.7925C195.1 74.9605 195.183 75.127 195.271 75.2928C195.359 75.4629 195.448 75.6082 195.553 75.817C195.75 76.2133 195.873 76.6423 195.916 77.0829C195.983 77.9588 195.75 78.8315 195.256 79.558C194.892 80.1453 194.688 80.8172 194.663 81.5076C194.661 81.632 194.694 81.7545 194.758 81.861C194.823 81.9675 194.916 82.0536 195.027 82.1096C195.322 82.2322 195.642 82.2814 195.96 82.253L195.965 82.2527C196.05 82.249 196.134 82.2725 196.205 82.3199C196.276 82.3673 196.329 82.436 196.358 82.5161C196.711 83.5 197.109 84.4836 197.534 85.4444C197.942 86.408 198.42 87.3409 198.963 88.236C199.222 88.6703 199.536 89.0689 199.899 89.422C200.269 89.74 200.717 89.9541 201.197 90.0424C202.211 90.2035 203.251 90.074 204.195 89.6689L204.215 89.6607C204.233 89.6535 204.253 89.6511 204.272 89.6537C204.548 89.6959 204.814 89.7833 205.062 89.9123C205.302 90.0348 205.528 90.1838 205.735 90.3565C205.936 90.5308 206.12 90.7244 206.284 90.9345C206.446 91.1428 206.591 91.3631 206.72 91.5934C206.723 91.599 206.725 91.6052 206.726 91.6116C206.727 91.618 206.726 91.6245 206.725 91.6308C206.723 91.637 206.72 91.6429 206.716 91.648C206.712 91.6531 206.707 91.6574 206.701 91.6606C206.69 91.6665 206.677 91.6681 206.665 91.6651C206.653 91.662 206.642 91.6546 206.635 91.6442Z" fill="black"/>
<path d="M194.972 82.5352C194.871 83.3187 194.766 84.0958 194.684 84.8741C194.607 85.6527 194.532 86.4295 194.508 87.2062C194.47 87.9783 194.502 88.7523 194.604 89.5186C194.655 89.8981 194.757 90.269 194.907 90.621C195.049 90.9823 195.284 91.2992 195.589 91.539C195.228 91.3533 194.93 91.0647 194.733 90.7098C194.538 90.3544 194.393 89.9735 194.303 89.5781C194.135 88.7946 194.07 87.9924 194.11 87.1919C194.142 86.399 194.233 85.6095 194.382 84.83C194.521 84.0514 194.718 83.2843 194.972 82.5352Z" fill="black"/>
<path d="M194.735 65.954C194.633 65.7771 194.569 65.5813 194.546 65.3787C194.522 65.1761 194.541 64.9709 194.599 64.7755L194.681 64.4823L194.808 64.2106C194.852 64.1207 194.892 64.0271 194.941 63.9396L195.108 63.6931C195.33 63.3641 195.582 63.0563 195.861 62.7733C196.143 62.4995 196.443 62.247 196.738 61.9848C197.981 61.0453 199.312 60.2286 200.713 59.5462C201.411 59.2146 202.118 58.8975 202.824 58.5822C203.538 58.2891 204.257 58.0061 204.977 57.7279C205.699 57.4637 206.432 57.2356 207.161 56.9936C207.53 56.8827 207.886 56.7568 208.28 56.6479C208.662 56.5452 209.05 56.4629 209.44 56.4011C210.993 56.1458 212.581 56.2104 214.107 56.5911C215.628 56.974 217.033 57.7182 218.204 58.7605C219.359 59.8187 220.311 61.0792 221.012 62.4799C221.717 63.8747 222.255 65.3473 222.617 66.8674L222.624 66.9083C223.004 68.9946 223.674 71.0176 224.614 72.919C225.077 73.8678 225.614 74.7789 226.219 75.6443C226.814 76.5114 227.487 77.3233 228.227 78.0703L229.399 79.1553C229.821 79.524 230.217 79.9207 230.585 80.3426C231.339 81.175 231.961 82.1178 232.429 83.1383C233.399 85.1546 233.642 87.4444 233.116 89.6192C233.113 89.6313 233.105 89.6417 233.095 89.6484C233.084 89.655 233.071 89.6573 233.059 89.6549C233.047 89.6524 233.036 89.6454 233.028 89.6352C233.021 89.625 233.018 89.6124 233.02 89.6L233.021 89.5945C233.159 88.5326 233.116 87.4549 232.894 86.4074C232.693 85.3697 232.327 84.3707 231.812 83.4478C231.559 82.989 231.277 82.5466 230.968 82.1232C230.652 81.7057 230.308 81.3092 229.94 80.9362C229.581 80.5545 229.195 80.1978 228.787 79.8684L227.535 78.7848C225.927 77.2322 224.621 75.3943 223.685 73.3648C223.219 72.36 222.824 71.3234 222.504 70.2628C222.173 69.2015 221.931 68.1141 221.783 67.0122L221.79 67.0528C221.495 65.5739 221.055 64.1275 220.477 62.7349C219.897 61.3401 219.047 60.074 217.975 59.0099C217.423 58.4954 216.809 58.052 216.147 57.6901C215.481 57.3364 214.768 57.0772 214.03 56.9201C212.551 56.6255 211.026 56.6618 209.564 57.0264C209.201 57.1101 208.844 57.2129 208.492 57.3343C208.154 57.4532 207.795 57.6081 207.438 57.7439L205.285 58.5489C204.579 58.8335 203.871 59.1132 203.158 59.3828L201.063 60.283C199.683 60.9017 198.353 61.6253 197.084 62.4475C196.788 62.6731 196.481 62.8917 196.193 63.1293C195.911 63.3698 195.648 63.6319 195.406 63.9133L195.226 64.1251C195.174 64.1999 195.13 64.2794 195.081 64.3567L194.937 64.592L194.838 64.8447C194.696 65.1796 194.688 65.5563 194.815 65.8971L194.82 65.9074C194.825 65.9186 194.826 65.9313 194.822 65.943C194.818 65.9547 194.81 65.9645 194.799 65.9704C194.788 65.9763 194.776 65.9779 194.764 65.9748C194.752 65.9718 194.741 65.9643 194.735 65.954V65.954Z" fill="black"/>
<path d="M195.954 75.4724C196.635 74.9825 197.379 74.5853 198.166 74.2912C198.559 74.1402 198.962 74.019 199.374 73.9287C199.788 73.8239 200.218 73.8041 200.64 73.8704C200.237 73.9575 199.842 74.077 199.459 74.2279L198.308 74.6634C197.537 74.9527 196.768 75.2508 195.954 75.4724Z" fill="black"/>
<path d="M198.109 78.2253C198.265 78.2199 198.411 78.1546 198.519 78.043C198.627 77.9314 198.687 77.7824 198.687 77.6273C198.687 77.4722 198.627 77.3231 198.519 77.2116C198.411 77.1 198.265 77.0347 198.109 77.0293C197.954 77.0347 197.807 77.1 197.7 77.2116C197.592 77.3231 197.531 77.4722 197.531 77.6273C197.531 77.7824 197.592 77.9314 197.7 78.043C197.807 78.1546 197.954 78.2199 198.109 78.2253Z" fill="black"/>
<path d="M197.145 85.4708C197.445 85.4802 197.745 85.4719 198.044 85.4459C198.336 85.4194 198.623 85.3841 198.909 85.3298C199.193 85.2743 199.478 85.2107 199.763 85.1327C200.048 85.0557 200.335 84.9708 200.64 84.8945C200.413 85.1097 200.154 85.2883 199.872 85.4238C199.59 85.5615 199.29 85.6616 198.981 85.7216C198.359 85.8557 197.709 85.767 197.145 85.4708Z" fill="black"/>
<path d="M194.926 146.153C193.444 145.607 191.92 145.183 190.37 144.883C188.844 144.572 187.276 144.522 185.734 144.735L185.166 144.831L184.611 144.981C184.243 145.084 183.881 145.209 183.528 145.354C182.822 145.658 182.145 146.026 181.505 146.452C180.853 146.88 180.235 147.368 179.508 147.791C178.779 148.2 177.995 148.501 177.18 148.684C176.37 148.876 175.539 148.96 174.708 148.934C173.837 148.935 172.978 148.726 172.205 148.327C171.991 148.196 171.801 148.032 171.641 147.839C171.498 147.664 171.41 147.536 171.285 147.392C171.051 147.122 170.779 146.886 170.478 146.692C169.817 146.308 169.119 145.992 168.395 145.748C167.614 145.499 166.864 145.16 166.163 144.735C165.807 144.495 165.495 144.197 165.239 143.853C165.113 143.691 165 143.536 164.879 143.393C164.82 143.318 164.757 143.255 164.693 143.182C164.624 143.1 164.544 143.018 164.485 142.935C164.014 142.283 163.582 141.603 163.191 140.9C162.795 140.209 162.401 139.52 162.023 138.819L162.138 138.904L161.124 138.683C160.773 138.623 160.429 138.529 160.096 138.402C159.43 138.124 158.845 137.681 158.396 137.116C158.15 136.833 157.981 136.491 157.906 136.124C157.877 135.931 157.889 135.734 157.942 135.545C157.995 135.357 158.087 135.182 158.212 135.031C158.451 134.749 158.744 134.517 159.074 134.349C159.404 134.18 159.764 134.079 160.133 134.05C160.49 134.03 160.848 134.045 161.202 134.094L162.235 134.168C162.924 134.212 163.614 134.244 164.303 134.266C165.682 134.308 167.062 134.298 168.432 134.212C169.793 134.142 171.145 133.953 172.472 133.647C173.114 133.494 173.736 133.267 174.325 132.968C174.601 132.825 174.858 132.647 175.089 132.438C175.322 132.225 175.533 131.99 175.72 131.736C175.876 131.559 175.973 131.339 175.999 131.104C175.99 131.054 175.982 131.034 175.917 130.978C175.82 130.916 175.715 130.869 175.604 130.839C174.988 130.714 174.353 130.705 173.734 130.813C173.417 130.858 173.105 130.926 172.799 131.019C172.674 131.056 172.554 131.107 172.44 131.17L172.334 131.239C172.287 131.271 172.24 131.297 172.193 131.324C172.102 131.375 172.007 131.421 171.91 131.461C171.549 131.605 171.171 131.703 170.785 131.753C170.6 131.779 170.415 131.798 170.231 131.81C170.019 131.829 169.804 131.821 169.593 131.787C169.147 131.711 168.735 131.503 168.409 131.189C168.1 130.878 167.875 130.493 167.757 130.071C167.55 129.261 167.659 128.403 168.061 127.67C168.261 127.262 168.577 126.921 168.969 126.691C169.099 126.622 169.241 126.576 169.387 126.555C169.473 126.544 169.56 126.543 169.646 126.553C169.69 126.558 169.735 126.566 169.778 126.577L169.834 126.592L169.84 126.591C169.941 126.601 170.042 126.594 170.141 126.572C170.775 126.426 171.393 126.218 171.986 125.952C172.298 125.819 172.608 125.681 172.918 125.536L173.381 125.317C173.547 125.237 173.716 125.163 173.888 125.093C174.574 124.817 175.296 124.64 176.032 124.565C176.76 124.499 177.493 124.525 178.215 124.64C178.92 124.737 179.618 124.878 180.306 125.064C181.69 125.428 183.006 126.014 184.203 126.798C184.796 127.196 185.352 127.648 185.863 128.148C186.356 128.601 186.884 129.016 187.44 129.389C189.816 130.774 192.559 131.399 195.301 131.18L195.305 131.18C195.318 131.179 195.33 131.184 195.34 131.192C195.349 131.2 195.356 131.212 195.357 131.224C195.358 131.237 195.354 131.25 195.346 131.26C195.338 131.27 195.327 131.276 195.314 131.278C192.512 131.708 189.645 131.219 187.143 129.884C186.531 129.515 185.949 129.097 185.403 128.636C183.89 127.293 182.062 126.353 180.089 125.904C179.434 125.747 178.77 125.631 178.1 125.558C177.45 125.47 176.791 125.464 176.14 125.54C175.497 125.616 174.867 125.78 174.269 126.027C174.12 126.09 173.974 126.157 173.829 126.229L173.356 126.46C173.039 126.612 172.719 126.76 172.396 126.903C171.731 127.215 171.032 127.453 170.314 127.612C170.074 127.663 169.825 127.663 169.584 127.613L169.527 127.6C169.508 127.596 169.523 127.6 169.52 127.599L169.524 127.6C169.527 127.6 169.528 127.599 169.524 127.6C169.498 127.605 169.474 127.614 169.452 127.626C169.252 127.762 169.091 127.949 168.988 128.167C168.714 128.661 168.635 129.239 168.765 129.788C168.833 130.036 168.96 130.264 169.135 130.452C169.309 130.625 169.532 130.74 169.773 130.785C169.904 130.808 170.037 130.814 170.17 130.802C170.332 130.793 170.492 130.78 170.65 130.76C170.952 130.726 171.249 130.655 171.534 130.549C171.598 130.524 171.66 130.495 171.72 130.463C171.748 130.448 171.776 130.432 171.803 130.415L171.915 130.344C172.102 130.236 172.302 130.151 172.51 130.092C172.869 129.989 173.235 129.914 173.605 129.868C174.356 129.75 175.123 129.779 175.862 129.953C176.085 130.018 176.294 130.121 176.481 130.258C176.598 130.348 176.695 130.461 176.767 130.589C176.839 130.718 176.885 130.86 176.9 131.007C176.92 131.259 176.871 131.513 176.758 131.739C176.672 131.926 176.565 132.102 176.438 132.264C176.21 132.564 175.951 132.84 175.665 133.086C175.374 133.334 175.054 133.545 174.711 133.713C174.055 134.025 173.365 134.258 172.654 134.408C171.273 134.692 169.868 134.84 168.459 134.85C167.061 134.879 165.668 134.832 164.28 134.743C163.587 134.698 162.894 134.641 162.202 134.572L161.166 134.461C160.835 134.409 160.499 134.39 160.164 134.404C159.841 134.424 159.525 134.508 159.234 134.651C158.943 134.793 158.683 134.992 158.469 135.235C158.369 135.349 158.295 135.484 158.251 135.629C158.208 135.774 158.196 135.927 158.217 136.077C158.28 136.392 158.423 136.684 158.631 136.928C159.045 137.455 159.59 137.864 160.212 138.113C160.528 138.23 160.855 138.316 161.188 138.369L162.208 138.568C162.231 138.572 162.253 138.582 162.272 138.595C162.292 138.609 162.308 138.627 162.32 138.647L162.323 138.653C163.086 140.028 163.943 141.349 164.888 142.606C164.948 142.683 165.011 142.739 165.072 142.806C165.142 142.88 165.222 142.955 165.29 143.032C165.432 143.186 165.56 143.346 165.683 143.492C165.914 143.777 166.191 144.02 166.503 144.212C167.178 144.578 167.893 144.864 168.635 145.063C169.426 145.291 170.19 145.604 170.913 145.998C171.285 146.226 171.623 146.506 171.917 146.828C172.057 146.98 172.202 147.174 172.314 147.302C172.413 147.41 172.527 147.503 172.654 147.578C173.302 147.895 174.016 148.056 174.737 148.05C175.494 148.073 176.25 148.003 176.988 147.84C177.725 147.682 178.435 147.419 179.096 147.058C179.744 146.689 180.393 146.217 181.076 145.787C181.767 145.349 182.496 144.975 183.256 144.67C183.642 144.529 184.036 144.411 184.436 144.317L185.036 144.181L185.645 144.102C187.258 143.938 188.888 144.06 190.459 144.462C192.007 144.854 193.515 145.389 194.963 146.062C194.975 146.067 194.984 146.076 194.989 146.088C194.994 146.099 194.994 146.112 194.99 146.124C194.985 146.136 194.976 146.146 194.965 146.151C194.953 146.157 194.94 146.157 194.928 146.154L194.926 146.153Z" fill="black"/>
<path d="M162.172 138.736C163.131 138.654 164.091 138.616 165.051 138.584C166.01 138.547 166.97 138.542 167.929 138.537L169.369 138.548C169.864 138.547 170.356 138.615 170.832 138.749C171.743 139.073 172.632 139.457 173.492 139.9C173.029 139.768 172.575 139.611 172.116 139.467C171.674 139.297 171.22 139.157 170.759 139.047C170.302 138.953 169.835 138.912 169.369 138.925L167.929 138.936C166.97 138.93 166.01 138.925 165.051 138.889C164.091 138.857 163.131 138.819 162.172 138.736Z" fill="black"/>
<path d="M162.659 139.594C163.304 140.091 163.921 140.621 164.533 141.157C164.85 141.414 165.131 141.718 165.44 141.932C165.751 142.156 166.1 142.322 166.469 142.423C166.826 142.53 167.238 142.546 167.645 142.622C168.05 142.689 168.451 142.776 168.847 142.885C169.657 143.055 170.41 143.429 171.034 143.974C170.699 143.751 170.331 143.581 169.943 143.472C169.561 143.35 169.172 143.253 168.778 143.183C168.382 143.115 167.987 143.044 167.588 142.995C167.176 142.956 166.767 142.893 166.362 142.807C165.948 142.689 165.56 142.495 165.217 142.235C164.9 141.968 164.601 141.681 164.321 141.377C163.755 140.797 163.193 140.212 162.659 139.594Z" fill="black"/>
<path d="M153.59 126.841C153.272 126.197 152.884 125.59 152.432 125.032L152.508 125.081C151.752 124.962 151.048 124.625 150.482 124.11C150.187 123.811 150.005 123.42 149.968 123.002C149.95 122.795 149.959 122.586 149.996 122.381C150.046 122.186 150.107 121.994 150.179 121.805C150.524 121.071 151.131 120.492 151.882 120.182C152.258 120.004 152.666 119.906 153.082 119.895C153.53 119.892 153.967 120.03 154.333 120.288L153.685 120.495C153.784 120.227 153.919 119.973 154.087 119.742C154.247 119.515 154.434 119.309 154.644 119.128C155.068 118.766 155.571 118.508 156.114 118.377C156.637 118.251 157.179 118.223 157.713 118.294L158.094 118.343C158.242 118.365 158.388 118.401 158.53 118.451C158.793 118.54 159.045 118.659 159.282 118.806C160.175 119.383 160.889 120.197 161.344 121.158C161.79 122.067 162.116 123.032 162.311 124.026L161.381 124.083C161.461 123.45 161.652 122.837 161.944 122.27C162.235 121.686 162.668 121.184 163.204 120.811C163.752 120.453 164.389 120.256 165.043 120.241C165.2 120.235 165.356 120.24 165.512 120.255L165.745 120.27C165.836 120.274 165.926 120.289 166.014 120.314C166.329 120.408 166.626 120.552 166.893 120.743C167.853 121.497 168.562 122.523 168.928 123.686C169.315 124.788 169.566 125.933 169.675 127.096C169.419 125.975 169.052 124.882 168.58 123.834C168.149 122.812 167.441 121.931 166.535 121.291C166.321 121.16 166.088 121.061 165.845 120.998C165.793 120.985 165.739 120.98 165.686 120.983L165.485 120.981C164.843 120.949 164.208 121.13 163.68 121.497C163.285 121.826 162.96 122.231 162.726 122.689C162.492 123.147 162.354 123.648 162.319 124.161L162.319 124.164C162.307 124.275 162.256 124.378 162.175 124.455C162.094 124.532 161.988 124.578 161.877 124.585C161.765 124.591 161.655 124.558 161.566 124.491C161.476 124.423 161.414 124.327 161.389 124.218C161.201 123.312 160.896 122.434 160.482 121.606C160.095 120.811 159.507 120.13 158.775 119.632C158.601 119.521 158.415 119.43 158.22 119.361C158.134 119.329 158.045 119.305 157.953 119.291L157.615 119.243C157.186 119.182 156.751 119.196 156.327 119.285C155.922 119.369 155.542 119.548 155.218 119.807C154.902 120.064 154.651 120.392 154.485 120.764L154.465 120.811C154.423 120.911 154.343 120.989 154.242 121.03C154.142 121.07 154.03 121.069 153.93 121.027C153.897 121.012 153.865 120.994 153.837 120.971C153.594 120.807 153.312 120.71 153.02 120.692C152.727 120.673 152.435 120.734 152.174 120.867C151.566 121.081 151.056 121.51 150.739 122.072C150.575 122.335 150.495 122.642 150.51 122.952C150.526 123.262 150.636 123.559 150.826 123.805C151.293 124.308 151.894 124.666 152.559 124.837L152.575 124.842C152.6 124.849 152.621 124.865 152.635 124.886C153.041 125.491 153.363 126.149 153.59 126.841Z" fill="black"/>
<path d="M150.265 126.506C150.001 125.962 149.532 125.545 148.961 125.346C148.406 125.187 147.813 125.232 147.288 125.472C147.036 125.55 146.809 125.694 146.632 125.89C146.454 126.086 146.333 126.326 146.281 126.585C146.257 127.127 146.405 127.663 146.703 128.117C147.003 128.617 147.361 129.082 147.768 129.5C147.867 129.609 147.971 129.708 148.073 129.809L148.408 130.101C148.646 130.307 148.876 130.517 149.105 130.729C150.019 131.574 150.873 132.462 151.725 133.363C151.789 133.431 151.831 133.516 151.846 133.608L151.851 133.639C151.907 133.926 152.001 134.204 152.129 134.466C152.399 135.029 152.783 135.529 153.256 135.936C153.496 136.154 153.736 136.3 154.058 136.546C154.647 137.008 155.144 137.577 155.523 138.222C155.905 138.856 156.187 139.545 156.361 140.264L156.339 140.194C156.564 140.815 156.985 141.347 157.54 141.707C158.132 142.052 158.804 142.237 159.49 142.242C160.21 142.258 160.928 142.183 161.629 142.021C162.346 141.865 163.049 141.651 163.731 141.382C163.09 141.759 162.413 142.069 161.709 142.31C160.995 142.56 160.25 142.712 159.494 142.762C158.7 142.82 157.905 142.661 157.193 142.305C156.834 142.105 156.51 141.846 156.238 141.538C155.974 141.227 155.754 140.882 155.584 140.512L155.575 140.489L155.561 140.442C155.379 139.825 155.11 139.237 154.762 138.696C154.417 138.161 153.984 137.69 153.479 137.302C153.253 137.128 152.902 136.911 152.627 136.667C152.338 136.423 152.075 136.151 151.842 135.853C151.605 135.554 151.403 135.229 151.24 134.884C151.067 134.524 150.948 134.141 150.886 133.746L151.012 134.022C150.187 133.125 149.335 132.241 148.481 131.377C148.266 131.163 148.049 130.951 147.829 130.747L147.48 130.42C147.367 130.301 147.253 130.184 147.149 130.062C146.723 129.574 146.356 129.038 146.058 128.463C145.71 127.86 145.578 127.156 145.685 126.468C145.723 126.288 145.792 126.114 145.887 125.956C145.988 125.806 146.104 125.666 146.231 125.537L146.66 125.243L147.119 125.054C147.748 124.832 148.437 124.851 149.051 125.11C149.339 125.246 149.595 125.441 149.804 125.681C150.013 125.922 150.17 126.202 150.265 126.506Z" fill="black"/>
<path d="M151.369 133.693C151.218 133.147 151.229 132.57 151.399 132.031C151.48 131.749 151.625 131.49 151.822 131.273C151.918 131.162 152.038 131.072 152.171 131.01C152.305 130.948 152.45 130.914 152.598 130.912C152.379 131.049 152.197 131.238 152.069 131.462C151.944 131.679 151.847 131.911 151.779 132.151C151.621 132.639 151.525 133.155 151.369 133.693Z" fill="black"/>
<path d="M152.533 124.961C152.871 124.878 153.148 124.82 153.442 124.762C153.749 124.693 154.062 124.652 154.376 124.641C154.163 124.911 153.857 125.093 153.518 125.153C153.349 125.193 153.174 125.196 153.004 125.163C152.835 125.13 152.674 125.061 152.533 124.961Z" fill="black"/>
<path d="M154.332 120.628C154.326 121.056 154.382 121.483 154.499 121.894C154.602 122.305 154.821 122.678 155.131 122.968C155.294 123.106 155.484 123.209 155.689 123.271C155.894 123.333 156.109 123.352 156.321 123.328C156.543 123.31 156.762 123.274 156.977 123.22L157.611 122.991L156.996 123.278C156.781 123.354 156.559 123.411 156.334 123.45C156.1 123.496 155.86 123.495 155.627 123.445C155.394 123.396 155.174 123.3 154.979 123.163C154.598 122.868 154.31 122.469 154.149 122.015C153.978 121.572 153.874 121.106 153.839 120.632C153.836 120.6 153.839 120.567 153.849 120.536C153.859 120.505 153.875 120.476 153.896 120.451C153.917 120.426 153.943 120.405 153.972 120.39C154.001 120.376 154.033 120.367 154.066 120.364C154.098 120.361 154.131 120.365 154.162 120.376C154.193 120.386 154.222 120.402 154.247 120.424C154.271 120.445 154.291 120.471 154.306 120.5C154.321 120.53 154.329 120.562 154.331 120.594C154.332 120.602 154.332 120.609 154.332 120.617L154.332 120.628Z" fill="black"/>
<path d="M156.317 123.412C156.659 123.933 156.961 124.479 157.221 125.045C157.512 125.615 157.711 126.227 157.81 126.859C157.838 126.977 157.894 127.086 157.974 127.177C158.053 127.268 158.153 127.339 158.266 127.383C158.524 127.512 158.8 127.601 159.085 127.645C159.376 127.698 159.675 127.701 159.967 127.652C160.269 127.627 160.549 127.486 160.749 127.259C160.673 127.402 160.569 127.528 160.443 127.628C160.316 127.728 160.17 127.801 160.014 127.842C159.702 127.934 159.377 127.971 159.053 127.95C158.722 127.935 158.397 127.857 158.095 127.72C157.919 127.651 157.764 127.538 157.645 127.392C157.525 127.246 157.445 127.071 157.413 126.885C157.313 126.296 157.154 125.717 156.938 125.16L156.317 123.412Z" fill="black"/>
<path d="M162.334 124.044C162.443 124.813 162.687 125.557 163.056 126.241C163.148 126.404 163.253 126.56 163.369 126.708C163.517 126.885 163.648 127.076 163.761 127.278C163.874 127.482 163.964 127.698 164.03 127.922C164.098 128.158 164.13 128.354 164.177 128.549C164.2 128.723 164.248 128.892 164.318 129.053C164.414 129.198 164.536 129.325 164.677 129.427C164.816 129.536 164.975 129.616 165.146 129.663C165.316 129.71 165.494 129.722 165.669 129.7C166.038 129.623 166.37 129.423 166.61 129.132C166.88 128.833 167.11 128.5 167.294 128.141L167.283 128.173C167.406 127.593 167.488 127.006 167.529 126.414C167.582 125.821 167.542 125.222 167.411 124.641C167.586 125.217 167.669 125.816 167.659 126.418C167.661 127.021 167.621 127.624 167.539 128.221C167.538 128.23 167.535 128.239 167.531 128.247L167.529 128.253C167.36 128.65 167.139 129.024 166.874 129.364C166.6 129.739 166.206 130.01 165.758 130.132C165.522 130.181 165.278 130.183 165.041 130.138C164.804 130.092 164.579 130 164.378 129.867C164.171 129.738 163.989 129.573 163.841 129.379C163.76 129.271 163.702 129.149 163.668 129.019L163.576 128.712C163.492 128.334 163.347 127.972 163.147 127.642C163.045 127.486 162.928 127.34 162.798 127.207C162.643 127.038 162.501 126.857 162.374 126.667C161.891 125.913 161.548 125.079 161.362 124.203C161.347 124.14 161.345 124.075 161.356 124.011C161.367 123.947 161.39 123.886 161.424 123.831C161.459 123.776 161.504 123.729 161.556 123.691C161.609 123.653 161.669 123.627 161.732 123.612C161.795 123.598 161.86 123.596 161.924 123.606C161.988 123.617 162.049 123.64 162.104 123.675C162.159 123.709 162.207 123.754 162.244 123.807C162.282 123.86 162.309 123.919 162.323 123.982C162.326 123.994 162.328 124.006 162.33 124.018L162.334 124.044Z" fill="black"/>
<path d="M161.425 132.674C161.445 132.674 161.46 132.679 161.48 132.679L161.525 132.709L161.425 132.674Z" fill="black"/>
<path d="M171.425 132.008C162.958 130.722 154.98 127.442 152.999 126.589C152.656 126.439 152.289 126.351 151.915 126.328C150.111 126.235 149.49 126.821 149.323 127.427C149.247 127.719 149.269 128.028 149.383 128.308C149.498 128.587 149.699 128.823 149.958 128.978L158.765 134.515L158.77 134.51C159.213 133.977 159.727 133.506 160.297 133.111C160.089 133.549 159.833 133.962 159.533 134.343C160.353 134.118 161.219 134.121 162.037 134.353C172.233 135.318 174.795 133.19 174.795 133.19C173.701 132.17 171.425 132.008 171.425 132.008ZM163.988 131.166L166.058 132.673L161.312 131.963L157.04 129.102L163.988 131.166ZM166.649 133.722C164.885 133.56 163.126 133.358 161.367 133.16C161.332 133.154 161.299 133.143 161.268 133.126C159.642 132.146 158.02 131.156 156.414 130.141L154.004 128.609C153.216 128.082 152.412 127.575 151.629 127.033C152.472 127.476 153.299 127.944 154.132 128.397L156.611 129.811C158.247 130.742 159.864 131.707 161.48 132.678C163.215 132.89 164.959 133.106 166.694 133.353C168.443 133.599 170.198 133.855 171.942 134.161C170.173 134.052 168.409 133.89 166.649 133.722H166.649Z" fill="black"/>
<path d="M161.525 132.709L161.425 132.674C161.445 132.674 161.46 132.679 161.48 132.679L161.525 132.709Z" fill="black"/>
<path d="M101.49 62.0446C101.49 62.0446 100.225 61.2857 99.0436 62.6349C99.0436 62.6349 96.9346 59.6395 87.9925 62.2334C87.9925 62.2334 89.1735 64.4901 90.0171 64.4901C90.8607 64.4901 88.4143 68.369 86.1366 68.2003C86.1366 68.2003 82.2561 73.8501 85.2087 79.3312C88.1188 84.7334 90.2094 86.4495 93.0959 82.9453C93.1844 82.8366 93.2832 82.7366 93.3909 82.6468C94.221 81.9626 97.896 79.1174 99.1985 81.2389C99.4759 81.7102 99.5553 82.2722 99.4193 82.8018C98.8248 85.2907 96.0447 94.4579 87.9925 90.7993C87.9925 90.7993 78.6087 87.2818 80.822 78.9489C81.0587 78.1014 81.4019 77.2873 81.8435 76.5261C82.2692 75.7484 82.5316 74.8921 82.6145 74.0095C82.6974 73.127 82.5992 72.2368 82.3258 71.3935C81.9866 70.1913 81.2213 69.1536 80.1729 68.474C79.1564 67.8402 77.8165 67.5568 76.8014 69.329C76.3813 70.0663 76.1599 70.8999 76.1587 71.7484C76.1568 72.5249 76.3013 73.4774 76.9414 73.9344L76.1587 75.4522C75.733 74.5865 75.1887 73.7843 74.5414 73.0688C73.4574 71.9714 72.7611 70.5505 72.558 69.0218C72.2715 66.5967 72.6165 62.9757 75.5073 58.756C75.5073 58.756 79.3878 50.9981 86.6427 51.1668C93.8977 51.3354 100.14 53.2749 101.49 62.0446Z" fill="black"/>
<path d="M89.3424 72.1637C90.6026 71.8756 91.8974 71.769 93.1877 71.847C93.8377 71.8793 94.4827 71.9771 95.113 72.1389C95.7562 72.2768 96.354 72.5755 96.8504 73.007C96.2773 72.7409 95.6652 72.5685 95.0374 72.4966C94.4172 72.4074 93.7914 72.3426 93.1602 72.3144C91.8988 72.2362 90.6306 72.2302 89.3424 72.1637Z" fill="black"/>
<path d="M101.49 72.043C101.028 72.1832 100.601 72.4184 100.236 72.7334C100.063 72.8761 99.9221 73.0537 99.8223 73.2546C99.7226 73.4555 99.6663 73.6751 99.6573 73.8992C99.6912 74.3589 99.8118 74.8081 100.013 75.2231L100.564 76.5787C100.976 77.4959 101.215 78.4811 101.27 79.4848C101.269 79.7493 101.22 80.0114 101.126 80.2586C101.025 80.5089 100.86 80.7282 100.648 80.8944C100.216 81.1663 99.7062 81.2874 99.1982 81.2388C99.6744 81.1982 100.128 81.0169 100.501 80.7179C100.654 80.5548 100.769 80.3601 100.839 80.1475C100.909 79.935 100.931 79.7098 100.904 79.4877C100.868 79.0182 100.772 78.5551 100.62 78.1094C100.478 77.6529 100.309 77.2006 100.128 76.7498C99.955 76.2958 99.7674 75.8444 99.5986 75.3794C99.5179 75.1447 99.436 74.9106 99.3726 74.6631C99.2937 74.4073 99.267 74.1382 99.294 73.8718C99.3222 73.6069 99.4086 73.3515 99.5469 73.1238C99.6852 72.8961 99.8721 72.7017 100.094 72.5545C100.512 72.2753 100.99 72.0999 101.49 72.043Z" fill="black"/>
<path d="M101.489 62.0449C101.647 62.9901 101.765 63.9403 101.842 64.8958C101.93 65.8496 101.984 66.8062 102.005 67.7657C102.02 68.725 102.005 69.6862 101.93 70.648C101.886 71.6285 101.667 72.5932 101.284 73.4965C101.278 73.5077 101.271 73.5181 101.262 73.5273C100.966 73.8459 100.688 74.181 100.43 74.5309C100.302 74.7061 100.188 74.8912 100.089 75.0845C99.9788 75.2728 99.9348 75.4923 99.9637 75.7083C99.896 75.491 99.9082 75.2566 99.9982 75.0475C100.076 74.8365 100.17 74.6321 100.28 74.4362C100.501 74.0457 100.755 73.6756 101.041 73.3302L101.02 73.3609C101.184 72.9295 101.293 72.4793 101.344 72.0209C101.418 71.5585 101.447 71.0863 101.482 70.6157C101.538 69.671 101.547 68.7207 101.553 67.7699C101.553 65.8668 101.511 63.9601 101.489 62.0449Z" fill="black"/>
<path d="M96.4282 78.5742C96.3392 78.7573 96.2673 78.9481 96.2133 79.1444C96.1584 79.3257 96.1464 79.5172 96.1782 79.704C96.2044 79.889 96.2853 80.062 96.4105 80.2008C96.543 80.354 96.6902 80.4938 96.85 80.6183C96.7478 80.588 96.6474 80.5521 96.5492 80.5106C96.4537 80.458 96.3637 80.396 96.2805 80.3255C96.1064 80.1748 95.9889 79.9693 95.9474 79.7429C95.9178 79.5187 95.9514 79.2906 96.0442 79.0844C96.1309 78.8869 96.2624 78.7122 96.4282 78.5742Z" fill="black"/>
<path d="M76.9407 73.9355C77.2327 74.3019 77.4657 74.7115 77.6312 75.1497C77.7199 75.3734 77.7841 75.606 77.8226 75.8435C77.8433 75.968 77.8515 76.0943 77.8472 76.2204L77.8448 76.3175L77.8505 76.3701C77.8483 76.4044 77.8558 76.4386 77.8721 76.4689C77.9445 76.6231 78.0723 76.7445 78.2301 76.8089C78.4175 76.9046 78.6149 76.9793 78.8186 77.0317C79.252 77.1485 79.6977 77.2131 80.1464 77.2242C79.7032 77.3978 79.223 77.4553 78.7513 77.3911C78.5052 77.366 78.2642 77.3042 78.0363 77.2079C77.9022 77.1559 77.7798 77.0779 77.676 76.9784C77.5723 76.8789 77.4892 76.7598 77.4317 76.6281C77.4014 76.5539 77.3866 76.4743 77.3882 76.3942L77.3865 76.2759L77.3901 76.202C77.3953 76.1 77.393 75.9977 77.3832 75.8961C77.3645 75.68 77.3308 75.4656 77.2822 75.2542C77.1866 74.8209 77.0606 74.3854 76.9407 73.9355Z" fill="black"/>
<path d="M76.1585 75.4531C75.9703 76.1352 75.7048 76.7935 75.3673 77.4155C75.037 78.0465 74.6382 78.6394 74.1782 79.1833C73.7179 79.7375 73.172 80.2146 72.5611 80.5965C71.9486 80.9761 71.2475 81.1892 70.5273 81.2148C71.1865 81.0169 71.8058 80.7049 72.3571 80.2931C72.8966 79.8783 73.3878 79.4042 73.8214 78.8798C74.2669 78.3561 74.6787 77.8047 75.0544 77.2289C75.4326 76.6506 75.8082 76.0641 76.1585 75.4531Z" fill="black"/>
<path d="M82.3399 95.1863C82.873 94.9527 83.377 94.6578 83.8419 94.3077C84.3031 93.9634 84.7407 93.5885 85.1516 93.1855C85.5753 92.7944 85.9552 92.3572 86.3498 91.9291L86.9242 91.2663C87.1112 91.04 87.2978 90.8121 87.5036 90.5938C87.3861 90.8672 87.2495 91.1314 87.1133 91.3973C86.959 91.6511 86.8073 91.9088 86.6377 92.1545C86.2956 92.647 85.9067 93.1052 85.4764 93.5229C85.044 93.9439 84.5615 94.3102 84.0397 94.6135C83.5223 94.9275 82.9418 95.1231 82.3399 95.1863Z" fill="black"/>
<path d="M73.9008 79.0308C73.481 78.409 72.9617 77.8604 72.3638 77.407C72.2394 77.2971 72.0886 77.2212 71.9261 77.1868C71.7636 77.1523 71.595 77.1605 71.4366 77.2104C71.1568 77.4004 70.956 77.686 70.8718 78.0135C70.7566 78.3627 70.6735 78.7217 70.6237 79.086C70.5987 79.2672 70.5764 79.4558 70.56 79.6301C70.561 79.796 70.5756 79.991 70.5922 80.1723C70.6648 80.916 70.8027 81.6518 71.0043 82.3712C71.3757 83.8351 71.9524 85.2391 72.7175 86.5413C73.4927 87.8431 74.4201 89.0481 75.48 90.1308C76.0115 90.6682 76.5639 91.1855 77.1245 91.6897C77.7068 92.1699 78.2631 92.6856 78.8692 93.1265C79.1616 93.3625 79.4839 93.5541 79.7893 93.7701C80.1125 93.9559 80.4228 94.1669 80.7595 94.3246C81.4101 94.678 82.1022 94.9491 82.8197 95.1317C84.2528 95.5117 85.7755 95.352 87.0984 94.6828C88.4278 93.9735 89.5444 92.9234 90.3337 91.6403C90.3365 91.6347 90.3415 91.6306 90.3474 91.6287C90.3533 91.6268 90.3598 91.6273 90.3653 91.6302C90.3704 91.6333 90.3743 91.6382 90.3761 91.644C90.378 91.6497 90.3777 91.656 90.3754 91.6615C89.6889 93.0548 88.61 94.2172 87.2713 95.0057C86.5858 95.3944 85.8316 95.6472 85.0501 95.7502C84.2662 95.8428 83.472 95.7923 82.7061 95.6012C81.9457 95.4207 81.2138 95.1363 80.531 94.7561C80.1824 94.5831 79.8659 94.359 79.5352 94.1589C79.2248 93.9302 78.8963 93.7244 78.6018 93.4767C77.9845 93.0132 77.444 92.4718 76.8727 91.9632C76.5814 91.7154 76.3345 91.4197 76.067 91.1472C75.8093 90.8647 75.5303 90.603 75.291 90.3043C74.2922 89.1503 73.3852 87.92 72.5784 86.6247C71.7567 85.3296 71.1023 83.9359 70.6307 82.4766C70.4005 81.7382 70.2502 80.9774 70.1823 80.207C70.1694 80.0096 70.1577 79.8255 70.1621 79.6114C70.1844 79.4086 70.2119 79.2199 70.243 79.0256C70.3051 78.6383 70.4028 78.2575 70.5348 77.8881C70.5943 77.6842 70.6938 77.4942 70.8275 77.3292C70.9611 77.1642 71.1263 77.0274 71.3134 76.9268C71.5238 76.8444 71.7567 76.8396 71.9702 76.9135C72.1644 76.9799 72.3457 77.0792 72.5063 77.2069C73.0958 77.709 73.5829 78.32 73.9409 79.0065C73.9424 79.0092 73.9434 79.0121 73.9438 79.0152C73.9442 79.0182 73.9439 79.0213 73.9431 79.0243C73.9423 79.0272 73.9409 79.03 73.939 79.0324C73.9371 79.0348 73.9348 79.0369 73.9321 79.0384C73.9268 79.0411 73.9208 79.0418 73.915 79.0404C73.9093 79.039 73.9042 79.0356 73.9008 79.0308Z" fill="black"/>
<path d="M75.3265 77.0464C74.5733 76.5828 73.7332 76.2782 72.8578 76.1514C71.9954 75.9939 71.1052 76.1533 70.3511 76.6002C69.9955 76.8472 69.6965 77.1669 69.474 77.5381L68.7086 78.6369C68.202 79.3837 67.6348 80.0876 67.0127 80.7413C66.9982 80.7556 66.9808 80.7667 66.9618 80.774C66.9427 80.7812 66.9223 80.7843 66.902 80.7832L66.8906 80.7825C63.7381 80.5958 60.5747 80.521 57.4196 80.5423C55.8417 80.5554 54.2655 80.6186 52.6984 80.7417C51.1433 80.8277 49.6036 81.0948 48.1106 81.5377L48.0842 81.5449L48.0481 81.5526C47.2217 81.764 46.4345 82.1065 45.7166 82.5671C45.3432 82.7932 44.9838 83.0418 44.6405 83.3115L44.1204 83.7116C43.9526 83.8522 43.7944 84.0054 43.6309 84.1515C42.3283 85.3415 41.171 86.6812 40.1831 88.1428C38.2004 91.0905 36.5799 94.2661 35.3564 97.601C35.054 98.4378 34.7229 99.2639 34.4439 100.109L33.6453 102.658C33.3751 103.498 33.1335 104.388 32.8187 105.238C32.5127 106.096 32.1546 106.926 31.8118 107.75L30.7564 110.227L30.2069 111.461C30.0196 111.888 29.8108 112.305 29.5813 112.711C29.5348 112.787 29.4819 112.858 29.4233 112.925C29.4567 112.927 29.4596 112.85 29.4615 112.881C29.4561 112.929 29.4581 112.977 29.4675 113.025C29.5026 113.199 29.5627 113.367 29.646 113.525C29.8302 113.876 30.0761 114.192 30.3719 114.456C30.9762 114.999 31.7319 115.344 32.5378 115.446L32.221 116.215C31.7239 115.827 31.2534 115.406 30.8127 114.955C30.5711 114.711 30.3605 114.439 30.1856 114.145C30.1329 114.049 30.091 113.948 30.0608 113.842C30.0449 113.773 30.0342 113.703 30.0287 113.632C30.0286 113.539 30.0445 113.447 30.0755 113.359C30.1108 113.265 30.1676 113.18 30.2414 113.112C30.2756 113.08 30.3116 113.05 30.3492 113.022C30.3819 113.004 30.4137 112.989 30.4468 112.973C30.5578 112.922 30.6761 112.889 30.7975 112.875C31.1442 112.85 31.4927 112.875 31.8325 112.948C32.15 113.006 32.4539 113.083 32.7566 113.162L33.6592 113.449L34.5322 113.799C36.8125 114.828 38.8348 116.193 40.9401 117.394C43.0317 118.615 45.1949 119.709 47.418 120.671C49.6485 121.62 51.9281 122.45 54.2472 123.156L54.25 123.156C54.3135 123.176 54.3685 123.217 54.4057 123.272C54.443 123.327 54.4603 123.393 54.4548 123.46C54.254 125.725 54.1726 127.999 54.2111 130.272C54.2268 131.403 54.3235 132.531 54.5003 133.648C54.5844 134.193 54.741 134.724 54.966 135.227C55.0707 135.454 55.2274 135.653 55.4234 135.807C55.4736 135.829 55.5222 135.853 55.5708 135.878C55.622 135.894 55.6766 135.893 55.729 135.905C55.8469 135.919 56.0077 135.911 56.145 135.915L69.8545 135.952C74.4243 135.975 78.9938 135.95 83.5635 135.944L97.2727 135.898L97.1146 135.968C98.0481 134.985 99.0697 134.09 100.167 133.294C101.261 132.486 102.451 131.815 103.708 131.294C104.978 130.76 106.343 130.486 107.722 130.489C108.421 130.501 109.116 130.602 109.791 130.789L111.69 131.425C112.325 131.631 112.961 131.832 113.599 132.017C114.212 132.224 114.847 132.361 115.491 132.426C116.206 132.506 116.898 132.73 117.524 133.085C117.853 133.261 118.151 133.491 118.404 133.765C118.546 133.916 118.656 134.095 118.727 134.29C118.798 134.485 118.83 134.692 118.819 134.899C118.837 135.253 118.825 135.607 118.783 135.958C118.74 136.365 118.567 136.749 118.291 137.052C117.994 137.345 117.602 137.524 117.186 137.556C116.819 137.596 116.449 137.584 116.086 137.522C115.74 137.467 115.397 137.389 115.062 137.289L114.103 136.999C113.797 136.911 113.485 136.843 113.17 136.795C112.909 136.742 112.64 136.744 112.38 136.803L112.475 136.151C113.743 137.039 115.232 137.558 116.777 137.652C117.559 137.693 118.342 137.648 119.113 137.518C119.909 137.409 120.699 137.275 121.502 137.142C121.906 137.078 122.307 137.007 122.752 136.979C122.995 136.959 123.24 136.973 123.479 137.022C123.769 137.084 124.03 137.238 124.224 137.461C124.391 137.659 124.519 137.887 124.601 138.133C124.836 138.793 124.871 139.508 124.702 140.188C124.582 140.64 124.37 141.061 124.078 141.426C123.786 141.791 123.421 142.09 123.007 142.306C122.23 142.704 121.384 142.952 120.515 143.036L120.894 142.751C120.691 143.214 120.44 143.654 120.143 144.063C119.849 144.477 119.506 144.853 119.122 145.185C118.718 145.523 118.259 145.789 117.765 145.97C117.256 146.141 116.719 146.209 116.184 146.17L116.589 146.004C115.765 146.963 114.957 147.905 114.03 148.811C113.911 148.924 113.786 149.038 113.647 149.15C113.504 149.259 113.353 149.359 113.197 149.449C112.905 149.614 112.6 149.758 112.287 149.879C111.676 150.117 111.045 150.297 110.401 150.419C109.125 150.657 107.823 150.717 106.531 150.598C106.209 150.575 105.891 150.523 105.571 150.487L104.622 150.32L103.732 150.175L102.827 150.081C100.362 149.954 97.8908 150.034 95.4393 150.319C92.9709 150.569 90.5094 150.941 88.0601 151.375C86.8449 151.591 85.6413 151.876 84.4152 152.146C83.1943 152.417 81.9692 152.681 80.7408 152.929C78.283 153.42 75.8143 153.867 73.3311 154.222C68.3657 154.959 63.3557 155.355 58.3362 155.408C57.7088 155.41 57.0817 155.434 56.4543 155.419L54.5725 155.377C53.3176 155.368 52.0652 155.279 50.8127 155.204C49.5586 155.151 48.3112 155.006 47.0624 154.884C46.4352 154.815 45.8209 154.776 45.1813 154.677C44.5479 154.579 43.9208 154.444 43.3034 154.272C40.8094 153.6 38.5471 152.258 36.7618 150.391C34.9741 148.515 33.8436 146.11 33.5401 143.536C32.9906 138.549 32.77 133.554 32.6449 128.557C32.5357 123.56 32.5221 118.564 32.6038 113.568C32.604 113.555 32.6093 113.543 32.6186 113.533C32.6279 113.524 32.6405 113.519 32.6536 113.519C32.6667 113.52 32.6792 113.525 32.6883 113.534C32.6975 113.543 32.7025 113.556 32.7024 113.569C32.7233 118.563 32.8384 123.554 33.0476 128.544C33.2686 133.528 33.5413 138.521 34.1611 143.456C34.4794 145.882 35.5777 148.139 37.2906 149.887C38.9975 151.636 41.1496 152.886 43.5149 153.502C44.1025 153.66 44.6989 153.784 45.3011 153.872C45.8971 153.96 46.5313 153.996 47.1462 154.058C48.3849 154.168 49.6214 154.301 50.8651 154.343C52.1071 154.406 53.3483 154.484 54.5926 154.482L56.4577 154.508C57.0794 154.518 57.7013 154.489 58.323 154.481L60.1879 154.443L62.0511 154.347C63.294 154.298 64.5332 154.189 65.773 154.089C67.0144 154.009 68.2485 153.843 69.4864 153.723C70.7207 153.569 71.9557 153.417 73.186 153.233C75.6489 152.876 78.098 152.428 80.5386 151.936C81.7587 151.687 82.9755 151.422 84.193 151.15C85.406 150.88 86.6339 150.587 87.8785 150.363C90.348 149.921 92.83 149.541 95.3327 149.283C97.8465 148.985 100.382 148.91 102.909 149.06L103.867 149.165L104.825 149.326L105.721 149.487C106.021 149.522 106.32 149.574 106.621 149.596C107.82 149.713 109.029 149.664 110.215 149.449C110.799 149.342 111.373 149.181 111.928 148.969C112.197 148.866 112.459 148.744 112.712 148.604C112.827 148.538 112.937 148.466 113.044 148.387C113.148 148.304 113.255 148.209 113.363 148.107C114.227 147.272 115.055 146.321 115.862 145.389C115.909 145.334 115.968 145.291 116.034 145.262C116.1 145.233 116.171 145.219 116.243 145.221L116.267 145.222C116.669 145.252 117.072 145.202 117.455 145.077C117.842 144.935 118.202 144.729 118.519 144.466C118.845 144.185 119.136 143.867 119.387 143.518C119.642 143.17 119.859 142.796 120.037 142.402L120.038 142.4C120.072 142.324 120.124 142.258 120.19 142.208C120.257 142.159 120.335 142.127 120.417 142.116C121.163 142.049 121.89 141.843 122.56 141.509C122.868 141.356 123.141 141.139 123.359 140.873C123.578 140.607 123.737 140.298 123.828 139.965C123.916 139.63 123.935 139.28 123.882 138.938C123.849 138.621 123.738 138.317 123.559 138.053C123.489 137.965 123.388 137.905 123.277 137.886C123.119 137.855 122.957 137.846 122.797 137.859C122.433 137.878 122.034 137.941 121.638 138C120.842 138.124 120.034 138.252 119.224 138.354C118.396 138.483 117.556 138.522 116.719 138.468C115.012 138.349 113.374 137.752 111.99 136.746L111.983 136.741C111.928 136.701 111.886 136.647 111.86 136.584C111.835 136.522 111.827 136.453 111.837 136.387C111.848 136.32 111.877 136.258 111.92 136.206C111.964 136.154 112.021 136.116 112.085 136.094C112.473 135.978 112.885 135.962 113.282 136.046C113.628 136.103 113.971 136.181 114.307 136.281L115.268 136.582C115.573 136.677 115.883 136.752 116.198 136.805C116.804 136.908 117.463 136.897 117.788 136.559C118.129 136.226 118.151 135.567 118.135 134.909C118.138 134.834 118.135 134.759 118.126 134.684C118.125 134.63 118.113 134.576 118.091 134.526C118.047 134.408 117.98 134.299 117.895 134.206C117.694 133.988 117.458 133.804 117.197 133.662C116.657 133.35 116.061 133.148 115.443 133.066C114.754 132.992 114.077 132.84 113.422 132.613C112.777 132.418 112.138 132.209 111.501 131.995L109.598 131.336C108.983 131.163 108.348 131.066 107.708 131.047C106.403 131.033 105.108 131.279 103.899 131.773C101.457 132.806 99.2551 134.332 97.4305 136.255L97.4237 136.262C97.4039 136.282 97.3804 136.298 97.3544 136.308C97.3284 136.319 97.3005 136.325 97.2723 136.325L83.5645 136.279C78.9952 136.273 74.4258 136.248 69.8566 136.271L56.149 136.308C56.0011 136.306 55.875 136.317 55.7091 136.304C55.6206 136.296 55.5328 136.282 55.4464 136.261L55.2062 136.149C54.945 135.959 54.7348 135.707 54.5942 135.416C54.3433 134.88 54.1659 134.312 54.0671 133.728C53.8703 132.591 53.7555 131.441 53.7235 130.288C53.6529 127.994 53.7034 125.698 53.8748 123.41L54.0823 123.714C51.7308 123.033 49.4177 122.226 47.1529 121.297C44.8909 120.354 42.6876 119.276 40.555 118.069C38.4131 116.893 36.3742 115.526 34.2017 114.562L33.378 114.235L32.5385 113.972C32.2521 113.898 31.9649 113.827 31.6828 113.778C31.4265 113.723 31.1641 113.702 30.9023 113.715C30.8673 113.724 30.8062 113.731 30.8146 113.736L30.8089 113.735C30.8177 113.733 30.8255 113.728 30.8315 113.721C30.8356 113.708 30.8643 113.688 30.8694 113.659C30.8842 113.542 30.8688 113.651 30.9339 113.741C31.0748 113.967 31.2414 114.176 31.4305 114.365C31.8433 114.782 32.2834 115.173 32.7477 115.532L32.7518 115.536C32.8258 115.594 32.8788 115.675 32.9024 115.766C32.9261 115.857 32.9192 115.954 32.8828 116.04C32.8463 116.127 32.7824 116.2 32.7008 116.247C32.6192 116.294 32.5244 116.313 32.4309 116.301C31.4463 116.181 30.5223 115.762 29.7829 115.101C29.4087 114.768 29.0976 114.37 28.8643 113.927C28.7372 113.688 28.647 113.431 28.5967 113.166C28.564 112.993 28.5685 112.815 28.6101 112.645C28.6442 112.518 28.7077 112.401 28.7954 112.303C28.8052 112.275 28.7987 112.3 28.8304 112.243C29.0239 111.909 29.2201 111.486 29.4052 111.092L29.9546 109.875L31.0178 107.416C31.3668 106.589 31.7224 105.776 32.0219 104.949C32.3333 104.12 32.565 103.281 32.8473 102.418L33.6678 99.8455C33.9544 98.9925 34.2941 98.1565 34.6048 97.3114C35.8684 93.9236 37.5357 90.7003 39.5706 87.7112C40.0892 86.9663 40.6453 86.2482 41.2367 85.5597C41.8392 84.8762 42.4841 84.2312 43.1677 83.6286C43.3398 83.4787 43.5061 83.3223 43.683 83.178L44.2326 82.7659C44.5973 82.4872 44.9785 82.2308 45.3741 81.9981C46.1718 81.4992 47.0476 81.1377 47.965 80.9286L47.9026 80.9435C49.4509 80.5015 51.0459 80.2435 52.6546 80.1747C54.243 80.0703 55.8311 80.0274 57.4173 80.0343C60.5905 80.0411 63.7553 80.2017 66.9155 80.4537L66.7936 80.4947C67.4121 79.8687 67.979 79.1938 68.4888 78.4766L69.2743 77.3993C69.5216 77.0098 69.8481 76.6768 70.2326 76.4218C70.6215 76.1712 71.0642 76.0163 71.5245 75.9699C71.9755 75.9164 72.4317 75.9254 72.8803 75.9966C73.7716 76.145 74.623 76.4745 75.3818 76.9649C75.3927 76.9718 75.4005 76.9828 75.4033 76.9955C75.4062 77.0081 75.404 77.0214 75.3971 77.0324C75.3902 77.0434 75.3793 77.0513 75.3667 77.0542C75.3541 77.0572 75.3408 77.0551 75.3297 77.0483L75.3265 77.0464Z" fill="black"/>
<path d="M52.1835 85.4023C52.7979 85.5765 53.3554 85.9097 53.7998 86.3682C54.2576 86.8195 54.6238 87.355 54.8782 87.9453C55.133 88.5323 55.2763 89.1616 55.3007 89.801C55.3129 90.1157 55.2968 90.4308 55.2525 90.7426C55.1989 91.052 55.1171 91.3559 55.0081 91.6504C54.8987 91.3456 54.8494 91.0516 54.769 90.7641C54.6828 90.4785 54.6312 90.1942 54.5353 89.9224C54.3825 89.3826 54.1951 88.8532 53.9743 88.3375C53.7528 87.8247 53.4939 87.3288 53.1996 86.854C52.8913 86.3496 52.552 85.8647 52.1835 85.4023Z" fill="black"/>
<path d="M54.3332 97.209C54.523 99.3956 54.6157 101.582 54.6741 103.768C54.7386 105.954 54.7455 108.139 54.7413 110.325C54.7187 112.51 54.6836 114.695 54.5912 116.88C54.505 119.065 54.3837 121.25 54.1644 123.434C53.9734 121.247 53.8802 119.061 53.8221 116.875C53.7578 114.689 53.7508 112.504 53.7563 110.318C53.7802 108.133 53.8152 105.948 53.9079 103.763C53.9944 101.578 54.1152 99.3931 54.3332 97.209Z" fill="black"/>
<path d="M99.4479 82.7634C101.253 83.8921 103.024 85.0678 104.763 86.2904C105.633 86.9009 106.496 87.5224 107.352 88.1549L108.626 89.1274C108.849 89.2948 109.06 89.4789 109.255 89.6781L109.558 89.994L109.813 90.317C110.473 91.1679 111.076 92.0623 111.616 92.9941C112.16 93.9122 112.69 94.8364 113.205 95.7665C114.223 97.6353 115.272 99.4832 116.35 101.31C116.89 102.225 117.44 103.133 118 104.035L118.838 105.388C119.087 105.83 119.382 106.244 119.719 106.623C120.076 106.973 120.501 107.32 120.871 107.756C121.309 108.212 121.573 108.808 121.616 109.439C121.583 110.086 121.301 110.695 120.829 111.139C120.628 111.343 120.416 111.536 120.194 111.718C119.996 111.878 119.803 112.045 119.614 112.218C119.235 112.567 118.886 112.932 118.531 113.326C118.17 113.725 117.796 114.112 117.417 114.495C116.65 115.259 115.837 115.975 114.98 116.638C114.107 117.314 113.157 117.883 112.15 118.334C111.621 118.558 111.066 118.711 110.498 118.791C109.901 118.88 109.292 118.827 108.719 118.637C108.628 118.609 108.55 118.549 108.501 118.467L108.498 118.462C108.128 117.849 107.723 117.239 107.313 116.641C106.904 116.04 106.475 115.454 106.027 114.883C105.577 114.315 105.097 113.773 104.588 113.259C104.097 112.729 103.497 112.314 102.828 112.042L102.825 112.041C102.813 112.037 102.803 112.028 102.797 112.017C102.792 112.006 102.79 111.994 102.794 111.982C102.797 111.97 102.805 111.959 102.815 111.953C102.826 111.946 102.838 111.944 102.851 111.946C103.581 112.135 104.256 112.493 104.821 112.993C105.4 113.461 105.943 113.973 106.445 114.524C107.453 115.615 108.379 116.779 109.217 118.007L108.995 117.832C109.934 118.023 110.909 117.881 111.754 117.431C112.677 116.991 113.544 116.444 114.338 115.8C115.16 115.162 115.947 114.479 116.693 113.754C117.071 113.393 117.445 113.026 117.806 112.648C118.173 112.262 118.568 111.869 118.981 111.511C119.188 111.33 119.401 111.155 119.62 110.987C119.819 110.822 120.008 110.68 120.175 110.511C120.497 110.233 120.708 109.847 120.768 109.425C120.742 108.988 120.568 108.572 120.273 108.248C119.971 107.859 119.59 107.508 119.22 107.085C119.123 106.975 119.031 106.859 118.947 106.739L118.733 106.377L118.349 105.672L117.597 104.266C117.102 103.326 116.595 102.393 116.078 101.467C115.041 99.6154 113.948 97.7949 112.764 96.0339C111.591 94.2754 110.4 92.4952 109.129 90.8705L108.888 90.5702L108.637 90.3141C108.466 90.1303 108.279 89.9606 108.08 89.8067L106.841 88.8228L104.34 86.8595C102.668 85.5522 101.018 84.2134 99.39 82.8431C99.3804 82.8351 99.3742 82.8237 99.3727 82.8113C99.3712 82.7989 99.3744 82.7864 99.3817 82.7762C99.3891 82.7661 99.4 82.7591 99.4123 82.7568C99.4246 82.7544 99.4373 82.7568 99.4479 82.7634L99.4479 82.7634Z" fill="black"/>
<path d="M106.046 98.6699C105.183 101.911 104.368 105.159 103.688 108.42C103.338 110.037 103.093 111.674 102.956 113.323C102.91 114.115 102.905 114.99 102.835 115.839C102.767 116.703 102.623 117.561 102.403 118.4C101.885 120.059 101.055 121.604 99.9577 122.951C99.4507 123.627 98.9135 124.281 98.4105 124.937C98.1686 125.264 97.9231 125.587 97.7059 125.936C97.4729 126.273 97.2623 126.627 97.0527 126.982C96.2274 128.423 95.4895 129.913 94.843 131.444C94.161 132.968 93.5728 134.534 92.998 136.11C93.7299 132.816 94.8659 129.624 96.3803 126.609C96.7713 125.846 97.2192 125.114 97.7202 124.419C98.217 123.732 98.7261 123.077 99.2058 122.399C100.215 121.131 100.977 119.685 101.454 118.136C101.665 117.356 101.807 116.559 101.877 115.754C101.955 114.933 101.953 114.132 102.028 113.253C102.204 111.565 102.509 109.893 102.941 108.252C103.768 104.994 104.805 101.794 106.046 98.6699Z" fill="black"/>
<path d="M120.466 110.869C121.55 111.711 122.577 112.608 123.621 113.443C123.885 113.646 124.148 113.846 124.406 114.022L124.835 114.277C124.993 114.377 125.144 114.482 125.287 114.592C125.84 115.038 126.349 115.536 126.807 116.079C127.716 117.155 128.431 118.38 128.92 119.701C129.432 121.009 129.576 122.432 129.338 123.817C129.194 122.487 128.814 121.194 128.216 119.997C127.633 118.818 126.907 117.715 126.055 116.713C125.644 116.21 125.19 115.744 124.697 115.321C124.577 115.216 124.454 115.118 124.331 115.028L123.904 114.731C123.623 114.514 123.357 114.278 123.107 114.025C122.131 113.057 121.247 112 120.466 110.869Z" fill="black"/>
<path d="M109.585 118.381C110.554 119.68 111.216 121.182 111.522 122.774C111.556 122.977 111.585 123.181 111.613 123.387C111.632 123.586 111.634 123.821 111.659 123.992C111.697 124.34 111.78 124.682 111.906 125.009C112.181 125.707 112.533 126.372 112.956 126.992C113.375 127.634 113.837 128.247 114.337 128.828C114.578 129.127 114.845 129.405 115.102 129.693C115.38 129.958 115.634 130.252 115.921 130.509C117.014 131.618 118.323 132.492 119.768 133.075C118.963 132.993 118.18 132.765 117.458 132.402C116.736 132.035 116.053 131.595 115.419 131.091C114.142 130.086 113.033 128.884 112.132 127.531C111.675 126.839 111.303 126.093 111.026 125.311C110.892 124.892 110.816 124.457 110.798 124.018C110.785 123.796 110.791 123.636 110.791 123.44L110.763 122.876C110.586 121.329 110.189 119.816 109.585 118.381Z" fill="black"/>
<path d="M120.466 131.024C120.564 130.389 120.784 129.779 121.114 129.228C121.437 128.671 121.83 128.157 122.283 127.698C122.741 127.248 123.249 126.852 123.798 126.517C124.071 126.351 124.352 126.201 124.641 126.066C124.937 125.945 125.232 125.827 125.533 125.729C125.01 126.091 124.494 126.44 124.005 126.819C123.517 127.193 123.053 127.597 122.614 128.029C122.182 128.464 121.783 128.931 121.42 129.425C121.05 129.925 120.73 130.461 120.466 131.024Z" fill="black"/>
<path d="M122.244 132.148C123.339 130.398 124.538 128.716 125.836 127.11C126.485 126.305 127.159 125.52 127.859 124.752C128.57 123.989 129.324 123.266 130.117 122.587C130.924 121.878 131.833 121.294 132.813 120.853C133.343 120.63 133.914 120.52 134.489 120.532C135.078 120.547 135.654 120.712 136.162 121.01C137.108 121.62 137.832 122.518 138.226 123.572C138.432 124.073 138.58 124.596 138.669 125.131C138.779 125.684 138.768 126.254 138.636 126.803L138.479 126.457C139.587 127.023 140.655 127.635 141.714 128.272C142.77 128.91 143.813 129.572 144.818 130.291C145.845 130.99 146.796 131.794 147.656 132.69C148.092 133.152 148.461 133.672 148.754 134.235C149.075 134.835 149.152 135.536 148.967 136.191L148.972 136.173C148.832 136.716 148.532 137.203 148.111 137.572C147.882 137.756 147.616 137.887 147.331 137.956C147.046 138.026 146.749 138.032 146.461 137.974C145.927 137.866 145.42 137.654 144.967 137.351C144.532 137.067 144.121 136.747 143.739 136.396L144.399 136.111C144.381 136.786 144.236 137.452 143.973 138.075C143.715 138.703 143.328 139.271 142.838 139.742C142.348 140.205 141.773 140.571 141.145 140.819C140.879 140.934 140.62 141.064 140.369 141.209C140.254 141.274 140.143 141.348 140.037 141.429C139.997 141.459 139.96 141.493 139.926 141.529C139.899 141.552 139.907 141.579 139.93 141.491L139.763 141.019C140.07 141.286 140.324 141.608 140.511 141.969C140.711 142.339 140.816 142.753 140.816 143.174C140.816 143.595 140.711 144.009 140.512 144.38C140.33 144.732 140.09 145.051 139.803 145.324C139.227 145.866 138.495 146.215 137.71 146.32C137.346 146.364 136.979 146.381 136.612 146.371C136.217 146.37 135.825 146.308 135.449 146.186L135.798 146.187C134.65 146.542 133.471 146.785 132.276 146.913C131.084 147.034 129.883 147.028 128.692 146.893C128.073 146.835 127.464 146.691 126.883 146.466C126.561 146.342 126.269 146.149 126.027 145.901C125.786 145.653 125.601 145.357 125.485 145.031C125.314 144.378 125.393 143.686 125.705 143.088C125.844 142.799 126.025 142.531 126.241 142.294C126.471 142.006 126.802 141.817 127.166 141.763L127.126 141.768C127.297 141.742 127.471 141.727 127.644 141.724C127.815 141.72 127.986 141.727 128.156 141.743C128.504 141.771 128.844 141.862 129.159 142.011L128.905 142.307C128.748 142.029 128.626 141.733 128.54 141.426C128.452 141.12 128.413 140.802 128.424 140.484C128.435 140.163 128.526 139.85 128.688 139.572C128.853 139.304 129.076 139.078 129.342 138.91C129.353 138.902 129.366 138.9 129.379 138.902C129.392 138.905 129.403 138.913 129.41 138.923C129.417 138.934 129.419 138.946 129.417 138.959C129.415 138.971 129.409 138.982 129.4 138.99C129.169 139.169 128.982 139.398 128.853 139.661C128.732 139.919 128.674 140.202 128.686 140.487C128.7 140.774 128.758 141.056 128.859 141.324C128.958 141.592 129.087 141.848 129.246 142.085C129.27 142.12 129.282 142.163 129.281 142.205C129.279 142.248 129.264 142.29 129.238 142.323C129.211 142.357 129.175 142.381 129.133 142.393C129.092 142.405 129.048 142.403 129.008 142.388L128.992 142.382C128.713 142.28 128.42 142.224 128.123 142.215C127.972 142.21 127.821 142.213 127.67 142.225C127.522 142.237 127.375 142.258 127.229 142.287L127.21 142.29L127.188 142.292C126.982 142.364 126.803 142.498 126.677 142.677C126.514 142.881 126.38 143.107 126.281 143.349C126.07 143.804 126.035 144.32 126.181 144.8C126.273 145.019 126.411 145.215 126.585 145.376C126.76 145.537 126.967 145.658 127.193 145.731C127.707 145.904 128.241 146.008 128.782 146.038C129.909 146.124 131.042 146.09 132.162 145.935C133.279 145.796 134.381 145.552 135.453 145.204C135.562 145.168 135.68 145.167 135.789 145.201L135.801 145.205C136.38 145.333 136.977 145.357 137.565 145.277C138.132 145.204 138.662 144.955 139.08 144.565C139.491 144.208 139.748 143.707 139.799 143.165C139.801 142.906 139.741 142.65 139.623 142.419C139.501 142.177 139.338 141.957 139.141 141.771L139.105 141.739C139.046 141.684 139.002 141.614 138.979 141.537C138.956 141.46 138.954 141.378 138.973 141.299C139.012 141.136 139.095 140.987 139.214 140.869C139.286 140.793 139.365 140.724 139.449 140.662C139.591 140.557 139.739 140.462 139.894 140.378C140.182 140.219 140.479 140.077 140.783 139.953C141.314 139.759 141.802 139.465 142.22 139.085C142.631 138.704 142.963 138.245 143.195 137.734C143.432 137.223 143.575 136.673 143.615 136.111L143.617 136.082C143.622 136.007 143.647 135.936 143.691 135.876C143.735 135.816 143.795 135.77 143.864 135.743C143.934 135.716 144.009 135.709 144.082 135.724C144.155 135.739 144.222 135.774 144.276 135.826C144.616 136.16 144.982 136.467 145.37 136.744C145.733 137.018 146.145 137.219 146.584 137.337C146.784 137.391 146.992 137.4 147.196 137.363C147.399 137.326 147.591 137.244 147.759 137.124C148.104 136.846 148.359 136.471 148.491 136.048L148.496 136.03C148.669 135.494 148.627 134.912 148.379 134.406C148.132 133.863 147.799 133.363 147.393 132.926C146.566 132.032 145.645 131.23 144.644 130.534C142.628 129.146 140.48 127.958 138.232 126.988C138.171 126.961 138.122 126.914 138.092 126.854C138.063 126.795 138.054 126.727 138.069 126.663L138.074 126.642C138.148 126.18 138.126 125.708 138.01 125.255C137.903 124.779 137.744 124.317 137.534 123.877C137.158 123.008 136.528 122.272 135.727 121.767C135.331 121.553 134.891 121.432 134.441 121.415C133.991 121.397 133.543 121.484 133.132 121.667C132.231 122.065 131.392 122.59 130.641 123.227C129.853 123.864 129.1 124.544 128.386 125.264C127.659 125.977 126.956 126.719 126.273 127.481C124.915 129.012 123.593 130.585 122.325 132.204C122.321 132.209 122.316 132.213 122.311 132.216C122.305 132.22 122.299 132.222 122.293 132.223C122.286 132.224 122.28 132.223 122.273 132.222C122.267 132.22 122.261 132.217 122.256 132.213C122.246 132.206 122.24 132.195 122.238 132.183C122.235 132.171 122.238 132.158 122.244 132.148Z" fill="black"/>
<path d="M132.141 124.643C132.146 125.554 132.262 126.462 132.486 127.346C132.603 127.764 132.788 128.16 133.034 128.517C133.267 128.853 133.617 129.089 134.016 129.179C134.428 129.278 134.857 129.273 135.266 129.165C135.69 129.067 136.093 128.89 136.452 128.643C137.198 128.125 137.844 127.474 138.355 126.723C137.993 127.597 137.415 128.365 136.675 128.956C136.294 129.273 135.847 129.501 135.366 129.622C134.885 129.744 134.383 129.755 133.897 129.657C133.389 129.533 132.947 129.223 132.657 128.789C132.392 128.376 132.208 127.918 132.114 127.437C131.946 126.512 131.955 125.564 132.141 124.643Z" fill="black"/>
<path d="M139.395 133.357C140.332 133.391 141.243 133.672 142.037 134.171C142.437 134.413 142.807 134.7 143.141 135.027C143.475 135.35 143.766 135.715 144.007 136.112C143.656 135.809 143.319 135.507 142.961 135.234C142.608 134.958 142.239 134.703 141.855 134.472C141.473 134.238 141.076 134.029 140.667 133.845C140.254 133.656 139.829 133.493 139.395 133.357Z" fill="black"/>
<path d="M129.075 142.195C129.292 142.415 129.543 142.599 129.817 142.741C130.084 142.896 130.355 143.041 130.629 143.183C131.177 143.464 131.733 143.734 132.292 143.999C133.406 144.54 134.535 145.057 135.625 145.695C134.4 145.41 133.211 144.99 132.078 144.443C131.508 144.172 130.959 143.861 130.433 143.512C129.881 143.189 129.415 142.737 129.075 142.195Z" fill="black"/>
<path d="M137.764 135.492C137.957 135.598 138.126 135.742 138.259 135.917C138.336 136.01 138.391 136.119 138.421 136.236C138.451 136.353 138.455 136.474 138.433 136.593C138.363 136.828 138.216 137.033 138.016 137.176C137.836 137.314 137.639 137.429 137.429 137.517C137.333 137.558 137.24 137.605 137.151 137.658C137.067 137.7 136.985 137.747 136.907 137.8L136.694 137.986C136.63 138.056 136.571 138.13 136.518 138.208C136.293 138.521 136.159 138.889 136.129 139.273C136.073 139.652 136.13 140.039 136.293 140.385C136.456 140.732 136.717 141.023 137.045 141.221C137.126 141.276 137.215 141.316 137.309 141.341C137.402 141.372 137.493 141.413 137.589 141.439C137.789 141.477 137.99 141.502 138.193 141.512C138.402 141.517 138.611 141.51 138.819 141.49C139.026 141.453 139.237 141.423 139.452 141.395C139.253 141.473 139.051 141.548 138.845 141.618C138.633 141.676 138.419 141.721 138.202 141.753C137.979 141.772 137.755 141.773 137.532 141.756C137.419 141.737 137.307 141.711 137.197 141.679C137.083 141.658 136.973 141.619 136.871 141.564C136.435 141.366 136.083 141.023 135.874 140.593C135.672 140.167 135.591 139.693 135.639 139.224C135.687 138.754 135.862 138.307 136.145 137.93C136.217 137.836 136.296 137.747 136.382 137.665L136.663 137.445C136.861 137.331 137.069 137.236 137.285 137.162C137.662 137.076 137.99 136.848 138.202 136.525C138.234 136.437 138.245 136.343 138.236 136.25C138.227 136.156 138.197 136.066 138.149 135.986C138.048 135.802 137.918 135.635 137.764 135.492Z" fill="black"/>
<path d="M133.772 126.047C133.829 126.306 133.908 126.56 134.008 126.805C134.091 127.039 134.239 127.244 134.433 127.396C134.531 127.466 134.642 127.513 134.759 127.535C134.877 127.557 134.997 127.554 135.113 127.525C135.24 127.502 135.366 127.47 135.488 127.429C135.612 127.382 135.733 127.327 135.864 127.284C135.761 127.372 135.648 127.448 135.537 127.532C135.414 127.598 135.286 127.655 135.153 127.701C135.012 127.749 134.86 127.764 134.712 127.744C134.563 127.724 134.421 127.67 134.297 127.586C134.07 127.401 133.91 127.148 133.839 126.864C133.764 126.599 133.741 126.321 133.772 126.047Z" fill="black"/>
<path d="M134.221 125.728C134.486 125.653 134.76 125.617 135.034 125.619C135.314 125.621 135.592 125.665 135.859 125.75C136.137 125.842 136.379 126.017 136.552 126.252C136.701 126.497 136.753 126.789 136.696 127.07C136.664 126.812 136.565 126.567 136.408 126.361C136.239 126.175 136.022 126.04 135.781 125.971C135.275 125.818 134.75 125.737 134.221 125.728Z" fill="black"/>
<path d="M137.989 140.552C138.087 140.352 138.236 140.181 138.42 140.057C138.519 139.989 138.63 139.941 138.747 139.917C138.864 139.893 138.985 139.892 139.103 139.916C139.327 139.988 139.524 140.127 139.666 140.314C139.725 140.409 139.786 140.501 139.836 140.597C139.874 140.701 139.918 140.8 139.947 140.904C139.803 140.74 139.675 140.576 139.531 140.433C139.398 140.297 139.231 140.197 139.048 140.143C138.866 140.1 138.674 140.125 138.508 140.214C138.322 140.304 138.147 140.418 137.989 140.552Z" fill="black"/>
<path d="M129.338 141.643C129.351 141.257 129.449 140.879 129.626 140.536C129.673 140.44 129.739 140.354 129.82 140.285C129.901 140.215 129.996 140.162 130.098 140.13C130.206 140.11 130.317 140.113 130.423 140.142C130.529 140.17 130.628 140.222 130.711 140.293C130.873 140.416 131.011 140.567 131.117 140.741C131.226 140.924 131.263 141.142 131.22 141.351C131.162 141.539 131.063 141.712 130.931 141.859C130.798 142.005 130.635 142.12 130.453 142.196C130.748 141.983 130.956 141.672 131.043 141.32C131.058 141.155 131.02 140.99 130.934 140.849C130.837 140.706 130.715 140.582 130.573 140.482C130.518 140.427 130.45 140.386 130.376 140.361C130.302 140.336 130.224 140.328 130.146 140.337C129.992 140.389 129.862 140.493 129.778 140.632C129.584 140.947 129.436 141.287 129.338 141.643Z" fill="black"/>
<path d="M123.326 138.789C123.303 139.174 123.195 139.549 123.009 139.888C122.96 139.983 122.892 140.067 122.809 140.134C122.726 140.202 122.63 140.252 122.527 140.281C122.419 140.299 122.308 140.292 122.202 140.261C122.097 140.23 122 140.176 121.918 140.102C121.759 139.976 121.626 139.82 121.524 139.644C121.42 139.458 121.389 139.24 121.437 139.032C121.5 138.845 121.603 138.674 121.74 138.532C121.876 138.389 122.042 138.278 122.226 138.207C121.926 138.412 121.709 138.717 121.614 139.068C121.594 139.232 121.628 139.398 121.71 139.541C121.804 139.686 121.922 139.814 122.061 139.917C122.115 139.973 122.182 140.017 122.255 140.044C122.328 140.071 122.406 140.081 122.484 140.073C122.639 140.026 122.773 139.925 122.86 139.788C123.062 139.479 123.219 139.142 123.326 138.789Z" fill="black"/>
<path d="M126.854 145.161C126.955 144.895 127.096 144.646 127.273 144.424C127.364 144.306 127.472 144.203 127.595 144.119C127.665 144.066 127.747 144.032 127.834 144.018C127.921 144.005 128.009 144.013 128.092 144.041C128.239 144.124 128.35 144.26 128.402 144.42C128.455 144.557 128.488 144.701 128.501 144.848C128.536 145.13 128.523 145.416 128.464 145.695C128.433 145.421 128.387 145.148 128.324 144.88C128.294 144.752 128.254 144.626 128.206 144.504C128.15 144.396 128.083 144.28 127.998 144.255C127.838 144.168 127.588 144.365 127.406 144.545C127.212 144.741 127.027 144.946 126.854 145.161Z" fill="black"/>
<path d="M120.463 132.176L118.472 134.368C118.472 134.368 118.487 137.171 117.068 137.289C117.068 137.289 116.348 137.939 116.861 138.072C117.319 138.186 118.97 137.777 119.684 137.86C119.684 137.86 123.07 137.191 123.646 137.555C123.82 137.673 123.966 137.826 124.074 138.006C124.182 138.185 124.25 138.386 124.272 138.594L124.548 138.565L135.227 139.2L139.86 132.176L120.463 132.176ZM134.222 137.092L119.236 136.841L121.192 133.693H136.208L134.222 137.092Z" fill="black"/>
<path d="M108.183 137.291C108.76 136.871 109.413 136.565 110.106 136.391C110.811 136.21 111.54 136.147 112.266 136.204C112.331 136.21 112.391 136.24 112.433 136.29C112.476 136.339 112.497 136.404 112.492 136.469C112.487 136.534 112.457 136.594 112.407 136.637C112.358 136.68 112.294 136.701 112.228 136.696C112.218 136.696 112.208 136.694 112.198 136.692C111.525 136.559 110.835 136.539 110.155 136.632C109.461 136.723 108.792 136.947 108.183 137.291Z" fill="black"/>
<path d="M112.232 142.379C113.618 142.405 115.005 142.453 116.391 142.584C116.735 142.615 117.093 142.671 117.425 142.71C117.76 142.746 118.097 142.753 118.433 142.73C119.098 142.684 119.751 142.528 120.364 142.266L120.381 142.259C120.44 142.233 120.508 142.231 120.569 142.255C120.63 142.279 120.679 142.325 120.706 142.385C120.732 142.445 120.734 142.513 120.71 142.574C120.686 142.635 120.64 142.684 120.58 142.71L120.566 142.716C119.887 142.963 119.17 143.093 118.447 143.099C118.09 143.102 117.734 143.074 117.382 143.014C117.028 142.951 116.705 142.881 116.36 142.829C114.996 142.617 113.613 142.486 112.232 142.379Z" fill="black"/>
<path d="M113.301 146.202C113.771 146.033 114.246 145.875 114.726 145.729C115.212 145.576 115.707 145.455 116.208 145.366C116.273 145.356 116.339 145.372 116.392 145.41C116.445 145.448 116.481 145.506 116.492 145.571C116.502 145.636 116.486 145.702 116.448 145.755C116.41 145.809 116.352 145.844 116.287 145.855C116.274 145.857 116.261 145.858 116.247 145.858H116.243C115.752 145.863 115.263 145.901 114.778 145.97C114.285 146.034 113.792 146.112 113.301 146.202Z" fill="black"/>
<path d="M115.156 133.756C115.408 134.017 115.705 134.232 116.032 134.391C116.363 134.544 116.711 134.659 117.068 134.734C116.879 134.778 116.684 134.788 116.492 134.764C116.297 134.738 116.107 134.683 115.929 134.601C115.753 134.51 115.594 134.392 115.456 134.251C115.317 134.113 115.215 133.943 115.156 133.756Z" fill="black"/>
<path d="M122.678 142.466C122.547 142.467 122.422 142.415 122.329 142.323C122.236 142.231 122.183 142.106 122.183 141.976C122.182 141.845 122.234 141.719 122.326 141.627C122.418 141.534 122.543 141.481 122.673 141.481L128.916 141.422C128.981 141.42 129.046 141.431 129.106 141.455C129.167 141.479 129.222 141.515 129.269 141.56C129.315 141.606 129.352 141.66 129.377 141.72C129.401 141.78 129.414 141.845 129.413 141.91C129.414 141.975 129.402 142.039 129.378 142.099C129.353 142.159 129.318 142.214 129.272 142.26C129.227 142.306 129.173 142.343 129.113 142.368C129.054 142.393 128.99 142.407 128.925 142.407L122.682 142.466H122.678Z" fill="black"/>
<path d="M139.832 142.307C139.702 142.307 139.576 142.255 139.484 142.163C139.391 142.07 139.339 141.945 139.339 141.814C139.339 141.684 139.391 141.558 139.483 141.466C139.576 141.374 139.701 141.322 139.832 141.321L157.039 141.299H157.04C157.171 141.299 157.296 141.351 157.388 141.443C157.481 141.535 157.533 141.66 157.533 141.791C157.533 141.922 157.481 142.047 157.389 142.139C157.297 142.232 157.171 142.284 157.041 142.284L139.833 142.307H139.832Z" fill="black"/>
<path d="M254.069 142.155C253.939 142.155 253.813 142.103 253.721 142.011C253.628 141.918 253.576 141.793 253.576 141.662C253.576 141.532 253.628 141.407 253.72 141.314C253.813 141.222 253.938 141.17 254.069 141.17L269.885 141.15H269.886C270.017 141.15 270.142 141.202 270.234 141.294C270.327 141.387 270.379 141.512 270.379 141.643C270.379 141.773 270.327 141.899 270.235 141.991C270.142 142.084 270.017 142.136 269.886 142.136L254.07 142.155H254.069Z" fill="black"/>
<path d="M163.987 141.9H162.817C162.786 141.9 162.756 141.888 162.734 141.866C162.712 141.844 162.699 141.814 162.698 141.783C162.698 141.768 162.701 141.753 162.707 141.738C162.712 141.724 162.721 141.711 162.732 141.7C162.742 141.69 162.755 141.681 162.769 141.675C162.783 141.669 162.798 141.666 162.814 141.666H163.987C164.003 141.666 164.018 141.669 164.032 141.675C164.047 141.681 164.06 141.689 164.071 141.7C164.081 141.711 164.09 141.724 164.096 141.738C164.102 141.752 164.105 141.767 164.105 141.783C164.105 141.798 164.102 141.814 164.096 141.828C164.09 141.842 164.081 141.855 164.071 141.866C164.06 141.877 164.047 141.885 164.032 141.891C164.018 141.897 164.003 141.9 163.987 141.9Z" fill="black"/>
<path d="M12.0691 143.497C11.9384 143.498 11.8128 143.447 11.7199 143.355C11.6271 143.263 11.5746 143.138 11.574 143.007C11.5734 142.876 11.6247 142.751 11.7167 142.658C11.8087 142.565 11.9338 142.513 12.0645 142.512L33.7612 142.311C33.8908 142.313 34.0146 142.365 34.1072 142.455C34.1997 142.546 34.2539 142.669 34.2586 142.798C34.2592 142.863 34.2471 142.927 34.2229 142.987C34.1987 143.047 34.1629 143.102 34.1176 143.148C34.0722 143.194 34.0182 143.231 33.9587 143.256C33.8991 143.282 33.8351 143.295 33.7704 143.296L12.0736 143.497H12.0691Z" fill="black"/>
<path d="M93.8974 75.3117C94.0797 75.3054 94.2523 75.2286 94.379 75.0975C94.5057 74.9664 94.5765 74.7912 94.5765 74.609C94.5765 74.4267 94.5057 74.2515 94.379 74.1204C94.2523 73.9893 94.0797 73.9125 93.8974 73.9062C93.7152 73.9125 93.5425 73.9893 93.4158 74.1204C93.2891 74.2515 93.2183 74.4267 93.2183 74.609C93.2183 74.7912 93.2891 74.9664 93.4158 75.0975C93.5425 75.2286 93.7152 75.3054 93.8974 75.3117Z" fill="black"/>
<path d="M129.435 61.6816L123.68 61.8958C121.792 61.9531 119.925 61.9988 118.068 62.0334C116.215 62.0592 114.367 62.0885 112.527 62.0678C110.687 62.054 108.846 61.9717 106.987 61.9204L107.261 61.6468C107.231 62.7083 107.183 63.77 107.169 64.8316C107.143 65.8931 107.142 66.9547 107.135 68.0164C107.134 70.1395 107.179 72.2627 107.239 74.3859L106.987 74.1345L111.58 74.007C111.627 74.0057 111.673 74.0136 111.717 74.0305C111.761 74.0473 111.801 74.0726 111.834 74.1051L111.848 74.118L113.602 75.8042H112.999L114.695 74.0602C114.736 74.018 114.785 73.9844 114.839 73.9613C114.893 73.9381 114.951 73.9259 115.009 73.9254L115.021 73.9253C117.429 73.9054 119.837 73.856 122.245 73.8604C123.449 73.8544 124.653 73.8594 125.858 73.8752L129.47 73.9209L129.005 74.3859C129.038 72.3167 129.097 70.2473 129.183 68.1351L129.435 61.6816ZM129.505 61.6119L129.757 67.8976C129.842 70.0318 129.902 72.2086 129.935 74.3859C129.937 74.5073 129.89 74.6246 129.806 74.7117C129.721 74.7989 129.605 74.849 129.484 74.8508H129.483L129.47 74.8509L125.858 74.8966C124.653 74.9111 123.449 74.916 122.245 74.9114C119.837 74.9158 117.429 74.8664 115.021 74.8466L115.347 74.7118L113.602 76.4071L113.592 76.4171C113.552 76.4554 113.506 76.4855 113.455 76.5058C113.404 76.5261 113.349 76.5361 113.294 76.5353C113.239 76.5346 113.185 76.523 113.135 76.5012C113.084 76.4795 113.039 76.4481 113 76.4087L112.999 76.4071L111.312 74.6539L111.58 74.7648L106.987 74.6373L106.973 74.637C106.908 74.6352 106.847 74.6077 106.802 74.5606C106.758 74.5136 106.734 74.4507 106.736 74.386V74.3859C106.796 72.2627 106.84 70.1395 106.839 68.0164C106.832 66.9547 106.832 65.8931 106.805 64.8316C106.791 63.77 106.743 62.7083 106.713 61.6468C106.712 61.6119 106.718 61.5771 106.731 61.5445C106.743 61.5119 106.762 61.482 106.786 61.4566C106.81 61.4313 106.839 61.4109 106.871 61.3966C106.903 61.3824 106.937 61.3745 106.972 61.3735H106.972L106.987 61.3732C108.875 61.3218 110.782 61.2395 112.688 61.2257C114.595 61.2051 116.495 61.2344 118.389 61.2601C120.279 61.2947 122.159 61.3405 124.018 61.3977L129.505 61.6119Z" fill="black"/>
<path d="M195.554 38.1189L187.084 38.2654L178.685 38.3712L162.004 38.4884L153.705 38.4591L145.411 38.3543C139.877 38.2693 134.314 38.2288 128.754 38.2428L128.913 38.0842L128.942 44.4536L129.016 50.8232L128.754 50.5618C133.654 50.495 138.554 50.4319 143.454 50.398L158.155 50.3169C163.055 50.2791 167.955 50.3226 172.855 50.3215C177.755 50.3155 182.655 50.3798 187.555 50.419L187.562 50.4192C187.667 50.4201 187.767 50.4626 187.841 50.5375L189.546 52.2725H189.005L190.745 50.572L190.751 50.5656C190.784 50.534 190.822 50.5091 190.864 50.4924C190.906 50.4756 190.951 50.4673 190.996 50.4679L195.589 50.5346L195.3 50.8232C195.334 48.7327 195.361 46.6423 195.419 44.5239L195.554 38.1189ZM195.624 38.0493L195.759 44.3833C195.817 46.5113 195.844 48.6673 195.878 50.8232C195.879 50.8986 195.85 50.9713 195.797 51.0254C195.745 51.0795 195.673 51.1105 195.598 51.1117H195.597L195.589 51.1119L190.996 51.1786L191.247 51.0746L189.546 52.8134C189.476 52.8852 189.38 52.9261 189.28 52.9272C189.179 52.9283 189.083 52.8895 189.011 52.8194L189.01 52.8188L189.005 52.8135L187.269 51.1091L187.555 51.2274C182.655 51.2666 177.755 51.331 172.855 51.325C167.955 51.3239 163.055 51.3674 158.155 51.3295L143.454 51.2485C138.554 51.2146 133.654 51.1514 128.754 51.0847H128.748C128.714 51.0843 128.68 51.0772 128.649 51.0638C128.618 51.0504 128.589 51.0311 128.566 51.0068C128.542 50.9825 128.523 50.9538 128.511 50.9223C128.498 50.8908 128.492 50.8571 128.492 50.8232L128.566 44.4536L128.595 38.0841C128.595 38.042 128.612 38.0017 128.642 37.9719C128.672 37.9421 128.712 37.9254 128.754 37.9253C134.333 37.9393 139.91 37.8988 145.514 37.8139L153.929 37.709L162.339 37.6797L179.075 37.7969L187.385 37.9026L195.624 38.0493Z" fill="black"/>
<path d="M149.148 10.9326C145.534 11.0354 141.982 11.107 138.45 11.1686C134.91 11.242 131.413 11.2749 127.918 11.3018C124.423 11.3292 120.952 11.3074 117.473 11.2295C113.993 11.17 110.496 11.073 106.988 11.0555L107.146 10.8979C107.144 11.9594 107.129 13.021 107.141 14.0825L107.16 17.2673C107.163 19.3906 107.215 21.5137 107.246 23.6369L106.988 23.3791L111.58 23.2931C111.624 23.2923 111.666 23.2999 111.707 23.3157C111.747 23.3314 111.783 23.3549 111.815 23.3849L111.824 23.3939L113.572 25.086H113.03L114.729 23.3447C114.766 23.3069 114.81 23.2768 114.858 23.256C114.907 23.2352 114.959 23.2243 115.012 23.2237L115.022 23.2236L123.562 23.1494C126.408 23.1268 129.255 23.106 132.102 23.1104C137.795 23.1078 143.489 23.191 149.182 23.2668L148.812 23.6369L148.963 17.358L149.148 10.9326ZM149.217 10.863L149.401 17.1767L149.553 23.6369C149.555 23.7328 149.519 23.8256 149.453 23.895C149.386 23.9644 149.295 24.0046 149.2 24.0069L149.196 24.007L149.182 24.0071C143.489 24.0829 137.795 24.1661 132.102 24.1635C129.255 24.168 126.408 24.1471 123.562 24.1246L115.021 24.0503L115.314 23.9293L113.572 25.6273L113.564 25.6349C113.492 25.7046 113.396 25.7431 113.296 25.7419C113.196 25.7406 113.101 25.6998 113.031 25.6283L113.03 25.6273L111.337 23.8801L111.58 23.9808L106.988 23.8948L106.979 23.8947C106.946 23.8942 106.913 23.8871 106.882 23.8738C106.852 23.8606 106.824 23.8415 106.801 23.8175C106.778 23.7936 106.76 23.7653 106.747 23.7343C106.735 23.7033 106.729 23.6703 106.73 23.6369C106.761 21.5137 106.813 19.3906 106.815 17.2673L106.835 14.0825C106.846 13.021 106.831 11.9594 106.83 10.8979C106.83 10.856 106.846 10.8159 106.876 10.7863C106.906 10.7567 106.946 10.74 106.988 10.74C110.512 10.7225 114.048 10.6255 117.6 10.5661C121.154 10.4881 124.715 10.4664 128.252 10.4937C131.789 10.5207 135.325 10.5535 138.818 10.627C142.318 10.6885 145.799 10.7602 149.217 10.863V10.863Z" fill="black"/>
</svg>
