<svg width="331" height="199" viewBox="0 0 331 199" fill="none" xmlns="http://www.w3.org/2000/svg">
<path d="M278.262 114.22C277.902 113.723 277.588 113.197 277.273 112.665C271.203 102.568 244.682 107.354 244.682 107.354C241.683 131.698 236.464 128.828 235.497 127.297C234.531 125.766 232.785 110.731 231.631 108.686C228.295 108.376 221.48 108.429 221.48 108.429C214.902 108.593 208.716 114.717 202.63 124.691C196.544 134.66 185.812 143.098 185.812 143.098C185.812 143.098 188.999 143.408 190.159 150.771C190.872 151.004 193.009 150.005 194.566 149.199C195.956 148.479 197.505 148.178 199.046 148.328C201.553 148.573 205.16 149.421 208.042 152.307C208.397 152.657 208.773 152.981 209.169 153.277C209.534 153.061 209.738 152.915 209.738 152.915C215.681 150.309 219.16 141.257 219.16 141.257C218.678 140.119 218.397 138.897 218.332 137.652C218.238 136.412 218.254 135.166 218.382 133.93C218.509 132.72 218.597 131.522 218.63 130.319C218.688 129.105 218.638 127.888 218.481 126.684C218.954 127.827 219.224 129.054 219.276 130.301C219.357 131.54 219.333 132.783 219.204 134.017C219.077 135.221 219.006 136.419 218.978 137.629C218.937 138.842 218.998 140.056 219.16 141.257C219.494 144.487 220.216 147.659 221.309 150.695C222.879 151.245 224.498 151.623 226.141 151.822C226.95 151.92 227.764 151.947 228.577 151.904C229.409 151.855 230.239 151.762 231.062 151.624C230.319 152.095 229.501 152.42 228.649 152.582C228.222 152.669 227.79 152.724 227.356 152.746C226.921 152.752 226.486 152.734 226.053 152.693C225.191 152.594 224.344 152.378 223.534 152.05C222.727 151.732 221.974 151.274 221.309 150.695C221.774 152.046 222.391 153.333 223.148 154.528C227.244 154.778 231.26 155.842 234.984 157.666C235.928 158.128 236.795 158.747 237.668 159.203C238.556 159.672 239.487 160.046 240.446 160.319C242.377 160.875 244.366 161.173 246.366 161.207C247.383 161.242 248.349 161.184 249.399 161.149C250.43 161.136 251.461 161.189 252.486 161.306C254.518 161.528 256.545 161.774 258.556 162.148C259.323 162.288 260.086 162.44 260.848 162.598C260.494 162.09 260.191 161.546 259.942 160.973C259.554 160.11 259.263 159.202 259.075 158.268C258.882 157.333 258.765 156.383 258.727 155.428C258.677 154.464 258.712 153.498 258.832 152.541L258.837 152.512L258.848 152.471C259.151 151.434 259.338 150.363 259.406 149.281C259.492 148.182 259.503 147.079 259.439 145.979C259.367 144.878 259.24 143.782 259.058 142.695C258.859 141.626 258.594 140.509 258.451 139.382C258.161 137.134 258.095 134.86 258.252 132.597C258.307 131.47 258.418 130.342 258.578 129.232C258.725 128.117 258.926 127.011 259.18 125.918C258.918 128.14 258.774 130.376 258.749 132.615C258.718 134.838 258.872 137.059 259.207 139.253C259.279 139.802 259.406 140.34 259.511 140.878L259.854 142.537C260.057 143.658 260.192 144.793 260.257 145.932C260.42 148.217 260.171 150.513 259.522 152.699C259.385 153.598 259.315 154.506 259.312 155.416C259.306 156.342 259.374 157.267 259.517 158.18C259.655 159.097 259.877 159.997 260.179 160.868C260.392 161.48 260.66 162.069 260.98 162.627C262.179 162.884 263.366 163.176 264.543 163.521C266.52 164.068 268.422 164.887 270.198 165.958C268.363 165.044 266.431 164.365 264.443 163.936C263.421 163.685 262.392 163.466 261.356 163.281C261.353 163.278 261.349 163.276 261.345 163.276C260.389 163.1 259.428 162.948 258.462 162.814C256.451 162.539 254.436 162.3 252.42 162.13C251.421 162.031 250.418 161.99 249.415 162.008C248.438 162.043 247.366 162.119 246.35 162.083C244.279 162.039 242.223 161.713 240.23 161.114C239.231 160.804 238.261 160.393 237.336 159.886C236.872 159.647 236.42 159.325 235.994 159.062C235.569 158.788 235.144 158.501 234.696 158.268C232.91 157.276 231.029 156.488 229.085 155.919C227.141 155.302 225.156 154.837 223.148 154.528L218.58 154.99C218.721 155.195 218.825 155.427 218.884 155.673C220.061 159.699 218.365 175.471 218.365 175.471C224.888 180.531 260.991 188.356 260.991 188.356C284.265 192.499 284.481 170.633 284.481 170.633C288.645 131.394 280.46 117.235 278.262 114.22ZM249.139 154.218C248.712 154.305 248.28 154.36 247.847 154.382C247.411 154.388 246.976 154.37 246.543 154.329C245.681 154.23 244.835 154.014 244.025 153.687C243.217 153.368 242.465 152.91 241.799 152.331C243.369 152.881 244.988 153.259 246.631 153.459C247.44 153.556 248.254 153.583 249.067 153.54C249.899 153.491 250.729 153.398 251.552 153.26C250.809 153.731 249.992 154.056 249.139 154.218V154.218Z" fill="black"/>
<path d="M231.582 108.714C231.423 108.46 231.246 108.219 231.053 107.994C230.86 107.772 230.649 107.57 230.421 107.389C230.195 107.212 229.951 107.063 229.694 106.943C229.446 106.825 229.182 106.75 228.912 106.719L228.998 106.701C228.444 106.984 227.858 107.191 227.255 107.318C226.642 107.457 226.01 107.479 225.39 107.382C224.746 107.282 224.139 107.001 223.632 106.57C223.165 106.128 222.756 105.622 222.415 105.067C221.748 103.998 221.155 102.879 220.641 101.72C220.122 100.569 219.656 99.4048 219.221 98.2089L219.668 98.5208C219.153 98.5761 218.634 98.4926 218.158 98.2781C217.881 98.1404 217.647 97.9212 217.485 97.6467C217.335 97.3813 217.246 97.0828 217.224 96.7746C217.198 96.2463 217.269 95.7177 217.433 95.218C217.577 94.7413 217.767 94.2814 218 93.8457C218.436 93.17 218.641 92.3565 218.58 91.5404C218.545 91.1432 218.442 90.756 218.275 90.3981L217.974 89.8018C217.87 89.5904 217.769 89.3754 217.675 89.1555C217.48 88.7155 217.324 88.257 217.21 87.7861C217.085 87.3276 216.985 86.8623 216.908 86.3922C216.812 85.9257 216.782 85.4476 216.727 84.9749C216.709 84.4979 216.682 84.022 216.706 83.5455C216.743 81.6292 217.187 79.7463 218.003 78.0353C218.031 77.9777 218.074 77.9298 218.128 77.8972C218.181 77.8646 218.241 77.8486 218.303 77.8511C218.364 77.8536 218.423 77.8744 218.474 77.9112C218.524 77.948 218.564 77.9993 218.588 78.059L218.593 78.0719C219.267 79.7188 220.127 81.273 221.155 82.7006C222.179 84.1422 223.408 85.4064 224.799 86.4479C226.186 87.4919 227.77 88.2056 229.443 88.5399C231.113 88.8657 232.829 88.817 234.48 88.3971L234.492 88.3943C234.531 88.385 234.571 88.3876 234.609 88.4017C234.646 88.4159 234.679 88.4411 234.704 88.4743C235.37 89.4447 235.834 90.5536 236.065 91.7278C236.311 92.8747 236.437 94.047 236.44 95.2231C236.446 96.3937 236.367 97.5631 236.204 98.7209C236.01 99.8202 235.937 100.94 235.986 102.057C236.036 103.136 236.312 104.191 236.794 105.144C237.275 106.062 238.01 106.802 238.901 107.264C239.809 107.712 240.812 107.901 241.81 107.812C242.832 107.724 243.833 107.452 244.769 107.006C244.859 106.964 244.958 106.949 245.055 106.961C245.153 106.973 245.246 107.012 245.324 107.074C245.403 107.136 245.465 107.219 245.504 107.314C245.543 107.41 245.557 107.515 245.545 107.618L245.544 107.625C245.139 111.35 244.508 115.043 243.657 118.682C243.215 120.519 242.635 122.315 241.922 124.054C241.556 124.942 241.106 125.788 240.579 126.581C240.304 126.99 239.991 127.369 239.646 127.713C239.288 128.085 238.867 128.382 238.405 128.589C237.91 128.813 237.363 128.877 236.834 128.772C236.31 128.658 235.828 128.386 235.447 127.989C235.244 127.785 235.081 127.539 234.97 127.267C234.881 127.032 234.805 126.791 234.744 126.546C234.62 126.079 234.526 125.62 234.433 125.158C234.068 123.319 233.818 121.476 233.54 119.636L232.722 114.122C232.581 113.205 232.435 112.289 232.265 111.378C232.127 110.467 231.899 109.574 231.582 108.714L231.579 108.706C231.573 108.692 231.572 108.676 231.577 108.662C231.582 108.648 231.591 108.636 231.604 108.629C231.617 108.623 231.631 108.621 231.645 108.626C231.659 108.63 231.67 108.64 231.677 108.654C232.062 109.501 232.351 110.394 232.539 111.312C232.758 112.217 232.954 113.127 233.144 114.037C233.527 115.858 233.849 117.689 234.195 119.513C234.535 121.338 234.887 123.163 235.274 124.96C235.375 125.407 235.479 125.855 235.603 126.28C235.659 126.484 235.726 126.684 235.805 126.879C235.873 127.032 235.97 127.17 236.091 127.281C236.342 127.538 236.66 127.708 237.005 127.769C237.349 127.829 237.703 127.777 238.018 127.619C238.714 127.226 239.299 126.644 239.712 125.934C240.176 125.187 240.575 124.397 240.903 123.574C241.572 121.888 242.112 120.148 242.518 118.37C243.34 114.776 243.98 111.138 244.436 107.473L245.211 108.092C244.153 108.577 243.024 108.865 241.873 108.945C240.692 109.03 239.51 108.787 238.445 108.239C237.374 107.668 236.499 106.759 235.939 105.638C235.413 104.543 235.124 103.338 235.092 102.11C235.063 100.926 235.168 99.7426 235.403 98.5848C235.6 97.4734 235.716 96.3476 235.751 95.2174C235.79 94.0914 235.708 92.9643 235.507 91.8578C235.325 90.7663 234.934 89.7259 234.355 88.8016L234.579 88.8786C232.863 89.2548 231.094 89.2705 229.372 88.925C228.515 88.7479 227.679 88.4675 226.882 88.0891C226.083 87.7214 225.32 87.2731 224.602 86.7504C223.172 85.6975 221.893 84.4329 220.803 82.9954C219.689 81.5707 218.743 80.0073 217.986 78.3399L218.576 78.3766C217.883 80.0036 217.539 81.7726 217.568 83.5569C217.572 84.4472 217.66 85.3348 217.831 86.2063C217.911 86.6429 218.014 87.0745 218.139 87.4991C218.249 87.9192 218.393 88.3288 218.568 88.7234C218.654 88.9227 218.748 89.1203 218.846 89.3169C218.944 89.5188 219.045 89.6911 219.162 89.9388C219.383 90.409 219.521 90.9179 219.569 91.4405C219.644 92.4795 219.383 93.5148 218.83 94.3766C218.422 95.0733 218.192 95.8703 218.164 96.6893C218.162 96.8369 218.199 96.9822 218.271 97.1085C218.344 97.2348 218.448 97.337 218.573 97.4035C218.903 97.5489 219.262 97.6072 219.618 97.5735L219.624 97.5732C219.719 97.5688 219.814 97.5967 219.893 97.6529C219.972 97.7091 220.032 97.7907 220.065 97.8856C220.46 99.0528 220.906 100.22 221.382 101.359C221.84 102.502 222.375 103.609 222.984 104.671C223.274 105.186 223.626 105.659 224.032 106.078C224.447 106.455 224.949 106.709 225.487 106.814C226.624 107.005 227.789 106.851 228.847 106.371L228.87 106.361C228.89 106.352 228.912 106.35 228.934 106.353C229.243 106.403 229.542 106.506 229.819 106.659C230.088 106.805 230.341 106.981 230.573 107.186C230.799 107.393 231.005 107.623 231.189 107.872C231.37 108.119 231.533 108.38 231.677 108.654C231.68 108.66 231.683 108.668 231.684 108.675C231.685 108.683 231.684 108.691 231.682 108.698C231.68 108.705 231.677 108.712 231.673 108.718C231.668 108.725 231.663 108.73 231.657 108.733C231.644 108.74 231.629 108.742 231.616 108.739C231.602 108.735 231.59 108.726 231.582 108.714Z" fill="black"/>
<path d="M218.511 97.9084C218.398 98.8379 218.28 99.7598 218.188 100.683C218.102 101.607 218.018 102.528 217.991 103.449C217.949 104.365 217.984 105.284 218.099 106.193C218.155 106.643 218.269 107.083 218.438 107.5C218.597 107.929 218.861 108.305 219.203 108.589C218.798 108.369 218.464 108.027 218.243 107.606C218.024 107.184 217.862 106.732 217.762 106.263C217.572 105.334 217.5 104.382 217.545 103.433C217.581 102.492 217.683 101.555 217.85 100.631C218.005 99.707 218.226 98.7971 218.511 97.9084Z" fill="black"/>
<path d="M218.245 78.2386C218.131 78.0287 218.059 77.7965 218.033 77.5562C218.007 77.3158 218.028 77.0723 218.093 76.8406L218.184 76.4928L218.327 76.1704C218.377 76.0638 218.422 75.9528 218.476 75.849L218.664 75.5566C218.913 75.1664 219.195 74.8011 219.507 74.4655C219.823 74.1406 220.16 73.8412 220.49 73.53C221.883 72.4156 223.375 71.4469 224.945 70.6373C225.728 70.244 226.52 69.8678 227.311 69.4937C228.112 69.146 228.917 68.8104 229.724 68.4804C230.533 68.167 231.355 67.8963 232.172 67.6093C232.585 67.4778 232.984 67.3284 233.426 67.1991C233.854 67.0774 234.288 66.9797 234.726 66.9064C236.466 66.6035 238.246 66.6802 239.956 67.1318C241.66 67.5861 243.235 68.4689 244.548 69.7052C245.842 70.9606 246.909 72.4559 247.695 74.1174C248.485 75.772 249.088 77.5188 249.493 79.3221L249.501 79.3706C249.928 81.8455 250.678 84.2453 251.731 86.5009C252.251 87.6263 252.852 88.7072 253.53 89.7338C254.198 90.7623 254.951 91.7255 255.781 92.6115L257.094 93.8986C257.567 94.336 258.011 94.8066 258.424 95.3071C259.269 96.2946 259.965 97.413 260.49 98.6235C261.578 101.015 261.85 103.732 261.26 106.312C261.257 106.326 261.248 106.338 261.236 106.346C261.224 106.354 261.21 106.357 261.196 106.354C261.182 106.351 261.17 106.343 261.162 106.33C261.154 106.318 261.15 106.303 261.152 106.289L261.153 106.282C261.308 105.023 261.26 103.744 261.011 102.501C260.786 101.271 260.376 100.085 259.799 98.9907C259.515 98.4464 259.199 97.9216 258.853 97.4194C258.498 96.9241 258.113 96.4537 257.701 96.0113C257.298 95.5585 256.866 95.1353 256.409 94.7446L255.006 93.4592C253.203 91.6173 251.74 89.4372 250.69 87.0297C250.168 85.8377 249.726 84.608 249.367 83.3499C248.995 82.091 248.725 80.801 248.559 79.4938L248.567 79.5421C248.236 77.7876 247.743 76.0719 247.095 74.4199C246.446 72.7653 245.493 71.2634 244.291 70.0011C243.673 69.3907 242.985 68.8648 242.243 68.4355C241.496 68.0159 240.697 67.7085 239.869 67.5221C238.213 67.1726 236.503 67.2157 234.864 67.6482C234.458 67.7475 234.057 67.8694 233.663 68.0134C233.284 68.1545 232.882 68.3382 232.482 68.4993L230.07 69.4543C229.278 69.7918 228.484 70.1237 227.685 70.4435L225.337 71.5113C223.791 72.2452 222.3 73.1036 220.878 74.0789C220.546 74.3466 220.202 74.6059 219.879 74.8878C219.563 75.173 219.268 75.484 218.998 75.8178L218.796 76.0691C218.737 76.1578 218.688 76.2521 218.633 76.3438L218.472 76.6229L218.361 76.9226C218.201 77.3199 218.192 77.7669 218.335 78.1711L218.341 78.1833C218.346 78.1966 218.347 78.2117 218.343 78.2255C218.338 78.2394 218.329 78.251 218.317 78.258C218.305 78.265 218.291 78.2669 218.278 78.2633C218.264 78.2597 218.253 78.2508 218.245 78.2385V78.2386Z" fill="black"/>
<path d="M219.611 89.5294C220.375 88.9483 221.209 88.4771 222.09 88.1282C222.531 87.949 222.983 87.8053 223.444 87.6982C223.908 87.5738 224.391 87.5503 224.863 87.629C224.412 87.7323 223.969 87.8741 223.539 88.0532L222.249 88.5697C221.386 88.9128 220.524 89.2665 219.611 89.5294Z" fill="black"/>
<path d="M222.027 92.7957C222.201 92.7893 222.366 92.7118 222.486 92.5795C222.607 92.4471 222.675 92.2703 222.675 92.0863C222.675 91.9023 222.607 91.7255 222.486 91.5932C222.366 91.4608 222.201 91.3833 222.027 91.377C221.853 91.3833 221.689 91.4608 221.568 91.5932C221.447 91.7255 221.379 91.9023 221.379 92.0863C221.379 92.2703 221.447 92.4471 221.568 92.5795C221.689 92.7118 221.853 92.7893 222.027 92.7957Z" fill="black"/>
<path d="M220.946 101.39C221.282 101.401 221.619 101.391 221.954 101.36C222.281 101.329 222.603 101.287 222.923 101.222C223.242 101.157 223.561 101.081 223.88 100.989C224.2 100.897 224.522 100.796 224.863 100.706C224.609 100.961 224.319 101.173 224.003 101.334C223.686 101.497 223.35 101.616 223.004 101.687C222.306 101.846 221.578 101.741 220.946 101.39Z" fill="black"/>
<path d="M218.459 173.375C216.798 172.728 215.091 172.224 213.353 171.869C211.643 171.5 209.886 171.441 208.157 171.693L207.521 171.807L206.899 171.986C206.486 172.107 206.081 172.255 205.685 172.428C204.894 172.788 204.135 173.224 203.418 173.731C202.688 174.237 201.995 174.817 201.179 175.318C200.363 175.803 199.484 176.16 198.571 176.378C197.663 176.606 196.732 176.705 195.8 176.674C194.824 176.675 193.862 176.428 192.995 175.954C192.756 175.799 192.542 175.604 192.363 175.375C192.203 175.167 192.105 175.016 191.964 174.845C191.701 174.525 191.397 174.245 191.06 174.015C190.319 173.56 189.537 173.184 188.725 172.894C187.849 172.6 187.01 172.197 186.223 171.694C185.825 171.409 185.475 171.055 185.188 170.647C185.047 170.454 184.92 170.271 184.785 170.101C184.718 170.012 184.648 169.937 184.577 169.851C184.499 169.754 184.409 169.656 184.343 169.558C183.815 168.784 183.331 167.978 182.893 167.144C182.449 166.324 182.007 165.507 181.584 164.676L181.713 164.776L180.576 164.514C180.183 164.443 179.797 164.331 179.425 164.181C178.678 163.851 178.022 163.326 177.519 162.655C177.243 162.319 177.054 161.914 176.97 161.479C176.937 161.249 176.951 161.015 177.01 160.792C177.069 160.568 177.172 160.361 177.312 160.182C177.581 159.847 177.91 159.572 178.279 159.372C178.649 159.173 179.052 159.052 179.466 159.019C179.866 158.994 180.268 159.012 180.664 159.07L181.822 159.159C182.594 159.21 183.367 159.249 184.14 159.274C185.685 159.324 187.231 159.312 188.767 159.211C190.292 159.127 191.807 158.903 193.295 158.539C194.015 158.359 194.711 158.089 195.371 157.735C195.68 157.564 195.968 157.353 196.228 157.106C196.488 156.854 196.725 156.575 196.934 156.273C197.109 156.064 197.219 155.802 197.247 155.524C197.238 155.464 197.229 155.44 197.156 155.374C197.047 155.301 196.929 155.245 196.804 155.209C196.114 155.061 195.403 155.051 194.709 155.179C194.354 155.231 194.004 155.313 193.661 155.422C193.521 155.466 193.386 155.526 193.258 155.602L193.139 155.684C193.087 155.722 193.035 155.752 192.982 155.784C192.88 155.845 192.774 155.899 192.665 155.946C192.26 156.117 191.836 156.234 191.404 156.293C191.196 156.324 190.989 156.346 190.783 156.361C190.545 156.384 190.305 156.375 190.069 156.333C189.569 156.244 189.106 155.996 188.741 155.624C188.394 155.255 188.142 154.799 188.01 154.298C187.779 153.337 187.901 152.319 188.352 151.45C188.575 150.965 188.929 150.561 189.368 150.288C189.515 150.206 189.674 150.152 189.838 150.127C189.934 150.114 190.031 150.113 190.127 150.125C190.177 150.131 190.227 150.14 190.275 150.153L190.338 150.171L190.345 150.17C190.458 150.182 190.572 150.174 190.682 150.147C191.392 149.974 192.085 149.728 192.75 149.411C193.099 149.254 193.447 149.09 193.794 148.918L194.313 148.658C194.499 148.564 194.689 148.475 194.881 148.392C195.651 148.066 196.46 147.855 197.285 147.766C198.1 147.688 198.922 147.718 199.73 147.856C200.521 147.97 201.304 148.138 202.074 148.358C203.625 148.791 205.1 149.485 206.442 150.416C207.107 150.888 207.73 151.423 208.302 152.016C208.855 152.554 209.446 153.047 210.07 153.489C212.733 155.131 215.807 155.873 218.879 155.614L218.884 155.614C218.898 155.613 218.912 155.618 218.923 155.628C218.934 155.637 218.941 155.651 218.942 155.666C218.944 155.681 218.939 155.696 218.931 155.708C218.922 155.72 218.909 155.728 218.895 155.73C215.754 156.24 212.541 155.66 209.737 154.077C209.051 153.638 208.399 153.143 207.787 152.595C206.091 151.002 204.043 149.887 201.831 149.355C201.097 149.168 200.353 149.031 199.603 148.944C198.874 148.84 198.135 148.833 197.405 148.924C196.684 149.013 195.979 149.208 195.309 149.501C195.142 149.576 194.978 149.655 194.815 149.74L194.285 150.014C193.93 150.195 193.572 150.37 193.209 150.54C192.464 150.911 191.681 151.193 190.876 151.381C190.607 151.442 190.328 151.442 190.058 151.383L189.994 151.367C189.972 151.361 189.989 151.367 189.986 151.365L189.991 151.366C189.994 151.367 189.995 151.366 189.99 151.366C189.962 151.372 189.935 151.383 189.91 151.398C189.685 151.559 189.506 151.78 189.39 152.04C189.083 152.625 188.994 153.311 189.14 153.962C189.216 154.256 189.359 154.527 189.555 154.75C189.75 154.955 189.999 155.092 190.269 155.145C190.416 155.173 190.566 155.18 190.714 155.165C190.896 155.155 191.076 155.139 191.252 155.115C191.591 155.075 191.924 154.991 192.244 154.865C192.315 154.835 192.384 154.801 192.451 154.763C192.483 154.746 192.514 154.727 192.544 154.706L192.67 154.622C192.88 154.494 193.104 154.393 193.338 154.323C193.739 154.2 194.149 154.111 194.564 154.057C195.406 153.917 196.265 153.951 197.094 154.158C197.344 154.235 197.579 154.357 197.788 154.52C197.919 154.627 198.028 154.76 198.109 154.913C198.189 155.066 198.24 155.234 198.258 155.408C198.28 155.708 198.225 156.008 198.098 156.277C198.002 156.498 197.881 156.707 197.739 156.899C197.484 157.256 197.193 157.583 196.873 157.874C196.547 158.169 196.188 158.418 195.804 158.618C195.069 158.988 194.295 159.265 193.498 159.443C191.951 159.78 190.376 159.955 188.797 159.967C187.23 160.002 185.669 159.945 184.114 159.84C183.336 159.786 182.56 159.719 181.785 159.637L180.624 159.505C180.253 159.444 179.877 159.422 179.501 159.438C179.139 159.462 178.784 159.562 178.458 159.731C178.132 159.9 177.84 160.136 177.6 160.424C177.489 160.56 177.406 160.719 177.357 160.891C177.308 161.064 177.295 161.245 177.318 161.423C177.389 161.796 177.549 162.143 177.783 162.433C178.246 163.058 178.857 163.542 179.554 163.838C179.908 163.977 180.275 164.079 180.648 164.142L181.791 164.377C181.817 164.383 181.842 164.394 181.863 164.41C181.885 164.426 181.903 164.447 181.917 164.471L181.921 164.478C182.776 166.109 183.736 167.677 184.795 169.168C184.862 169.259 184.933 169.325 185.001 169.405C185.08 169.492 185.169 169.581 185.245 169.673C185.404 169.856 185.548 170.046 185.686 170.219C185.944 170.557 186.255 170.845 186.605 171.073C187.361 171.507 188.163 171.846 188.994 172.083C189.881 172.353 190.737 172.725 191.547 173.192C191.964 173.462 192.343 173.794 192.673 174.177C192.83 174.356 192.992 174.586 193.117 174.738C193.228 174.867 193.357 174.977 193.498 175.066C194.225 175.442 195.024 175.633 195.833 175.625C196.681 175.654 197.528 175.57 198.356 175.376C199.182 175.189 199.977 174.877 200.718 174.449C201.444 174.012 202.172 173.452 202.937 172.942C203.711 172.422 204.529 171.978 205.38 171.617C205.813 171.449 206.255 171.309 206.703 171.197L207.375 171.035L208.058 170.943C209.866 170.748 211.692 170.892 213.453 171.369C215.188 171.834 216.878 172.469 218.501 173.267C218.514 173.273 218.525 173.284 218.53 173.298C218.536 173.312 218.536 173.327 218.531 173.341C218.526 173.355 218.516 173.367 218.503 173.373C218.49 173.38 218.476 173.381 218.462 173.376L218.459 173.375Z" fill="black"/>
<path d="M181.751 164.577C182.826 164.48 183.902 164.434 184.977 164.396C186.053 164.353 187.128 164.347 188.204 164.341L189.817 164.353C190.371 164.353 190.923 164.434 191.456 164.593C192.478 164.976 193.474 165.433 194.438 165.958C193.919 165.801 193.41 165.615 192.896 165.444C192.4 165.242 191.891 165.076 191.374 164.946C190.862 164.834 190.339 164.785 189.817 164.801L188.204 164.813C187.128 164.807 186.053 164.801 184.977 164.758C183.902 164.72 182.826 164.675 181.751 164.577Z" fill="black"/>
<path d="M182.297 165.594C183.02 166.183 183.711 166.813 184.397 167.448C184.752 167.753 185.068 168.113 185.413 168.367C185.762 168.633 186.153 168.83 186.567 168.95C186.967 169.077 187.429 169.096 187.884 169.186C188.338 169.265 188.788 169.369 189.232 169.497C190.14 169.699 190.984 170.144 191.683 170.789C191.307 170.525 190.894 170.324 190.46 170.194C190.033 170.049 189.596 169.935 189.154 169.852C188.711 169.771 188.268 169.686 187.821 169.629C187.359 169.582 186.9 169.507 186.447 169.405C185.983 169.265 185.548 169.035 185.163 168.727C184.809 168.41 184.474 168.07 184.16 167.708C183.525 167.021 182.895 166.327 182.297 165.594Z" fill="black"/>
<path d="M172.133 150.466C171.777 149.702 171.342 148.982 170.835 148.32L170.92 148.379C170.073 148.238 169.284 147.837 168.65 147.226C168.319 146.872 168.115 146.408 168.074 145.912C168.053 145.666 168.064 145.419 168.105 145.176C168.161 144.944 168.229 144.716 168.31 144.492C168.696 143.621 169.377 142.934 170.219 142.567C170.64 142.355 171.098 142.239 171.564 142.226C172.065 142.223 172.556 142.386 172.965 142.692L172.239 142.938C172.35 142.62 172.502 142.319 172.69 142.045C172.869 141.776 173.079 141.531 173.314 141.317C173.789 140.887 174.354 140.582 174.961 140.425C175.548 140.276 176.155 140.243 176.753 140.327L177.18 140.385C177.347 140.411 177.51 140.454 177.669 140.513C177.964 140.62 178.247 140.761 178.512 140.934C179.513 141.619 180.313 142.585 180.823 143.724C181.323 144.803 181.688 145.947 181.907 147.127L180.864 147.194C180.955 146.444 181.168 145.716 181.495 145.043C181.821 144.35 182.307 143.755 182.908 143.313C183.521 142.888 184.236 142.654 184.969 142.637C185.144 142.63 185.32 142.636 185.494 142.654L185.755 142.671C185.857 142.676 185.958 142.694 186.057 142.724C186.409 142.834 186.742 143.006 187.042 143.232C188.118 144.126 188.913 145.343 189.323 146.724C189.757 148.031 190.038 149.389 190.16 150.768C189.873 149.439 189.462 148.143 188.932 146.899C188.45 145.686 187.656 144.641 186.64 143.883C186.4 143.727 186.14 143.609 185.867 143.535C185.809 143.52 185.749 143.514 185.689 143.517L185.464 143.515C184.745 143.477 184.033 143.692 183.441 144.127C182.998 144.517 182.634 144.998 182.372 145.541C182.11 146.084 181.955 146.678 181.916 147.287L181.915 147.291C181.902 147.423 181.845 147.545 181.754 147.636C181.663 147.728 181.545 147.782 181.42 147.79C181.295 147.797 181.171 147.758 181.071 147.678C180.971 147.598 180.901 147.484 180.874 147.354C180.662 146.28 180.32 145.238 179.857 144.257C179.423 143.313 178.764 142.506 177.944 141.915C177.749 141.783 177.54 141.675 177.322 141.593C177.225 141.555 177.125 141.527 177.023 141.51L176.643 141.453C176.164 141.38 175.675 141.397 175.201 141.503C174.746 141.603 174.32 141.815 173.958 142.122C173.603 142.427 173.322 142.816 173.136 143.258L173.114 143.314C173.066 143.432 172.976 143.525 172.864 143.573C172.752 143.621 172.626 143.619 172.514 143.569C172.477 143.552 172.442 143.53 172.409 143.503C172.138 143.308 171.822 143.194 171.494 143.172C171.166 143.15 170.839 143.221 170.546 143.379C169.864 143.634 169.293 144.142 168.938 144.808C168.754 145.121 168.664 145.485 168.682 145.853C168.699 146.22 168.822 146.573 169.035 146.865C169.558 147.461 170.232 147.886 170.977 148.089L170.995 148.095C171.023 148.103 171.047 148.122 171.062 148.147C171.518 148.865 171.878 149.645 172.133 150.466Z" fill="black"/>
<path d="M168.407 150.068C168.11 149.423 167.585 148.928 166.945 148.692C166.323 148.504 165.658 148.557 165.07 148.841C164.787 148.934 164.533 149.105 164.334 149.337C164.136 149.57 164 149.855 163.941 150.162C163.915 150.805 164.08 151.441 164.414 151.978C164.751 152.572 165.151 153.123 165.608 153.62C165.718 153.749 165.835 153.866 165.95 153.986L166.325 154.332C166.592 154.577 166.85 154.826 167.106 155.077C168.131 156.08 169.088 157.133 170.043 158.202C170.115 158.282 170.162 158.383 170.178 158.492L170.184 158.529C170.247 158.869 170.352 159.199 170.496 159.51C170.798 160.178 171.228 160.772 171.759 161.255C172.028 161.513 172.297 161.686 172.658 161.978C173.318 162.526 173.875 163.2 174.299 163.966C174.727 164.718 175.044 165.535 175.239 166.388L175.214 166.305C175.465 167.042 175.938 167.672 176.559 168.099C177.223 168.509 177.977 168.728 178.745 168.735C179.552 168.753 180.357 168.665 181.142 168.472C181.946 168.287 182.734 168.034 183.499 167.715C182.78 168.161 182.021 168.53 181.232 168.815C180.432 169.112 179.596 169.293 178.75 169.352C177.86 169.42 176.969 169.232 176.171 168.809C175.768 168.572 175.406 168.265 175.1 167.899C174.805 167.531 174.558 167.122 174.368 166.683L174.358 166.655L174.342 166.599C174.138 165.867 173.837 165.17 173.446 164.528C173.06 163.894 172.574 163.335 172.009 162.874C171.756 162.669 171.362 162.411 171.054 162.121C170.73 161.832 170.435 161.509 170.174 161.156C169.908 160.801 169.682 160.416 169.499 160.007C169.305 159.579 169.172 159.125 169.102 158.657L169.243 158.984C168.319 157.92 167.364 156.871 166.407 155.846C166.166 155.592 165.923 155.34 165.676 155.099L165.285 154.71C165.158 154.57 165.031 154.431 164.914 154.285C164.436 153.707 164.026 153.071 163.692 152.389C163.301 151.674 163.154 150.839 163.273 150.023C163.317 149.809 163.393 149.603 163.499 149.415C163.613 149.237 163.743 149.071 163.886 148.918L164.366 148.569L164.881 148.345C165.585 148.081 166.357 148.105 167.046 148.411C167.369 148.573 167.656 148.804 167.89 149.089C168.124 149.374 168.3 149.708 168.407 150.068Z" fill="black"/>
<path d="M169.643 158.594C169.475 157.947 169.486 157.263 169.677 156.623C169.768 156.289 169.931 155.981 170.151 155.723C170.26 155.591 170.393 155.485 170.543 155.411C170.693 155.337 170.855 155.298 171.021 155.295C170.775 155.458 170.572 155.682 170.428 155.948C170.288 156.205 170.179 156.48 170.103 156.766C169.926 157.344 169.818 157.956 169.643 158.594Z" fill="black"/>
<path d="M170.948 148.234C171.327 148.136 171.638 148.067 171.967 147.998C172.311 147.917 172.662 147.868 173.014 147.854C172.775 148.175 172.432 148.392 172.052 148.463C171.863 148.509 171.667 148.513 171.477 148.474C171.286 148.435 171.106 148.353 170.948 148.234Z" fill="black"/>
<path d="M172.964 143.097C172.958 143.604 173.021 144.11 173.151 144.599C173.267 145.086 173.513 145.528 173.859 145.872C174.043 146.036 174.256 146.158 174.485 146.231C174.715 146.305 174.956 146.328 175.194 146.299C175.442 146.277 175.688 146.235 175.929 146.17L176.639 145.899L175.951 146.24C175.709 146.329 175.46 146.398 175.208 146.444C174.946 146.499 174.677 146.497 174.416 146.438C174.155 146.38 173.908 146.265 173.69 146.103C173.263 145.753 172.94 145.28 172.76 144.741C172.568 144.216 172.451 143.663 172.412 143.102C172.409 143.063 172.412 143.024 172.423 142.987C172.435 142.95 172.452 142.916 172.476 142.886C172.5 142.856 172.529 142.832 172.561 142.814C172.594 142.797 172.629 142.786 172.666 142.783C172.702 142.78 172.739 142.785 172.774 142.797C172.809 142.809 172.841 142.828 172.869 142.854C172.896 142.879 172.919 142.91 172.935 142.945C172.952 142.98 172.961 143.017 172.964 143.056C172.964 143.065 172.964 143.074 172.964 143.083L172.964 143.097Z" fill="black"/>
<path d="M175.19 146.397C175.573 147.015 175.911 147.662 176.203 148.334C176.528 149.01 176.751 149.736 176.863 150.486C176.894 150.626 176.957 150.755 177.046 150.863C177.135 150.971 177.247 151.055 177.373 151.107C177.662 151.261 177.972 151.366 178.291 151.418C178.618 151.482 178.952 151.485 179.28 151.427C179.618 151.397 179.932 151.23 180.156 150.961C180.071 151.13 179.955 151.279 179.813 151.398C179.671 151.517 179.507 151.604 179.332 151.652C178.983 151.762 178.619 151.805 178.255 151.78C177.884 151.763 177.52 151.67 177.182 151.507C176.985 151.425 176.811 151.291 176.677 151.118C176.543 150.945 176.454 150.738 176.417 150.517C176.306 149.818 176.128 149.132 175.885 148.47L175.19 146.397Z" fill="black"/>
<path d="M181.933 147.147C182.055 148.06 182.329 148.942 182.742 149.754C182.845 149.948 182.962 150.133 183.093 150.308C183.259 150.518 183.406 150.744 183.531 150.984C183.658 151.226 183.759 151.483 183.834 151.748C183.909 152.028 183.945 152.26 183.998 152.492C184.024 152.698 184.078 152.899 184.156 153.09C184.264 153.262 184.4 153.412 184.558 153.533C184.714 153.663 184.893 153.758 185.084 153.813C185.275 153.869 185.474 153.884 185.67 153.857C186.084 153.766 186.456 153.529 186.725 153.184C187.027 152.829 187.285 152.434 187.491 152.008L187.479 152.046C187.617 151.358 187.709 150.661 187.754 149.959C187.814 149.255 187.77 148.545 187.623 147.856C187.818 148.539 187.912 149.25 187.9 149.963C187.903 150.679 187.858 151.394 187.766 152.103C187.765 152.114 187.762 152.124 187.757 152.134L187.754 152.141C187.565 152.612 187.318 153.055 187.02 153.458C186.713 153.904 186.272 154.225 185.77 154.37C185.505 154.428 185.232 154.431 184.966 154.377C184.701 154.323 184.448 154.213 184.223 154.055C183.991 153.902 183.787 153.706 183.622 153.476C183.531 153.349 183.465 153.204 183.427 153.05L183.324 152.685C183.231 152.237 183.068 151.808 182.844 151.416C182.729 151.231 182.598 151.058 182.452 150.9C182.278 150.7 182.12 150.485 181.977 150.259C181.436 149.365 181.051 148.375 180.843 147.337C180.826 147.262 180.824 147.184 180.836 147.109C180.848 147.033 180.874 146.96 180.913 146.895C180.952 146.83 181.002 146.774 181.061 146.729C181.12 146.684 181.187 146.653 181.258 146.635C181.329 146.618 181.402 146.616 181.473 146.629C181.545 146.641 181.614 146.669 181.675 146.71C181.737 146.751 181.79 146.804 181.832 146.866C181.874 146.929 181.904 147 181.921 147.075C181.924 147.088 181.926 147.102 181.928 147.116L181.933 147.147Z" fill="black"/>
<path d="M180.914 157.385C180.936 157.385 180.953 157.39 180.975 157.39L181.026 157.425L180.914 157.385Z" fill="black"/>
<path d="M192.121 156.596C182.632 155.071 173.691 151.179 171.47 150.168C171.086 149.99 170.674 149.885 170.255 149.858C168.234 149.747 167.538 150.443 167.35 151.161C167.266 151.509 167.29 151.875 167.418 152.207C167.547 152.538 167.773 152.817 168.063 153.002L177.932 159.57L177.938 159.564C178.435 158.932 179.011 158.374 179.65 157.905C179.417 158.424 179.13 158.914 178.794 159.366C179.713 159.099 180.683 159.103 181.6 159.377C193.027 160.523 195.898 157.998 195.898 157.998C194.672 156.789 192.121 156.596 192.121 156.596ZM183.787 155.597L186.106 157.385L180.788 156.543L175.999 153.148L183.787 155.597ZM186.769 158.629C184.792 158.437 182.82 158.197 180.848 157.963C180.81 157.956 180.772 157.942 180.738 157.922C178.915 156.76 177.098 155.585 175.298 154.381L172.597 152.564C171.713 151.939 170.813 151.337 169.935 150.694C170.879 151.22 171.807 151.775 172.741 152.313L175.519 153.99C177.352 155.094 179.164 156.239 180.975 157.391C182.919 157.642 184.875 157.899 186.819 158.191C188.779 158.483 190.745 158.787 192.701 159.15C190.718 159.021 188.741 158.828 186.769 158.629H186.769Z" fill="black"/>
<path d="M181.026 157.425L180.914 157.385C180.936 157.385 180.953 157.39 180.975 157.39L181.026 157.425Z" fill="black"/>
<path d="M113.743 73.601C113.743 73.601 112.325 72.7007 111.001 74.3012C111.001 74.3012 108.638 70.7478 98.6158 73.8249C98.6158 73.8249 99.9395 76.5019 100.885 76.5019C101.83 76.5019 99.0886 81.1033 96.5359 80.9032C96.5359 80.9032 92.1868 87.6052 95.4959 94.1072C98.7573 100.516 101.1 102.551 104.335 98.3945C104.435 98.2655 104.545 98.147 104.666 98.0404C105.596 97.2287 109.715 93.8536 111.175 96.3703C111.486 96.9294 111.575 97.596 111.422 98.2243C110.756 101.177 107.64 112.051 98.6158 107.711C98.6158 107.711 88.0991 103.539 90.5796 93.6538C90.8449 92.6484 91.2295 91.6826 91.7244 90.7796C92.2016 89.8572 92.4956 88.8413 92.5886 87.7944C92.6815 86.7474 92.5714 85.6914 92.265 84.6911C91.8848 83.265 91.0272 82.034 89.8521 81.2278C88.713 80.476 87.2112 80.1399 86.0737 82.2421C85.6028 83.1167 85.3546 84.1056 85.3533 85.1121C85.3512 86.0333 85.5131 87.1631 86.2305 87.7053L85.3533 89.5058C84.8763 88.4788 84.2662 87.5271 83.5408 86.6784C82.326 85.3766 81.5456 83.6911 81.318 81.8777C80.9968 79.0009 81.3835 74.7055 84.6233 69.6998C84.6233 69.6998 88.9723 60.497 97.1031 60.6971C105.234 60.8971 112.23 63.1978 113.743 73.601Z" fill="black"/>
<path d="M100.129 85.6052C101.541 85.2635 102.992 85.137 104.438 85.2296C105.167 85.2679 105.89 85.3839 106.596 85.5758C107.317 85.7394 107.987 86.0937 108.543 86.6055C107.901 86.2899 107.215 86.0855 106.511 86.0001C105.816 85.8944 105.115 85.8175 104.407 85.7839C102.994 85.6912 101.573 85.6841 100.129 85.6052Z" fill="black"/>
<path d="M113.743 85.4619C113.225 85.6282 112.747 85.9072 112.338 86.2809C112.144 86.4503 111.986 86.6609 111.874 86.8992C111.762 87.1375 111.699 87.3981 111.689 87.6639C111.727 88.2092 111.862 88.7421 112.087 89.2343L112.705 90.8424C113.167 91.9305 113.435 93.0991 113.496 94.2899C113.495 94.6036 113.441 94.9145 113.335 95.2077C113.222 95.5046 113.037 95.7648 112.799 95.962C112.315 96.2845 111.744 96.4281 111.174 96.3705C111.708 96.3223 112.216 96.1072 112.634 95.7526C112.806 95.5591 112.935 95.3281 113.013 95.076C113.091 94.8239 113.116 94.5567 113.086 94.2933C113.045 93.7363 112.939 93.187 112.768 92.6582C112.609 92.1167 112.419 91.5801 112.217 91.0454C112.023 90.5069 111.812 89.9713 111.623 89.4198C111.533 89.1413 111.441 88.8637 111.37 88.5701C111.281 88.2666 111.251 87.9474 111.282 87.6314C111.313 87.3171 111.41 87.0141 111.565 86.744C111.72 86.4739 111.93 86.2433 112.179 86.0687C112.647 85.7375 113.183 85.5294 113.743 85.4619Z" fill="black"/>
<path d="M113.742 73.6016C113.919 74.7227 114.051 75.85 114.137 76.9834C114.236 78.1148 114.297 79.2497 114.32 80.3879C114.337 81.5259 114.321 82.666 114.237 83.8071C114.187 84.9701 113.942 86.1144 113.512 87.186C113.505 87.1993 113.497 87.2116 113.488 87.2225C113.156 87.6005 112.844 87.998 112.555 88.413C112.411 88.6209 112.283 88.8405 112.172 89.0698C112.049 89.2932 112 89.5536 112.032 89.8098C111.956 89.552 111.97 89.274 112.071 89.0259C112.158 88.7756 112.264 88.5331 112.387 88.3007C112.634 87.8375 112.92 87.3985 113.24 86.9888L113.217 87.0252C113.4 86.5134 113.522 85.9794 113.58 85.4357C113.662 84.8871 113.695 84.3269 113.734 83.7687C113.796 82.648 113.807 81.5207 113.813 80.3928C113.813 78.1352 113.766 75.8734 113.742 73.6016Z" fill="black"/>
<path d="M108.07 93.2085C107.97 93.4257 107.89 93.6521 107.829 93.8849C107.768 94.0999 107.754 94.3272 107.79 94.5487C107.819 94.7682 107.91 94.9734 108.05 95.138C108.199 95.3197 108.364 95.4856 108.543 95.6333C108.428 95.5974 108.316 95.5547 108.206 95.5055C108.099 95.4431 107.998 95.3696 107.904 95.2859C107.709 95.1072 107.578 94.8634 107.531 94.5949C107.498 94.3289 107.536 94.0583 107.64 93.8137C107.737 93.5794 107.884 93.3722 108.07 93.2085Z" fill="black"/>
<path d="M86.2298 87.7065C86.5571 88.1411 86.8181 88.6271 87.0036 89.1469C87.1031 89.4122 87.175 89.6881 87.2181 89.9699C87.2413 90.1176 87.2506 90.2674 87.2457 90.417L87.243 90.5321L87.2494 90.5946C87.247 90.6353 87.2554 90.6758 87.2736 90.7117C87.3548 90.8947 87.498 91.0386 87.6749 91.115C87.8849 91.2285 88.106 91.3172 88.3344 91.3794C88.8201 91.5179 89.3196 91.5946 89.8225 91.6078C89.3258 91.8137 88.7876 91.8818 88.259 91.8057C87.9831 91.7759 87.713 91.7027 87.4576 91.5884C87.3074 91.5267 87.1702 91.4342 87.0539 91.3161C86.9376 91.1981 86.8445 91.0569 86.78 90.9006C86.7461 90.8126 86.7295 90.7182 86.7313 90.6231L86.7294 90.4827L86.7334 90.3951C86.7393 90.2741 86.7367 90.1528 86.7257 90.0322C86.7048 89.7759 86.6669 89.5215 86.6125 89.2708C86.5053 88.7569 86.3642 88.2401 86.2298 87.7065Z" fill="black"/>
<path d="M85.3531 89.5059C85.1422 90.3149 84.8447 91.0959 84.4665 91.8337C84.0962 92.5823 83.6493 93.2856 83.1337 93.9308C82.6179 94.5882 82.006 95.1542 81.3214 95.6072C80.6349 96.0575 79.8493 96.3103 79.0421 96.3407C79.7808 96.1059 80.4749 95.7358 81.0927 95.2473C81.6974 94.7552 82.2479 94.1928 82.7339 93.5707C83.2332 92.9495 83.6947 92.2954 84.1158 91.6124C84.5396 90.9263 84.9605 90.2306 85.3531 89.5059Z" fill="black"/>
<path d="M92.2808 112.915C92.8782 112.638 93.4431 112.288 93.9641 111.873C94.4811 111.464 94.9715 111.02 95.432 110.542C95.9068 110.078 96.3326 109.559 96.7748 109.051L97.4186 108.265C97.6282 107.996 97.8372 107.726 98.0679 107.467C97.9362 107.791 97.7831 108.105 97.6305 108.42C97.4576 108.721 97.2876 109.027 97.0975 109.319C96.7141 109.903 96.2782 110.446 95.796 110.942C95.3114 111.441 94.7706 111.876 94.1858 112.236C93.606 112.608 92.9554 112.84 92.2808 112.915Z" fill="black"/>
<path d="M82.8228 93.7513C82.3523 93.0136 81.7704 92.3629 81.1003 91.8251C80.9608 91.6947 80.7918 91.6047 80.6097 91.5638C80.4277 91.5229 80.2387 91.5326 80.0612 91.5918C79.7476 91.8173 79.5225 92.156 79.4282 92.5445C79.299 92.9587 79.2059 93.3846 79.1501 93.8168C79.122 94.0318 79.0971 94.2555 79.0787 94.4622C79.0798 94.6591 79.0961 94.8903 79.1148 95.1054C79.1962 95.9876 79.3507 96.8604 79.5767 97.7139C79.9928 99.4504 80.6393 101.116 81.4967 102.661C82.3655 104.205 83.4048 105.634 84.5927 106.919C85.1884 107.556 85.8075 108.17 86.4358 108.768C87.0883 109.338 87.7118 109.949 88.3911 110.472C88.7188 110.752 89.08 110.98 89.4222 111.236C89.7845 111.456 90.1323 111.706 90.5096 111.894C91.2388 112.313 92.0144 112.634 92.8185 112.851C94.4246 113.302 96.1312 113.112 97.6138 112.319C99.1037 111.477 100.355 110.231 101.24 108.709C101.243 108.703 101.248 108.698 101.255 108.696C101.262 108.693 101.269 108.694 101.275 108.697C101.281 108.701 101.285 108.707 101.287 108.714C101.289 108.721 101.289 108.728 101.286 108.735C100.517 110.387 99.3079 111.766 97.8076 112.702C97.0393 113.163 96.194 113.463 95.3182 113.585C94.4397 113.695 93.5495 113.635 92.6912 113.408C91.839 113.194 91.0187 112.856 90.2535 112.406C89.8628 112.2 89.5081 111.934 89.1375 111.697C88.7896 111.426 88.4215 111.182 88.0914 110.888C87.3995 110.338 86.7938 109.696 86.1536 109.092C85.8271 108.798 85.5503 108.448 85.2506 108.124C84.9617 107.789 84.6491 107.479 84.3809 107.124C83.2615 105.756 82.245 104.296 81.3407 102.76C80.4199 101.223 79.6864 99.5699 79.1579 97.8389C78.8999 96.963 78.7314 96.0604 78.6554 95.1465C78.6409 94.9124 78.6279 94.694 78.6327 94.4401C78.6578 94.1994 78.6885 93.9756 78.7235 93.7452C78.793 93.2857 78.9025 92.8339 79.0505 92.3957C79.1172 92.1539 79.2286 91.9285 79.3784 91.7327C79.5283 91.537 79.7134 91.3747 79.9231 91.2554C80.1589 91.1576 80.4199 91.152 80.6592 91.2396C80.8768 91.3184 81.08 91.4362 81.26 91.5877C81.9207 92.1833 82.4666 92.9081 82.8678 93.7225C82.8695 93.7256 82.8706 93.7291 82.871 93.7327C82.8714 93.7364 82.8712 93.74 82.8703 93.7435C82.8694 93.747 82.8678 93.7503 82.8657 93.7532C82.8636 93.7561 82.8609 93.7585 82.8579 93.7603C82.852 93.7635 82.8452 93.7643 82.8388 93.7627C82.8324 93.761 82.8267 93.757 82.8228 93.7513Z" fill="black"/>
<path d="M84.4206 91.3961C83.5765 90.8462 82.635 90.4849 81.6539 90.3344C80.6874 90.1476 79.6897 90.3367 78.8445 90.8668C78.446 91.1598 78.111 91.539 77.8615 91.9794L77.0037 93.2829C76.436 94.1688 75.8003 95.0037 75.1031 95.7792C75.0868 95.7962 75.0674 95.8094 75.046 95.8179C75.0246 95.8265 75.0018 95.8302 74.979 95.8289L74.9663 95.828C71.4331 95.6066 67.8878 95.5179 64.3518 95.5431C62.5835 95.5587 60.817 95.6337 59.0606 95.7797C57.3178 95.8817 55.5922 96.1986 53.9189 96.724L53.8893 96.7325L53.8489 96.7417C52.9227 96.9925 52.0405 97.3987 51.2359 97.945C50.8174 98.2133 50.4147 98.5082 50.0299 98.8281L49.447 99.3027C49.2589 99.4695 49.0816 99.6513 48.8984 99.8246C47.4385 101.236 46.1415 102.825 45.0344 104.559C42.8123 108.056 40.9961 111.823 39.625 115.779C39.286 116.772 38.9149 117.752 38.6022 118.754L37.7073 121.778C37.4044 122.774 37.1336 123.83 36.7809 124.838C36.4379 125.856 36.0366 126.841 35.6524 127.819L34.4696 130.757L33.8537 132.221C33.6438 132.727 33.4098 133.222 33.1527 133.703C33.1004 133.793 33.0412 133.878 32.9755 133.958C33.013 133.959 33.0162 133.868 33.0183 133.904C33.0123 133.962 33.0146 134.019 33.025 134.076C33.0644 134.282 33.1318 134.482 33.2251 134.668C33.4315 135.085 33.7071 135.46 34.0387 135.774C34.7159 136.418 35.5628 136.827 36.4661 136.948L36.111 137.86C35.5539 137.399 35.0266 136.9 34.5326 136.365C34.262 136.076 34.0259 135.754 33.8299 135.404C33.7708 135.291 33.7239 135.17 33.69 135.045C33.6722 134.963 33.6602 134.88 33.654 134.796C33.654 134.686 33.6717 134.576 33.7064 134.472C33.7461 134.361 33.8097 134.26 33.8924 134.179C33.9307 134.141 33.9711 134.106 34.0133 134.073C34.0499 134.05 34.0855 134.033 34.1226 134.014C34.247 133.954 34.3796 133.914 34.5156 133.898C34.9042 133.869 35.2948 133.898 35.6756 133.985C36.0314 134.053 36.372 134.145 36.7113 134.239L37.7228 134.579L38.7012 134.994C41.2568 136.214 43.5233 137.834 45.8828 139.259C48.2269 140.707 50.6513 142.005 53.1427 143.145C55.6425 144.272 58.1974 145.256 60.7964 146.093L60.7995 146.094C60.8708 146.118 60.9324 146.166 60.9741 146.232C61.0158 146.297 61.0352 146.375 61.0291 146.454C60.804 149.141 60.7128 151.839 60.7559 154.536C60.7736 155.877 60.8819 157.215 61.0801 158.54C61.1743 159.186 61.3498 159.816 61.602 160.413C61.7194 160.682 61.895 160.918 62.1146 161.102C62.1708 161.127 62.2254 161.155 62.2798 161.186C62.3372 161.204 62.3984 161.203 62.4572 161.218C62.5892 161.234 62.7695 161.224 62.9234 161.229L78.288 161.273C83.4095 161.3 88.5307 161.271 93.6521 161.264L109.016 161.209L108.839 161.292C109.885 160.126 111.03 159.064 112.26 158.12C113.487 157.162 114.819 156.365 116.228 155.748C117.652 155.114 119.182 154.789 120.727 154.792C121.511 154.807 122.29 154.927 123.046 155.148L125.174 155.903C125.886 156.147 126.599 156.385 127.314 156.606C128.001 156.851 128.712 157.013 129.434 157.09C130.236 157.186 131.011 157.452 131.712 157.872C132.082 158.081 132.415 158.353 132.699 158.679C132.858 158.858 132.981 159.07 133.061 159.302C133.141 159.533 133.176 159.779 133.164 160.024C133.184 160.443 133.171 160.863 133.124 161.28C133.075 161.764 132.882 162.218 132.572 162.578C132.239 162.926 131.8 163.138 131.333 163.176C130.923 163.223 130.508 163.209 130.101 163.136C129.713 163.071 129.329 162.978 128.953 162.859L127.879 162.515C127.535 162.411 127.186 162.33 126.833 162.274C126.541 162.21 126.239 162.213 125.948 162.283L126.054 161.509C127.475 162.562 129.144 163.178 130.876 163.289C131.751 163.339 132.629 163.285 133.493 163.131C134.386 163.002 135.271 162.843 136.171 162.685C136.624 162.609 137.074 162.525 137.571 162.491C137.844 162.468 138.119 162.485 138.387 162.542C138.711 162.616 139.004 162.798 139.221 163.063C139.408 163.298 139.552 163.569 139.644 163.86C139.908 164.644 139.947 165.492 139.757 166.298C139.623 166.834 139.385 167.334 139.058 167.767C138.731 168.199 138.322 168.555 137.857 168.81C136.987 169.283 136.039 169.577 135.065 169.677L135.49 169.338C135.262 169.887 134.98 170.409 134.648 170.895C134.318 171.385 133.934 171.832 133.503 172.226C133.051 172.627 132.536 172.942 131.983 173.157C131.413 173.36 130.81 173.441 130.21 173.395L130.664 173.197C129.741 174.335 128.836 175.452 127.797 176.528C127.664 176.661 127.524 176.796 127.367 176.929C127.207 177.059 127.039 177.177 126.864 177.284C126.536 177.48 126.195 177.65 125.843 177.794C125.159 178.076 124.451 178.29 123.729 178.435C122.3 178.717 120.84 178.788 119.393 178.647C119.032 178.62 118.675 178.558 118.316 178.515L117.252 178.318L116.256 178.145L115.241 178.033C112.478 177.883 109.709 177.977 106.962 178.316C104.195 178.613 101.437 179.054 98.6916 179.569C97.3296 179.825 95.9807 180.163 94.6066 180.484C93.2383 180.805 91.8653 181.118 90.4886 181.413C87.734 181.995 84.9673 182.525 82.1843 182.946C76.6195 183.821 71.0046 184.29 65.379 184.353C64.6759 184.356 63.9731 184.383 63.27 184.366L61.161 184.316C59.7545 184.305 58.351 184.199 56.9473 184.111C55.5418 184.048 54.1438 183.876 52.7442 183.731C52.0413 183.649 51.3528 183.604 50.636 183.486C49.9261 183.37 49.2234 183.209 48.5314 183.005C45.7363 182.208 43.2009 180.616 41.2 178.402C39.1964 176.176 37.9295 173.323 37.5894 170.27C36.9736 164.353 36.7263 158.429 36.586 152.501C36.4637 146.573 36.4484 140.646 36.5401 134.72C36.5402 134.705 36.5462 134.69 36.5566 134.679C36.5671 134.668 36.5812 134.662 36.5958 134.662C36.6105 134.662 36.6245 134.669 36.6347 134.68C36.645 134.691 36.6507 134.706 36.6505 134.721C36.674 140.645 36.8029 146.566 37.0374 152.485C37.2851 158.397 37.5907 164.32 38.2854 170.174C38.642 173.052 39.8729 175.73 41.7927 177.803C43.7056 179.878 46.1175 181.361 48.7684 182.092C49.4269 182.28 50.0954 182.426 50.7702 182.53C51.4382 182.635 52.149 182.677 52.8381 182.751C54.2263 182.882 55.6121 183.04 57.006 183.09C58.398 183.165 59.7889 183.257 61.1835 183.255L63.2738 183.286C63.9705 183.297 64.6675 183.263 65.3642 183.253L67.4544 183.208L69.5425 183.094C70.9354 183.036 72.3242 182.907 73.7138 182.788C75.1049 182.693 76.4881 182.497 77.8754 182.354C79.2587 182.172 80.6428 181.991 82.0217 181.772C84.7819 181.349 87.5267 180.817 90.262 180.234C91.6294 179.939 92.9931 179.625 94.3575 179.302C95.717 178.982 97.0932 178.634 98.488 178.368C101.256 177.844 104.037 177.393 106.842 177.087C109.66 176.733 112.501 176.645 115.333 176.823L116.406 176.947L117.481 177.138L118.485 177.33C118.821 177.371 119.156 177.432 119.493 177.458C120.837 177.597 122.192 177.539 123.521 177.284C124.176 177.156 124.818 176.966 125.441 176.714C125.743 176.592 126.037 176.448 126.32 176.282C126.448 176.204 126.572 176.118 126.691 176.025C126.808 175.926 126.928 175.813 127.049 175.692C128.017 174.701 128.946 173.573 129.85 172.468C129.903 172.403 129.968 172.351 130.042 172.317C130.116 172.283 130.197 172.266 130.277 172.269L130.304 172.27C130.754 172.305 131.206 172.246 131.635 172.098C132.069 171.93 132.472 171.685 132.828 171.373C133.193 171.04 133.519 170.663 133.801 170.249C134.086 169.835 134.33 169.391 134.529 168.925L134.531 168.922C134.568 168.832 134.627 168.753 134.701 168.695C134.775 168.636 134.863 168.598 134.955 168.586C135.791 168.505 136.605 168.261 137.357 167.865C137.702 167.683 138.008 167.426 138.252 167.111C138.497 166.795 138.676 166.428 138.777 166.034C138.877 165.636 138.898 165.221 138.839 164.815C138.802 164.439 138.677 164.078 138.477 163.766C138.398 163.661 138.285 163.59 138.16 163.567C137.983 163.531 137.802 163.52 137.622 163.536C137.214 163.558 136.767 163.632 136.323 163.703C135.431 163.85 134.525 164.002 133.618 164.123C132.69 164.276 131.748 164.321 130.81 164.258C128.898 164.116 127.061 163.409 125.51 162.216L125.502 162.209C125.441 162.162 125.394 162.097 125.365 162.023C125.337 161.949 125.328 161.868 125.339 161.789C125.351 161.71 125.383 161.636 125.432 161.574C125.481 161.513 125.545 161.467 125.617 161.442C126.052 161.304 126.514 161.285 126.958 161.385C127.347 161.452 127.731 161.545 128.108 161.663L129.185 162.02C129.526 162.133 129.874 162.222 130.226 162.285C130.905 162.407 131.645 162.394 132.008 161.993C132.391 161.598 132.415 160.816 132.397 160.035C132.4 159.946 132.397 159.857 132.387 159.769C132.386 159.704 132.373 159.641 132.348 159.582C132.299 159.442 132.224 159.312 132.129 159.202C131.903 158.943 131.639 158.725 131.346 158.557C130.741 158.187 130.073 157.946 129.38 157.85C128.609 157.761 127.849 157.581 127.116 157.312C126.392 157.081 125.676 156.833 124.963 156.579L122.83 155.797C122.14 155.592 121.429 155.477 120.712 155.455C119.249 155.438 117.797 155.73 116.443 156.316C113.706 157.541 111.238 159.351 109.193 161.632L109.186 161.64C109.163 161.664 109.137 161.683 109.108 161.696C109.079 161.709 109.048 161.715 109.016 161.715L93.6532 161.66C88.5322 161.654 83.4111 161.625 78.2903 161.651L62.9279 161.696C62.7621 161.693 62.6208 161.706 62.4348 161.691C62.3356 161.681 62.2372 161.664 62.1404 161.639L61.8712 161.507C61.5784 161.282 61.3429 160.983 61.1854 160.638C60.9041 160.001 60.7053 159.328 60.5945 158.635C60.3741 157.286 60.2454 155.922 60.2095 154.554C60.1303 151.833 60.1869 149.109 60.379 146.395L60.6116 146.755C57.9762 145.948 55.3839 144.99 52.8457 143.888C50.3105 142.77 47.8412 141.491 45.4512 140.06C43.0506 138.664 40.7656 137.043 38.3308 135.899L37.4076 135.512L36.4669 135.2C36.1458 135.112 35.824 135.027 35.5078 134.969C35.2206 134.903 34.9265 134.878 34.6331 134.894C34.5939 134.905 34.5253 134.914 34.5348 134.92L34.5284 134.918C34.5382 134.915 34.547 134.91 34.5537 134.902C34.5584 134.886 34.5905 134.862 34.5962 134.828C34.6129 134.689 34.5956 134.819 34.6685 134.925C34.8264 135.193 35.0131 135.442 35.225 135.665C35.6877 136.161 36.1809 136.623 36.7013 137.05L36.7058 137.054C36.7888 137.123 36.8482 137.219 36.8747 137.327C36.9012 137.435 36.8935 137.55 36.8527 137.653C36.8118 137.756 36.7402 137.842 36.6487 137.898C36.5572 137.954 36.451 137.976 36.3462 137.962C35.2428 137.819 34.2072 137.323 33.3785 136.539C32.9592 136.143 32.6105 135.671 32.3491 135.146C32.2066 134.862 32.1055 134.558 32.0492 134.243C32.0125 134.038 32.0176 133.827 32.0641 133.625C32.1024 133.474 32.1735 133.335 32.2719 133.219C32.2828 133.187 32.2755 133.216 32.311 133.148C32.5279 132.752 32.7478 132.251 32.9553 131.782L33.571 130.339L34.7626 127.422C35.1537 126.441 35.5522 125.476 35.8878 124.495C36.2369 123.512 36.4965 122.517 36.8129 121.493L37.7324 118.442C38.0537 117.43 38.4344 116.438 38.7826 115.436C40.1987 111.417 42.0673 107.593 44.3479 104.047C44.9291 103.164 45.5523 102.312 46.2151 101.495C46.8904 100.684 47.6132 99.9191 48.3793 99.2043C48.5721 99.0264 48.7585 98.841 48.9568 98.6698L49.5728 98.1809C49.9815 97.8503 50.4087 97.5462 50.8521 97.2701C51.7461 96.6783 52.7276 96.2495 53.7557 96.0014L53.6859 96.0191C55.4211 95.4948 57.2086 95.1887 59.0115 95.1071C60.7917 94.9832 62.5716 94.9323 64.3493 94.9406C67.9056 94.9486 71.4524 95.1392 74.9942 95.438L74.8576 95.4867C75.5507 94.7441 76.1861 93.9435 76.7574 93.0927L77.6377 91.8147C77.9149 91.3527 78.2808 90.9576 78.7118 90.6551C79.1475 90.3579 79.6437 90.1742 80.1596 90.1192C80.665 90.0557 81.1763 90.0663 81.679 90.1508C82.678 90.3268 83.6322 90.7177 84.4826 91.2994C84.4948 91.3077 84.5035 91.3207 84.5067 91.3357C84.51 91.3507 84.5074 91.3665 84.4997 91.3795C84.4921 91.3926 84.4798 91.4019 84.4656 91.4054C84.4515 91.409 84.4366 91.4064 84.4242 91.3984L84.4206 91.3961Z" fill="black"/>
<path d="M58.4836 101.309C59.1722 101.515 59.797 101.911 60.295 102.455C60.8081 102.99 61.2185 103.625 61.5036 104.325C61.7892 105.022 61.9498 105.768 61.9772 106.527C61.9909 106.9 61.9728 107.274 61.9232 107.644C61.863 108.011 61.7713 108.371 61.6492 108.721C61.5266 108.359 61.4713 108.01 61.3813 107.669C61.2847 107.33 61.2268 106.993 61.1194 106.671C60.9481 106.03 60.7381 105.402 60.4906 104.791C60.2424 104.182 59.9522 103.594 59.6223 103.031C59.2768 102.432 58.8965 101.857 58.4836 101.309Z" fill="black"/>
<path d="M60.8928 115.314C61.1056 117.908 61.2094 120.501 61.2749 123.094C61.3472 125.687 61.355 128.28 61.3503 130.872C61.3248 133.464 61.2855 136.057 61.182 138.649C61.0853 141.241 60.9494 143.832 60.7037 146.423C60.4896 143.829 60.3851 141.236 60.32 138.643C60.2479 136.05 60.2402 133.457 60.2463 130.865C60.2731 128.272 60.3123 125.68 60.4162 123.088C60.5132 120.496 60.6485 117.905 60.8928 115.314Z" fill="black"/>
<path d="M111.454 98.1781C113.477 99.5171 115.463 100.912 117.411 102.362C118.386 103.086 119.354 103.823 120.313 104.574L121.74 105.727C121.991 105.926 122.227 106.144 122.446 106.381L122.785 106.756L123.071 107.139C123.811 108.148 124.486 109.209 125.091 110.314C125.701 111.403 126.295 112.5 126.872 113.603C128.013 115.82 129.188 118.012 130.397 120.179C131.002 121.264 131.618 122.341 132.246 123.412L133.186 125.016C133.464 125.541 133.795 126.032 134.172 126.482C134.572 126.897 135.049 127.309 135.464 127.826C135.955 128.367 136.25 129.074 136.299 129.822C136.262 130.59 135.946 131.312 135.417 131.839C135.191 132.081 134.953 132.31 134.705 132.525C134.483 132.715 134.267 132.914 134.055 133.119C133.63 133.532 133.239 133.966 132.842 134.433C132.437 134.906 132.018 135.365 131.592 135.819C130.733 136.727 129.822 137.576 128.862 138.362C127.884 139.164 126.819 139.839 125.689 140.374C125.097 140.639 124.475 140.822 123.838 140.916C123.169 141.021 122.486 140.958 121.845 140.733C121.742 140.7 121.655 140.629 121.6 140.532L121.596 140.526C121.182 139.799 120.728 139.074 120.269 138.365C119.81 137.653 119.33 136.958 118.828 136.28C118.324 135.607 117.785 134.964 117.214 134.353C116.665 133.725 115.992 133.233 115.243 132.91L115.239 132.909C115.225 132.904 115.215 132.894 115.208 132.881C115.202 132.868 115.2 132.853 115.204 132.838C115.207 132.824 115.216 132.812 115.228 132.804C115.24 132.796 115.254 132.794 115.268 132.797C116.086 133.02 116.843 133.445 117.476 134.038C118.125 134.594 118.734 135.201 119.296 135.854C120.426 137.149 121.464 138.529 122.402 139.986L122.154 139.778C123.206 140.005 124.299 139.837 125.246 139.302C126.28 138.781 127.252 138.132 128.142 137.368C129.063 136.611 129.945 135.801 130.782 134.94C131.205 134.512 131.624 134.077 132.029 133.628C132.44 133.171 132.882 132.705 133.345 132.28C133.578 132.066 133.816 131.858 134.062 131.659C134.285 131.462 134.497 131.294 134.683 131.093C135.045 130.764 135.281 130.306 135.348 129.806C135.319 129.287 135.124 128.794 134.794 128.409C134.456 127.948 134.028 127.531 133.614 127.03C133.504 126.899 133.402 126.762 133.307 126.619L133.068 126.19L132.637 125.354L131.795 123.686C131.239 122.571 130.672 121.464 130.092 120.365C128.93 118.169 127.705 116.009 126.378 113.92C125.063 111.834 123.729 109.722 122.304 107.795L122.034 107.439L121.753 107.135C121.561 106.917 121.352 106.716 121.128 106.533L119.74 105.366L116.936 103.037C115.063 101.486 113.214 99.8982 111.389 98.2727C111.379 98.2632 111.372 98.2497 111.37 98.235C111.368 98.2202 111.372 98.2054 111.38 98.1934C111.388 98.1813 111.401 98.1731 111.414 98.1703C111.428 98.1674 111.442 98.1702 111.454 98.1781L111.454 98.1781Z" fill="black"/>
<path d="M118.849 117.048C117.882 120.893 116.969 124.746 116.206 128.615C115.814 130.532 115.54 132.475 115.386 134.43C115.334 135.371 115.329 136.409 115.251 137.415C115.175 138.441 115.012 139.457 114.766 140.453C114.185 142.421 113.255 144.253 112.026 145.852C111.457 146.654 110.855 147.429 110.292 148.208C110.021 148.595 109.745 148.979 109.502 149.393C109.241 149.792 109.005 150.212 108.77 150.633C107.845 152.344 107.018 154.111 106.293 155.926C105.529 157.734 104.87 159.592 104.226 161.462C105.046 157.554 106.319 153.768 108.016 150.191C108.455 149.286 108.956 148.418 109.518 147.593C110.075 146.778 110.645 146.001 111.183 145.197C112.314 143.693 113.168 141.977 113.702 140.14C113.939 139.215 114.098 138.269 114.177 137.314C114.264 136.34 114.262 135.39 114.346 134.348C114.543 132.346 114.885 130.362 115.369 128.415C116.296 124.551 117.458 120.754 118.849 117.048Z" fill="black"/>
<path d="M135.009 131.52C136.225 132.518 137.376 133.582 138.546 134.573C138.841 134.814 139.136 135.051 139.425 135.259L139.907 135.562C140.084 135.681 140.252 135.805 140.413 135.936C141.033 136.465 141.604 137.055 142.117 137.7C143.135 138.976 143.937 140.43 144.484 141.997C145.058 143.548 145.22 145.237 144.953 146.879C144.792 145.301 144.366 143.767 143.696 142.348C143.042 140.949 142.229 139.64 141.273 138.452C140.813 137.855 140.304 137.303 139.751 136.801C139.618 136.676 139.48 136.56 139.342 136.453L138.863 136.101C138.548 135.843 138.25 135.563 137.97 135.264C136.876 134.115 135.885 132.862 135.009 131.52Z" fill="black"/>
<path d="M122.815 140.429C123.901 141.97 124.643 143.752 124.986 145.64C125.025 145.881 125.057 146.124 125.088 146.367C125.109 146.603 125.112 146.882 125.14 147.085C125.182 147.498 125.275 147.903 125.416 148.291C125.724 149.12 126.119 149.909 126.594 150.644C127.063 151.405 127.58 152.133 128.14 152.822C128.411 153.177 128.71 153.507 128.998 153.848C129.31 154.162 129.594 154.511 129.916 154.816C131.141 156.132 132.608 157.168 134.227 157.86C133.326 157.763 132.448 157.493 131.639 157.062C130.83 156.626 130.064 156.105 129.353 155.507C127.922 154.314 126.679 152.888 125.67 151.284C125.157 150.462 124.741 149.578 124.43 148.65C124.28 148.153 124.194 147.637 124.175 147.116C124.16 146.852 124.167 146.662 124.167 146.431L124.135 145.761C123.937 143.926 123.493 142.131 122.815 140.429Z" fill="black"/>
<path d="M135.009 155.427C135.12 154.674 135.366 153.951 135.736 153.297C136.098 152.636 136.539 152.026 137.046 151.482C137.56 150.948 138.129 150.478 138.744 150.082C139.05 149.885 139.365 149.706 139.689 149.546C140.02 149.402 140.351 149.263 140.688 149.146C140.102 149.576 139.525 149.989 138.976 150.439C138.429 150.883 137.909 151.363 137.418 151.875C136.933 152.391 136.486 152.944 136.079 153.531C135.664 154.124 135.306 154.759 135.009 155.427Z" fill="black"/>
<path d="M137.003 156.76C138.23 154.684 139.574 152.689 141.028 150.784C141.755 149.83 142.511 148.898 143.295 147.987C144.093 147.082 144.938 146.225 145.826 145.419C146.731 144.578 147.749 143.885 148.848 143.362C149.442 143.097 150.082 142.967 150.726 142.981C151.386 142.999 152.031 143.195 152.601 143.549C153.661 144.272 154.473 145.337 154.915 146.587C155.145 147.182 155.311 147.802 155.411 148.436C155.533 149.093 155.521 149.769 155.374 150.42L155.197 150.01C156.44 150.681 157.636 151.407 158.823 152.163C160.007 152.92 161.176 153.704 162.302 154.557C163.452 155.387 164.518 156.341 165.483 157.403C165.971 157.952 166.385 158.569 166.713 159.237C167.073 159.948 167.159 160.78 166.951 161.557L166.957 161.536C166.801 162.179 166.464 162.757 165.992 163.195C165.736 163.413 165.437 163.568 165.118 163.651C164.798 163.733 164.466 163.74 164.143 163.672C163.545 163.543 162.976 163.292 162.469 162.933C161.982 162.596 161.521 162.217 161.092 161.8L161.832 161.462C161.812 162.263 161.65 163.053 161.354 163.791C161.065 164.537 160.632 165.21 160.083 165.769C159.533 166.319 158.889 166.752 158.185 167.047C157.887 167.183 157.597 167.337 157.316 167.509C157.186 167.587 157.062 167.674 156.944 167.77C156.899 167.806 156.858 167.846 156.819 167.889C156.789 167.916 156.798 167.948 156.824 167.844L156.637 167.284C156.981 167.6 157.265 167.982 157.475 168.41C157.699 168.85 157.816 169.341 157.817 169.84C157.817 170.34 157.699 170.831 157.475 171.271C157.272 171.688 157.004 172.067 156.682 172.391C156.036 173.034 155.215 173.447 154.336 173.572C153.928 173.624 153.516 173.644 153.105 173.632C152.663 173.632 152.223 173.558 151.802 173.413L152.193 173.415C150.907 173.836 149.585 174.124 148.246 174.275C146.91 174.42 145.563 174.412 144.229 174.252C143.535 174.183 142.853 174.012 142.202 173.746C141.84 173.598 141.513 173.369 141.242 173.075C140.972 172.782 140.765 172.429 140.634 172.043C140.443 171.269 140.531 170.448 140.881 169.739C141.038 169.395 141.24 169.078 141.482 168.796C141.74 168.455 142.111 168.23 142.519 168.166L142.473 168.172C142.666 168.142 142.86 168.124 143.055 168.121C143.246 168.116 143.438 168.123 143.628 168.142C144.018 168.176 144.399 168.284 144.752 168.46L144.468 168.812C144.292 168.482 144.155 168.131 144.059 167.767C143.96 167.404 143.916 167.027 143.928 166.65C143.941 166.269 144.043 165.897 144.224 165.567C144.409 165.25 144.66 164.981 144.957 164.782C144.97 164.773 144.985 164.77 144.999 164.773C145.013 164.776 145.026 164.785 145.034 164.798C145.041 164.81 145.044 164.825 145.042 164.84C145.04 164.854 145.033 164.867 145.022 164.877C144.763 165.089 144.554 165.361 144.41 165.673C144.274 165.979 144.209 166.315 144.222 166.653C144.238 166.993 144.303 167.328 144.416 167.646C144.527 167.964 144.672 168.267 144.85 168.548C144.877 168.59 144.89 168.641 144.889 168.691C144.887 168.742 144.87 168.791 144.84 168.831C144.811 168.871 144.77 168.9 144.724 168.914C144.677 168.928 144.628 168.925 144.583 168.908L144.565 168.9C144.253 168.78 143.924 168.713 143.591 168.703C143.422 168.696 143.252 168.7 143.083 168.715C142.918 168.729 142.753 168.753 142.59 168.789L142.568 168.792L142.544 168.794C142.312 168.879 142.112 169.039 141.971 169.251C141.788 169.492 141.638 169.761 141.527 170.047C141.291 170.587 141.251 171.2 141.414 171.769C141.518 172.028 141.672 172.261 141.868 172.452C142.064 172.643 142.296 172.787 142.549 172.874C143.125 173.079 143.724 173.202 144.33 173.238C145.593 173.34 146.863 173.299 148.118 173.115C149.37 172.951 150.605 172.661 151.806 172.248C151.928 172.205 152.06 172.204 152.183 172.245L152.197 172.25C152.846 172.401 153.515 172.43 154.173 172.335C154.809 172.248 155.403 171.953 155.871 171.491C156.332 171.067 156.62 170.472 156.677 169.83C156.68 169.522 156.612 169.219 156.48 168.945C156.343 168.657 156.16 168.397 155.939 168.176L155.9 168.137C155.833 168.073 155.784 167.99 155.758 167.898C155.732 167.807 155.73 167.709 155.751 167.616C155.795 167.423 155.888 167.246 156.021 167.105C156.102 167.016 156.19 166.934 156.284 166.86C156.443 166.736 156.61 166.623 156.783 166.523C157.106 166.335 157.439 166.167 157.78 166.019C158.374 165.789 158.921 165.44 159.39 164.99C159.851 164.537 160.222 163.993 160.483 163.388C160.749 162.781 160.908 162.128 160.954 161.461L160.956 161.427C160.961 161.339 160.99 161.254 161.039 161.183C161.088 161.112 161.156 161.057 161.233 161.025C161.311 160.993 161.395 160.985 161.477 161.003C161.559 161.02 161.634 161.062 161.694 161.123C162.076 161.519 162.486 161.884 162.921 162.213C163.327 162.538 163.789 162.776 164.281 162.916C164.505 162.98 164.739 162.991 164.967 162.947C165.194 162.903 165.41 162.806 165.598 162.663C165.985 162.333 166.27 161.889 166.418 161.387L166.424 161.366C166.618 160.73 166.571 160.039 166.292 159.439C166.016 158.795 165.643 158.202 165.188 157.684C164.261 156.623 163.228 155.671 162.107 154.846C159.847 153.199 157.44 151.79 154.92 150.639C154.853 150.607 154.797 150.551 154.764 150.481C154.731 150.411 154.722 150.33 154.738 150.254L154.743 150.229C154.827 149.681 154.802 149.121 154.671 148.584C154.552 148.02 154.373 147.471 154.139 146.949C153.717 145.918 153.011 145.045 152.113 144.447C151.669 144.192 151.176 144.049 150.672 144.028C150.168 144.007 149.666 144.11 149.205 144.328C148.195 144.799 147.255 145.423 146.413 146.179C145.53 146.934 144.686 147.74 143.886 148.594C143.071 149.44 142.283 150.321 141.517 151.224C139.996 153.041 138.514 154.906 137.094 156.827C137.089 156.833 137.084 156.838 137.077 156.842C137.071 156.846 137.064 156.848 137.057 156.849C137.05 156.85 137.043 156.85 137.036 156.848C137.029 156.846 137.022 156.843 137.016 156.838C137.005 156.829 136.998 156.816 136.995 156.802C136.993 156.788 136.995 156.773 137.003 156.76Z" fill="black"/>
<path d="M148.094 147.858C148.1 148.939 148.23 150.016 148.481 151.065C148.612 151.561 148.819 152.03 149.096 152.454C149.356 152.852 149.749 153.133 150.196 153.239C150.657 153.356 151.138 153.35 151.596 153.223C152.072 153.106 152.523 152.896 152.926 152.604C153.762 151.989 154.485 151.216 155.059 150.325C154.653 151.362 154.005 152.274 153.176 152.975C152.749 153.351 152.248 153.621 151.709 153.765C151.17 153.909 150.607 153.923 150.062 153.806C149.493 153.659 148.997 153.292 148.672 152.776C148.376 152.287 148.17 151.743 148.064 151.173C147.875 150.076 147.886 148.951 148.094 147.858Z" fill="black"/>
<path d="M156.225 158.195C157.275 158.235 158.296 158.568 159.185 159.161C159.633 159.447 160.048 159.788 160.423 160.176C160.797 160.559 161.123 160.991 161.393 161.463C161 161.103 160.622 160.745 160.221 160.421C159.825 160.093 159.411 159.791 158.981 159.517C158.553 159.24 158.108 158.992 157.65 158.774C157.187 158.549 156.711 158.356 156.225 158.195Z" fill="black"/>
<path d="M144.658 168.681C144.902 168.941 145.183 169.16 145.49 169.328C145.789 169.512 146.093 169.684 146.4 169.852C147.014 170.186 147.637 170.506 148.264 170.821C149.512 171.462 150.777 172.075 151.999 172.832C150.626 172.494 149.293 171.996 148.024 171.347C147.385 171.026 146.769 170.657 146.18 170.243C145.561 169.86 145.039 169.324 144.658 168.681Z" fill="black"/>
<path d="M154.397 160.728C154.613 160.853 154.802 161.024 154.951 161.232C155.037 161.342 155.099 161.471 155.133 161.61C155.166 161.748 155.171 161.893 155.145 162.033C155.067 162.312 154.903 162.555 154.679 162.724C154.477 162.889 154.256 163.025 154.021 163.13C153.914 163.178 153.81 163.234 153.709 163.297C153.615 163.346 153.523 163.402 153.436 163.465L153.197 163.686C153.125 163.768 153.059 163.856 153 163.949C152.748 164.32 152.597 164.757 152.564 165.212C152.501 165.662 152.565 166.121 152.747 166.532C152.93 166.943 153.223 167.288 153.59 167.523C153.681 167.588 153.781 167.637 153.886 167.666C153.991 167.702 154.092 167.752 154.2 167.782C154.424 167.827 154.65 167.856 154.877 167.868C155.111 167.875 155.346 167.866 155.579 167.842C155.811 167.799 156.047 167.763 156.288 167.73C156.065 167.823 155.838 167.912 155.607 167.994C155.371 168.063 155.13 168.117 154.887 168.154C154.637 168.177 154.386 168.178 154.136 168.158C154.009 168.135 153.884 168.105 153.761 168.067C153.633 168.041 153.51 167.995 153.395 167.93C152.907 167.696 152.512 167.289 152.278 166.779C152.052 166.273 151.961 165.711 152.014 165.154C152.068 164.597 152.264 164.066 152.582 163.619C152.663 163.507 152.751 163.403 152.847 163.305L153.162 163.044C153.384 162.909 153.617 162.796 153.86 162.709C154.282 162.607 154.65 162.336 154.887 161.953C154.923 161.848 154.936 161.737 154.925 161.626C154.915 161.515 154.882 161.409 154.828 161.313C154.715 161.095 154.569 160.897 154.397 160.728Z" fill="black"/>
<path d="M149.922 149.524C149.986 149.832 150.075 150.133 150.187 150.424C150.28 150.701 150.445 150.944 150.664 151.125C150.773 151.207 150.897 151.264 151.029 151.29C151.16 151.316 151.296 151.312 151.426 151.278C151.568 151.25 151.708 151.212 151.846 151.164C151.984 151.108 152.12 151.043 152.267 150.992C152.151 151.096 152.025 151.187 151.901 151.287C151.762 151.365 151.619 151.432 151.471 151.486C151.311 151.543 151.142 151.561 150.976 151.537C150.809 151.514 150.65 151.45 150.511 151.351C150.257 151.131 150.077 150.831 149.997 150.494C149.913 150.179 149.888 149.85 149.922 149.524Z" fill="black"/>
<path d="M150.426 149.146C150.722 149.057 151.029 149.013 151.337 149.017C151.651 149.018 151.963 149.071 152.261 149.172C152.573 149.28 152.844 149.488 153.038 149.768C153.205 150.058 153.263 150.404 153.199 150.737C153.164 150.431 153.052 150.141 152.876 149.896C152.687 149.676 152.444 149.516 152.174 149.434C151.606 149.253 151.018 149.156 150.426 149.146Z" fill="black"/>
<path d="M154.649 166.729C154.758 166.492 154.925 166.29 155.132 166.142C155.242 166.062 155.367 166.005 155.498 165.976C155.629 165.947 155.765 165.947 155.897 165.975C156.148 166.06 156.368 166.225 156.528 166.447C156.594 166.56 156.663 166.669 156.719 166.784C156.761 166.907 156.81 167.024 156.843 167.147C156.681 166.952 156.538 166.758 156.377 166.589C156.227 166.427 156.041 166.309 155.836 166.245C155.631 166.194 155.416 166.223 155.23 166.328C155.021 166.436 154.826 166.57 154.649 166.729Z" fill="black"/>
<path d="M144.953 168.024C144.967 167.567 145.078 167.118 145.276 166.711C145.328 166.597 145.402 166.495 145.493 166.413C145.584 166.33 145.69 166.268 145.805 166.23C145.926 166.205 146.05 166.21 146.169 166.243C146.288 166.277 146.398 166.338 146.492 166.423C146.674 166.568 146.828 166.748 146.947 166.954C147.069 167.172 147.11 167.429 147.062 167.677C146.997 167.901 146.887 168.107 146.738 168.28C146.59 168.453 146.407 168.59 146.203 168.68C146.533 168.427 146.767 168.059 146.863 167.641C146.88 167.446 146.838 167.25 146.741 167.083C146.633 166.913 146.496 166.765 146.337 166.647C146.275 166.582 146.2 166.533 146.117 166.503C146.034 166.473 145.946 166.464 145.859 166.475C145.686 166.536 145.54 166.66 145.446 166.825C145.229 167.198 145.063 167.602 144.953 168.024Z" fill="black"/>
<path d="M138.216 164.64C138.19 165.097 138.068 165.542 137.86 165.943C137.805 166.056 137.729 166.156 137.636 166.236C137.543 166.316 137.435 166.376 137.32 166.41C137.198 166.431 137.074 166.423 136.956 166.387C136.838 166.35 136.729 166.286 136.638 166.198C136.459 166.048 136.309 165.864 136.195 165.655C136.079 165.434 136.045 165.175 136.098 164.928C136.169 164.707 136.285 164.504 136.437 164.335C136.59 164.166 136.776 164.034 136.982 163.95C136.646 164.193 136.403 164.555 136.296 164.971C136.274 165.165 136.312 165.362 136.404 165.532C136.509 165.705 136.642 165.856 136.798 165.978C136.858 166.045 136.932 166.096 137.015 166.128C137.097 166.16 137.185 166.172 137.272 166.163C137.446 166.107 137.595 165.987 137.693 165.825C137.919 165.458 138.095 165.059 138.216 164.64Z" fill="black"/>
<path d="M142.169 172.198C142.282 171.882 142.44 171.587 142.639 171.323C142.74 171.183 142.862 171.061 142.999 170.961C143.078 170.899 143.17 170.858 143.267 170.842C143.365 170.826 143.464 170.836 143.557 170.87C143.722 170.968 143.845 171.129 143.904 171.319C143.963 171.482 144 171.653 144.015 171.826C144.054 172.162 144.04 172.501 143.973 172.831C143.939 172.506 143.887 172.183 143.816 171.864C143.783 171.713 143.738 171.564 143.684 171.419C143.621 171.291 143.546 171.153 143.451 171.123C143.272 171.02 142.992 171.254 142.788 171.467C142.57 171.699 142.363 171.943 142.169 172.198Z" fill="black"/>
<path d="M135.006 156.794L132.775 159.395C132.775 159.395 132.792 162.72 131.201 162.86C131.201 162.86 130.395 163.631 130.969 163.789C131.483 163.924 133.333 163.439 134.134 163.538C134.134 163.538 137.928 162.743 138.574 163.176C138.769 163.315 138.932 163.497 139.053 163.71C139.174 163.923 139.25 164.162 139.276 164.409L139.585 164.374L151.553 165.127L156.745 156.794L135.006 156.794ZM150.427 162.626L133.631 162.328L135.824 158.594H152.652L150.427 162.626Z" fill="black"/>
<path d="M121.243 162.862C121.891 162.362 122.623 162 123.4 161.793C124.189 161.578 125.007 161.504 125.819 161.572C125.892 161.578 125.96 161.615 126.007 161.673C126.055 161.732 126.079 161.808 126.073 161.886C126.068 161.963 126.033 162.034 125.978 162.085C125.923 162.136 125.851 162.161 125.778 162.156C125.766 162.155 125.755 162.153 125.744 162.151C124.99 161.993 124.216 161.969 123.454 162.079C122.677 162.188 121.926 162.453 121.243 162.862Z" fill="black"/>
<path d="M125.781 168.898C127.335 168.928 128.889 168.985 130.443 169.142C130.828 169.178 131.23 169.244 131.601 169.29C131.977 169.333 132.355 169.341 132.731 169.314C133.477 169.26 134.209 169.074 134.896 168.764L134.914 168.756C134.981 168.725 135.057 168.723 135.126 168.751C135.194 168.779 135.249 168.834 135.279 168.905C135.308 168.976 135.31 169.057 135.283 169.129C135.257 169.201 135.204 169.26 135.137 169.291L135.122 169.298C134.361 169.591 133.558 169.745 132.747 169.752C132.347 169.756 131.948 169.722 131.553 169.652C131.157 169.577 130.795 169.493 130.408 169.431C128.879 169.18 127.33 169.025 125.781 168.898Z" fill="black"/>
<path d="M126.98 173.432C127.506 173.231 128.039 173.044 128.577 172.871C129.121 172.689 129.676 172.545 130.238 172.441C130.31 172.428 130.385 172.447 130.444 172.492C130.504 172.538 130.544 172.607 130.556 172.683C130.567 172.76 130.55 172.839 130.507 172.902C130.464 172.965 130.399 173.007 130.326 173.02C130.311 173.022 130.297 173.023 130.282 173.023H130.277C129.727 173.03 129.179 173.075 128.635 173.157C128.082 173.232 127.53 173.325 126.98 173.432Z" fill="black"/>
<path d="M129.059 158.668C129.342 158.978 129.674 159.233 130.04 159.421C130.412 159.602 130.802 159.739 131.202 159.828C130.99 159.88 130.772 159.892 130.556 159.863C130.338 159.833 130.125 159.767 129.925 159.67C129.728 159.563 129.549 159.423 129.394 159.256C129.24 159.091 129.125 158.889 129.059 158.668Z" fill="black"/>
<path d="M137.489 169.001C137.342 169.001 137.202 168.94 137.097 168.831C136.993 168.722 136.935 168.574 136.934 168.419C136.933 168.264 136.991 168.115 137.094 168.005C137.197 167.895 137.337 167.833 137.484 167.832L144.48 167.762C144.553 167.76 144.625 167.773 144.693 167.801C144.761 167.83 144.823 167.872 144.875 167.926C144.927 167.98 144.968 168.045 144.996 168.116C145.024 168.187 145.038 168.264 145.037 168.341C145.038 168.418 145.024 168.494 144.997 168.565C144.97 168.636 144.93 168.701 144.879 168.756C144.828 168.811 144.768 168.854 144.701 168.884C144.634 168.914 144.563 168.93 144.49 168.931L137.494 169.001H137.489Z" fill="black"/>
<path d="M156.714 168.811C156.568 168.812 156.427 168.75 156.324 168.641C156.22 168.531 156.162 168.383 156.162 168.228C156.161 168.073 156.22 167.924 156.323 167.814C156.427 167.705 156.567 167.643 156.713 167.643L175.999 167.616H175.999C176.146 167.616 176.286 167.677 176.39 167.787C176.494 167.896 176.552 168.045 176.552 168.2C176.552 168.355 176.494 168.504 176.391 168.613C176.287 168.723 176.147 168.785 176 168.785L156.715 168.811H156.714Z" fill="black"/>
<path d="M284.743 168.631C284.597 168.631 284.456 168.57 284.352 168.46C284.249 168.351 284.191 168.202 284.191 168.047C284.19 167.892 284.249 167.744 284.352 167.634C284.456 167.524 284.596 167.463 284.743 167.463L302.469 167.44H302.469C302.616 167.44 302.756 167.501 302.86 167.611C302.963 167.72 303.022 167.869 303.022 168.024C303.022 168.179 302.964 168.327 302.86 168.437C302.757 168.547 302.616 168.608 302.47 168.608L284.744 168.631H284.743Z" fill="black"/>
<path d="M183.785 168.329H182.474C182.439 168.329 182.406 168.315 182.381 168.289C182.356 168.263 182.341 168.227 182.341 168.19C182.341 168.172 182.344 168.154 182.35 168.138C182.357 168.121 182.366 168.105 182.378 168.093C182.39 168.08 182.404 168.069 182.42 168.062C182.436 168.055 182.453 168.052 182.47 168.052H183.785C183.803 168.052 183.82 168.055 183.836 168.062C183.852 168.069 183.866 168.079 183.879 168.092C183.891 168.105 183.901 168.12 183.907 168.137C183.914 168.154 183.917 168.172 183.917 168.19C183.917 168.209 183.914 168.227 183.907 168.244C183.901 168.261 183.891 168.276 183.879 168.289C183.866 168.302 183.852 168.312 183.836 168.319C183.82 168.326 183.803 168.329 183.785 168.329Z" fill="black"/>
<path d="M13.5262 170.224C13.3797 170.225 13.239 170.164 13.1349 170.055C13.0308 169.946 12.972 169.798 12.9713 169.643C12.9706 169.488 13.0282 169.339 13.1313 169.229C13.2344 169.118 13.3746 169.056 13.5211 169.056L37.8372 168.816C37.9825 168.819 38.1212 168.881 38.2249 168.988C38.3286 169.096 38.3894 169.241 38.3947 169.395C38.3953 169.472 38.3818 169.548 38.3546 169.619C38.3275 169.69 38.2874 169.755 38.2366 169.81C38.1858 169.865 38.1253 169.908 38.0585 169.938C37.9917 169.969 37.92 169.984 37.8475 169.985L13.5313 170.224H13.5262Z" fill="black"/>
<path d="M105.234 89.3393C105.438 89.3318 105.631 89.2407 105.773 89.0852C105.915 88.9297 105.995 88.7219 105.995 88.5057C105.995 88.2895 105.915 88.0817 105.773 87.9262C105.631 87.7707 105.438 87.6796 105.234 87.6721C105.029 87.6796 104.836 87.7707 104.694 87.9262C104.552 88.0817 104.473 88.2895 104.473 88.5057C104.473 88.7219 104.552 88.9297 104.694 89.0852C104.836 89.2407 105.029 89.3318 105.234 89.3393Z" fill="black"/>
<path d="M145.062 73.1711L138.612 73.4253C136.496 73.4932 134.403 73.5474 132.323 73.5885C130.245 73.619 128.175 73.6538 126.113 73.6293C124.05 73.6129 121.987 73.5153 119.904 73.4544L120.21 73.1298C120.177 74.3891 120.123 75.6485 120.107 76.9078C120.078 78.1671 120.077 79.4264 120.07 80.6858C120.068 83.2043 120.118 85.723 120.185 88.2416L119.904 87.9434L125.051 87.7922C125.103 87.7906 125.156 87.8001 125.205 87.82C125.254 87.84 125.298 87.8701 125.336 87.9085L125.351 87.9239L127.317 89.9242H126.641L128.542 87.8553C128.588 87.8053 128.643 87.7654 128.703 87.7379C128.764 87.7105 128.829 87.696 128.894 87.6954L128.907 87.6952C131.606 87.6717 134.305 87.613 137.004 87.6183C138.353 87.6112 139.703 87.617 141.052 87.6359L145.101 87.6901L144.579 88.2416C144.616 85.7871 144.683 83.3322 144.779 80.8266L145.062 73.1711ZM145.14 73.0885L145.422 80.5449C145.518 83.0765 145.585 85.6589 145.622 88.2416C145.624 88.3857 145.572 88.5248 145.477 88.6282C145.382 88.7316 145.252 88.791 145.116 88.7932H145.115L145.101 88.7933L141.052 88.8475C139.703 88.8646 138.353 88.8705 137.004 88.865C134.305 88.8703 131.606 88.8117 128.907 88.7882L129.273 88.6282L127.317 90.6393L127.306 90.6512C127.262 90.6966 127.209 90.7323 127.152 90.7564C127.095 90.7805 127.034 90.7924 126.972 90.7914C126.911 90.7905 126.85 90.7768 126.794 90.751C126.737 90.7252 126.686 90.6879 126.643 90.6412L126.641 90.6393L124.751 88.5596L125.051 88.6911L119.904 88.5399L119.888 88.5395C119.815 88.5373 119.747 88.5048 119.697 88.4489C119.647 88.3931 119.62 88.3186 119.622 88.2418V88.2416C119.689 85.7231 119.739 83.2044 119.737 80.6858C119.73 79.4264 119.729 78.1671 119.7 76.9078C119.684 75.6485 119.63 74.3891 119.597 73.1298C119.596 73.0884 119.602 73.0472 119.616 73.0085C119.63 72.9698 119.651 72.9344 119.678 72.9043C119.705 72.8742 119.737 72.85 119.773 72.8331C119.809 72.8161 119.848 72.8068 119.887 72.8057H119.887L119.904 72.8053C122.02 72.7444 124.156 72.6466 126.293 72.6304C128.431 72.6058 130.56 72.6406 132.682 72.6712C134.801 72.7121 136.908 72.7665 138.991 72.8344L145.14 73.0885Z" fill="black"/>
<path d="M219.163 45.2178L209.67 45.3916L200.258 45.5171L181.563 45.6561L172.262 45.6214L162.967 45.497C156.764 45.3963 150.53 45.3482 144.299 45.3647L144.477 45.1766L144.51 52.7324L144.592 60.2884L144.299 59.9782C149.79 59.899 155.282 59.8241 160.774 59.7839L177.249 59.6878C182.74 59.6428 188.232 59.6945 193.724 59.6932C199.215 59.686 204.707 59.7624 210.199 59.8089L210.206 59.809C210.324 59.8101 210.436 59.8606 210.519 59.9494L212.43 62.0076H211.824L213.773 59.9903L213.78 59.9828C213.817 59.9453 213.86 59.9158 213.907 59.8959C213.954 59.876 214.004 59.8661 214.055 59.8668L219.202 59.946L218.879 60.2884C218.916 57.8085 218.947 55.3287 219.012 52.8157L219.163 45.2178ZM219.241 45.1352L219.393 52.6489C219.457 55.1733 219.488 57.7309 219.526 60.2884C219.527 60.3777 219.495 60.464 219.436 60.5282C219.377 60.5923 219.297 60.6292 219.212 60.6306H219.212L219.202 60.6307L214.055 60.7099L214.337 60.5865L212.43 62.6493C212.351 62.7343 212.244 62.7828 212.132 62.7842C212.019 62.7855 211.911 62.7395 211.83 62.6563L211.83 62.6556L211.824 62.6493L209.878 60.6274L210.199 60.7678C204.707 60.8143 199.215 60.8907 193.723 60.8835C188.232 60.8823 182.74 60.9339 177.249 60.8889L160.774 60.7928C155.282 60.7526 149.79 60.6777 144.299 60.5985H144.291C144.253 60.598 144.216 60.5896 144.181 60.5737C144.146 60.5579 144.114 60.5349 144.088 60.5061C144.061 60.4773 144.04 60.4432 144.026 60.4059C144.012 60.3685 144.005 60.3286 144.005 60.2883L144.088 52.7324L144.12 45.1766C144.121 45.1266 144.139 45.0787 144.173 45.0434C144.206 45.0081 144.251 44.9882 144.299 44.9881C150.551 45.0048 156.801 44.9567 163.082 44.856L172.513 44.7316L181.938 44.6968L200.695 44.8359L210.008 44.9613L219.241 45.1352Z" fill="black"/>
<path d="M167.154 12.9696C163.104 13.0916 159.123 13.1764 155.165 13.2495C151.198 13.3367 147.279 13.3756 143.361 13.4076C139.444 13.4401 135.554 13.4141 131.656 13.3218C127.755 13.2512 123.836 13.1361 119.904 13.1154L120.081 12.9284C120.08 14.1876 120.063 15.4469 120.076 16.7062L120.098 20.4842C120.101 23.0029 120.159 25.5214 120.193 28.0401L119.904 27.7343L125.052 27.6323C125.1 27.6313 125.148 27.6404 125.193 27.659C125.238 27.6777 125.279 27.7056 125.314 27.7411L125.324 27.7518L127.283 29.7591H126.676L128.58 27.6935C128.621 27.6486 128.671 27.6129 128.725 27.5882C128.779 27.5636 128.838 27.5506 128.897 27.55L128.908 27.5498L138.479 27.4618C141.67 27.435 144.86 27.4103 148.051 27.4156C154.431 27.4124 160.812 27.5112 167.193 27.601L166.778 28.0401L166.948 20.5917L167.154 12.9696ZM167.232 12.887L167.439 20.3766L167.608 28.0402C167.611 28.1539 167.57 28.264 167.496 28.3463C167.422 28.4286 167.32 28.4763 167.212 28.479L167.208 28.4791L167.193 28.4793C160.812 28.5692 154.431 28.6679 148.051 28.6647C144.86 28.6702 141.67 28.6453 138.479 28.6187L128.908 28.5305L129.236 28.387L127.283 30.4012L127.275 30.4102C127.194 30.4929 127.086 30.5386 126.974 30.5371C126.862 30.5357 126.756 30.4872 126.677 30.4024L126.676 30.4012L124.779 28.3286L125.052 28.448L119.904 28.346L119.895 28.3459C119.857 28.3453 119.82 28.3369 119.786 28.3212C119.752 28.3055 119.721 28.2828 119.695 28.2544C119.669 28.226 119.649 28.1924 119.635 28.1557C119.621 28.1189 119.614 28.0797 119.615 28.0402C119.65 25.5215 119.708 23.0029 119.711 20.4842L119.733 16.7062C119.746 15.4469 119.729 14.1876 119.727 12.9284C119.727 12.8787 119.746 12.8311 119.779 12.796C119.812 12.7609 119.857 12.7411 119.904 12.741C123.854 12.7204 127.817 12.6052 131.797 12.5348C135.78 12.4423 139.771 12.4165 143.736 12.4489C147.7 12.481 151.662 12.5199 155.577 12.6071C159.5 12.68 163.401 12.765 167.232 12.887V12.887Z" fill="black"/>
</svg>
