<svg width="56" height="205" viewBox="0 0 56 205" fill="none" xmlns="http://www.w3.org/2000/svg">
<path d="M30.1423 182.75C30.1628 182.109 30.3092 181.479 30.5724 180.899C30.6748 180.662 30.8631 180.477 31.0959 180.385C31.2016 180.351 31.3115 180.332 31.4223 180.331C31.5466 180.353 31.671 180.364 31.7954 180.396C32.3469 180.613 32.8721 180.896 33.3603 181.24C33.9045 181.57 34.4538 181.911 35.0549 182.22C35.6837 182.54 36.3672 182.726 37.0656 182.767C37.7645 182.776 38.4561 182.616 39.0865 182.301C39.1176 182.285 39.1538 182.269 39.1849 182.252C36.3711 184.038 32.9354 185.137 30.1423 182.75Z" fill="black"/>
<path d="M52.1817 161.237C51.6376 161.036 50.9327 160.501 50.1089 159.267C48.0515 156.187 46.6991 159.456 46.6991 159.456C43.8386 164.073 40.7916 161.534 40.1852 161.215C40.0638 161.163 39.9304 161.15 39.8018 161.177C39.6317 161.197 39.4646 161.239 39.3043 161.302C38.2782 161.67 36.8169 162.779 36.734 164.338C36.6554 165.064 36.4481 165.769 36.1225 166.416C36.5904 166.135 37.1001 165.937 37.6305 165.832C38.1517 165.719 38.6843 165.673 39.2162 165.696C39.7627 165.717 40.3021 165.832 40.8123 166.037C41.084 166.13 41.3351 166.279 41.5505 166.475C41.766 166.671 41.9414 166.911 42.0663 167.179C41.6038 166.987 41.1128 166.881 40.6154 166.865C40.1386 166.828 39.6568 166.8 39.1644 166.779C38.6773 166.757 38.1798 166.725 37.6772 166.676C37.1533 166.632 36.6334 166.545 36.1226 166.416C35.6507 167.432 35.1086 168.411 34.5006 169.344C34.9202 169.02 35.4033 168.796 35.9153 168.689C36.427 168.57 36.9545 168.543 37.475 168.608C38.0054 168.668 38.5194 168.835 38.9883 169.101C39.4639 169.36 39.8632 169.749 40.1439 170.226C39.6101 170.118 39.1696 169.972 38.7085 169.902C38.2524 169.815 37.8068 169.734 37.3559 169.68C36.4439 169.561 35.537 169.517 34.4902 169.355C34.0291 170.08 33.6714 170.567 33.6714 170.567C33.2362 171.054 32.8476 171.52 32.4849 171.975C32.9774 171.75 33.5032 171.614 34.0395 171.574C34.575 171.528 35.114 171.561 35.6408 171.671C36.1848 171.777 36.7051 171.988 37.1746 172.294C37.6675 172.59 38.0452 173.057 38.242 173.614C37.7943 173.379 37.3234 173.196 36.8377 173.068C36.3817 172.932 35.9101 172.835 35.4386 172.732C34.4367 172.554 33.448 172.302 32.4796 171.98H32.4744C32.4589 172.002 32.4433 172.018 32.4278 172.039C32.2724 175.341 32.1946 178.004 32.1946 178.004C31.3024 179.169 30.1564 180.095 28.8522 180.704C28.9233 181.213 29.1318 181.69 29.4532 182.079C29.6674 182.32 29.8977 182.544 30.1425 182.75C29.9487 182.081 29.9361 181.369 30.1062 180.694C30.2097 180.296 30.4593 179.958 30.8006 179.752C30.9792 179.645 31.1766 179.577 31.3809 179.552C31.5712 179.543 31.7619 179.55 31.951 179.573C32.1271 179.611 32.3085 179.649 32.4796 179.698L32.9615 179.903C33.2724 180.044 33.5522 180.196 33.8372 180.342C34.4073 180.65 34.9463 180.986 35.4904 181.24C35.9938 181.524 36.5484 181.694 37.1186 181.741C37.6889 181.788 38.2621 181.709 38.8016 181.511C39.9723 181.064 41.1058 180.517 42.1907 179.876C43.5484 178.481 44.6605 176.847 45.4761 175.049C47.5955 170.486 51.6167 168.181 53.4512 165.182C53.4926 165.117 53.5289 165.058 53.5652 164.993C53.7617 164.661 53.8822 164.287 53.9171 163.899C53.952 163.511 53.9004 163.12 53.7664 162.756C53.6324 162.392 53.4197 162.066 53.1447 161.802C52.8698 161.538 52.5402 161.345 52.1817 161.237ZM47.554 164.793C47.3319 165.382 47.0722 165.955 46.7767 166.508C46.4876 167.065 46.1639 167.602 45.8078 168.116C45.4466 168.646 45.0332 169.136 44.5744 169.577C44.6858 168.938 44.8595 168.312 45.0926 167.71C45.3201 167.121 45.5796 166.546 45.8699 165.989C46.1603 165.432 46.484 164.895 46.839 164.381C47.2 163.85 47.6133 163.361 48.0722 162.92C47.9616 163.561 47.788 164.189 47.554 164.793Z" fill="black"/>
<path d="M33.5475 51.634C33.1849 51.1279 32.6953 50.7364 32.1328 50.5029L32.1275 50.4975C32.0814 50.4737 32.038 50.4447 31.998 50.4109C32.3988 51.5528 33.0057 52.6037 33.7859 53.5067C33.8013 53.4472 33.8117 53.393 33.8221 53.3335C33.8877 53.0454 33.8972 52.7466 33.85 52.4546C33.8029 52.1627 33.7 51.8836 33.5475 51.634ZM33.5475 51.634C33.1849 51.1279 32.6953 50.7364 32.1328 50.5029L32.1275 50.4975C32.0814 50.4737 32.038 50.4447 31.998 50.4109C32.3988 51.5528 33.0057 52.6037 33.7859 53.5067C33.8013 53.4472 33.8117 53.393 33.8221 53.3335C33.8877 53.0454 33.8972 52.7466 33.85 52.4546C33.8029 52.1627 33.7 51.8836 33.5475 51.634ZM33.5475 51.634C33.1849 51.1279 32.6953 50.7364 32.1328 50.5029L32.1275 50.4975C32.0814 50.4737 32.038 50.4447 31.998 50.4109C32.3988 51.5528 33.0057 52.6037 33.7859 53.5067C33.8013 53.4472 33.8117 53.393 33.8221 53.3335C33.8877 53.0454 33.8972 52.7466 33.85 52.4546C33.8029 52.1627 33.7 51.8836 33.5475 51.634ZM33.5475 51.634C33.1849 51.1279 32.6953 50.7364 32.1328 50.5029L32.1275 50.4975C32.0814 50.4737 32.038 50.4447 31.998 50.4109C32.3988 51.5528 33.0057 52.6037 33.7859 53.5067C33.8013 53.4472 33.8117 53.393 33.8221 53.3335C33.8877 53.0454 33.8972 52.7466 33.85 52.4546C33.8029 52.1627 33.7 51.8836 33.5475 51.634ZM33.5475 51.634C33.1849 51.1279 32.6953 50.7364 32.1328 50.5029L32.1275 50.4975C32.0814 50.4737 32.038 50.4447 31.998 50.4109C32.3988 51.5528 33.0057 52.6037 33.7859 53.5067C33.8013 53.4472 33.8117 53.393 33.8221 53.3335C33.8877 53.0454 33.8972 52.7466 33.85 52.4546C33.8029 52.1627 33.7 51.8836 33.5475 51.634ZM33.5475 51.634C33.1849 51.1279 32.6953 50.7364 32.1328 50.5029L32.1275 50.4975C32.0814 50.4737 32.038 50.4447 31.998 50.4109C32.3988 51.5528 33.0057 52.6037 33.7859 53.5067C33.8013 53.4472 33.8117 53.393 33.8221 53.3335C33.8877 53.0454 33.8972 52.7466 33.85 52.4546C33.8029 52.1627 33.7 51.8836 33.5475 51.634ZM33.5475 51.634C33.1849 51.1279 32.6953 50.7364 32.1328 50.5029L32.1275 50.4975C32.0814 50.4737 32.038 50.4447 31.998 50.4109C32.3988 51.5528 33.0057 52.6037 33.7859 53.5067C33.8013 53.4472 33.8117 53.393 33.8221 53.3335C33.8877 53.0454 33.8972 52.7466 33.85 52.4546C33.8029 52.1627 33.7 51.8836 33.5475 51.634ZM33.5475 51.634C33.1849 51.1279 32.6953 50.7364 32.1328 50.5029L32.1275 50.4975C32.0814 50.4737 32.038 50.4447 31.998 50.4109C32.3988 51.5528 33.0057 52.6037 33.7859 53.5067C33.8013 53.4472 33.8117 53.393 33.8221 53.3335C33.8877 53.0454 33.8972 52.7466 33.85 52.4546C33.8029 52.1627 33.7 51.8836 33.5475 51.634ZM55.7317 50.7356C54.9596 39.1264 54.4984 33.9685 50.3269 27.0409C46.1605 20.1078 31.7908 22.343 31.7908 22.343C25.018 32.3178 20.7271 25.4605 20.7271 25.4605C18.5559 26.6512 17.5195 24.7136 17.5195 24.7136C5.23823 30.1258 5.5697 36.8695 5.5697 39.2887C5.5697 41.7079 4.79771 50.4109 4.79771 50.4109C2.7922 61.6954 4.79771 75.7239 4.79771 76.6873C4.79771 77.6561 7.26953 90.0663 7.26953 90.0663C8.80845 91.8415 12.0525 89.9094 12.0525 89.9094C11.4513 85.9314 11.0177 81.9317 10.7517 77.9105C10.6118 75.9025 10.5394 73.8892 10.4926 71.8704C10.4615 69.8571 10.5133 67.8167 10.6275 65.8087C10.7311 63.8222 10.7362 61.8315 10.6429 59.8445C10.586 57.8473 10.4304 55.8502 10.2907 53.8531C10.1351 51.856 9.9486 49.8588 9.75177 47.8618C9.57034 45.8592 9.33199 43.8675 9.11945 41.8704C9.97011 45.798 10.6274 49.7686 11.0888 53.7665C11.6108 57.7777 11.8014 61.8284 11.6586 65.8737C11.3944 69.8571 11.4617 73.8568 11.5602 77.8672C11.6897 81.8776 11.8538 85.8917 12.0526 89.9094C32.423 95.2243 49.8656 87.3278 49.8656 87.3278L48.4769 71.5295C47.8991 71.7259 47.2884 71.7941 46.6839 71.7297C46.0819 71.6745 45.4833 71.5841 44.8909 71.4591C43.7179 71.1886 42.5605 70.8489 41.4242 70.4416C39.1607 69.6311 36.9382 68.7009 34.7652 67.6544C32.5992 66.6098 30.4608 65.5093 28.35 64.3528L27.5571 63.9307L27.1633 63.7197L26.7539 63.4707C26.1959 63.134 25.7232 62.6627 25.3755 62.096C25.0427 61.5242 24.8888 60.8583 24.935 60.1909C24.9788 59.5556 25.1652 58.9401 25.4791 58.394C25.2511 58.9429 25.1605 59.5433 25.2158 60.1388C25.2711 60.7344 25.4705 61.3054 25.7953 61.7983C26.4585 62.74 27.6037 63.0648 28.6971 63.5952C30.8839 64.5964 33.0293 65.6518 35.1954 66.6693C37.3511 67.703 39.5172 68.7097 41.7039 69.6514C42.8025 70.1115 43.9012 70.5661 45.0205 70.9449C45.5806 71.137 46.1496 71.2996 46.7254 71.4321C47.2983 71.578 47.8923 71.611 48.4768 71.5295C56.0375 70.723 56.5038 62.3394 55.7317 50.7356ZM26.2149 37.7463C26.6546 37.2803 27.1618 36.8895 27.7177 36.588C27.4191 37.1625 27.0342 37.6833 26.5776 38.1305C26.1369 38.5952 25.63 38.9859 25.0749 39.2887C25.3748 38.7151 25.7596 38.1946 26.2149 37.7463H26.2149ZM20.7843 36.5501C20.8653 35.9061 21.0436 35.2795 21.3126 34.6937C21.4062 35.3364 21.401 35.9905 21.2972 36.6314C21.2155 37.2729 21.039 37.8973 20.7739 38.4823C20.6812 37.8416 20.6847 37.1897 20.7843 36.5501H20.7843ZM15.9441 36.9019C16.2795 37.4948 16.5276 38.137 16.6799 38.807C15.7513 37.822 15.0866 36.5996 14.7523 35.262C15.2249 35.7442 15.6266 36.2968 15.9441 36.9019L15.9441 36.9019ZM43.9477 55.1033C42.6574 54.5512 41.3515 54.0316 40.0458 53.5175C38.2321 52.8085 36.4131 52.1103 34.589 51.4229C34.877 52.0882 34.9444 52.8347 34.7808 53.5445C34.5926 54.3108 34.2731 55.0351 33.8376 55.6824C33.428 56.3086 32.9536 56.8858 32.4229 57.4035C31.4534 58.4903 30.3504 59.4385 29.1428 60.2232C28.8153 60.4167 28.4601 60.5538 28.0908 60.6292C27.8903 60.6648 27.6846 60.6518 27.4896 60.5913C27.289 60.524 27.118 60.3838 27.0077 60.1962C26.8213 59.8578 26.7297 59.4714 26.7434 59.0813C26.7484 58.7133 26.7901 58.3469 26.8678 57.988C26.8417 58.349 26.8522 58.7118 26.8989 59.0704C26.9285 59.4135 27.0447 59.7422 27.2357 60.023C27.332 60.1343 27.4583 60.2125 27.598 60.2473C27.7377 60.2821 27.8842 60.2718 28.0182 60.2178C28.3272 60.1201 28.6181 59.9682 28.8784 59.7686C29.1553 59.5691 29.4217 59.3542 29.6764 59.1246C25.3909 56.4942 25.2406 58.8052 22.0848 58.3939C18.8617 57.9663 18.302 50.8979 18.302 50.8979C17.4084 50.8325 16.5269 50.6451 15.6799 50.3405C14.9271 50.108 14.2589 49.6441 13.7624 49.0091C13.1716 48.2297 13.0213 47.3476 15.9855 47.8346L16.3587 47.8996L14.3791 41.8703H23.7275L25.7434 48.1052C25.8511 47.8361 25.904 47.5465 25.8986 47.2548C25.8932 46.9632 25.8298 46.6759 25.7122 46.4113L25.2097 44.8525C25.2097 44.8525 29.4899 43.0773 31.1897 48.2351C31.4073 48.9008 31.625 49.4908 31.827 50.0049C31.827 49.9266 31.8429 49.8491 31.8737 49.7776C31.9291 49.6568 32.0255 49.5617 32.1442 49.5107C32.2628 49.4597 32.3954 49.4565 32.5162 49.5016C35.1642 50.492 37.7812 51.5474 40.3514 52.7327C41.2117 53.1278 42.065 53.5428 42.9113 53.9775C42.8596 52.6299 42.6574 51.3309 42.4865 50.0158L41.906 45.9349C41.7246 44.571 41.5381 43.2072 41.3982 41.8324C41.2479 40.4578 41.1184 39.0776 41.0665 37.6759C41.5246 38.9857 41.9003 40.3253 42.1911 41.6863C42.4969 43.0394 42.73 44.4087 42.9321 45.7834C43.1207 47.1616 43.2418 48.5489 43.2948 49.94C43.3728 51.3032 43.2576 52.6711 42.9528 53.9992C43.357 54.2048 43.7613 54.4051 44.1603 54.6216C45.42 55.2761 46.6309 56.0287 47.7825 56.873C46.5284 56.2128 45.2433 55.6445 43.9478 55.1033L43.9477 55.1033ZM32.1328 50.5029L32.1275 50.4975C32.0814 50.4737 32.0379 50.4447 31.998 50.4109C32.3988 51.5528 33.0057 52.6037 33.7858 53.5067C33.8013 53.4472 33.8117 53.393 33.822 53.3335C33.8877 53.0454 33.8972 52.7466 33.85 52.4546C33.8029 52.1627 33.7 51.8836 33.5475 51.634C33.1849 51.1279 32.6953 50.7364 32.1329 50.5029L32.1328 50.5029ZM33.5475 51.634C33.1849 51.1279 32.6953 50.7364 32.1328 50.5029L32.1275 50.4975C32.0814 50.4737 32.0379 50.4447 31.998 50.4109C32.3988 51.5528 33.0057 52.6037 33.7858 53.5067C33.8013 53.4472 33.8117 53.393 33.822 53.3335C33.8877 53.0454 33.8972 52.7466 33.85 52.4546C33.8029 52.1627 33.7 51.8836 33.5475 51.634H33.5475ZM33.5475 51.634C33.1849 51.1279 32.6953 50.7364 32.1328 50.5029L32.1275 50.4975C32.0814 50.4737 32.0379 50.4447 31.998 50.4109C32.3988 51.5528 33.0057 52.6037 33.7858 53.5067C33.8013 53.4472 33.8117 53.393 33.822 53.3335C33.8877 53.0454 33.8972 52.7466 33.85 52.4546C33.8029 52.1627 33.7 51.8836 33.5475 51.634H33.5475ZM33.5475 51.634C33.1849 51.1279 32.6953 50.7364 32.1328 50.5029L32.1275 50.4975C32.0814 50.4737 32.0379 50.4447 31.998 50.4109C32.3988 51.5528 33.0057 52.6037 33.7858 53.5067C33.8013 53.4472 33.8117 53.393 33.822 53.3335C33.8877 53.0454 33.8972 52.7466 33.85 52.4546C33.8029 52.1627 33.7 51.8836 33.5475 51.634H33.5475ZM33.5475 51.634C33.1849 51.1279 32.6953 50.7364 32.1328 50.5029L32.1275 50.4975C32.0814 50.4737 32.0379 50.4447 31.998 50.4109C32.3988 51.5528 33.0057 52.6037 33.7858 53.5067C33.8013 53.4472 33.8117 53.393 33.822 53.3335C33.8877 53.0454 33.8972 52.7466 33.85 52.4546C33.8029 52.1627 33.7 51.8836 33.5475 51.634H33.5475ZM33.5475 51.634C33.1849 51.1279 32.6953 50.7364 32.1328 50.5029L32.1275 50.4975C32.0814 50.4737 32.0379 50.4447 31.998 50.4109C32.3988 51.5528 33.0057 52.6037 33.7858 53.5067C33.8013 53.4472 33.8117 53.393 33.822 53.3335C33.8877 53.0454 33.8972 52.7466 33.85 52.4546C33.8029 52.1627 33.7 51.8836 33.5475 51.634H33.5475ZM33.5475 51.634C33.1849 51.1279 32.6953 50.7364 32.1328 50.5029L32.1275 50.4975C32.0814 50.4737 32.0379 50.4447 31.998 50.4109C32.3988 51.5528 33.0057 52.6037 33.7858 53.5067C33.8013 53.4472 33.8117 53.393 33.822 53.3335C33.8877 53.0454 33.8972 52.7466 33.85 52.4546C33.8029 52.1627 33.7 51.8836 33.5475 51.634H33.5475Z" fill="black"/>
<path d="M14.1355 11.1626C14.3464 13.5921 14.7073 16.0048 15.2161 18.3857C15.4711 19.5511 15.8227 20.6913 16.2668 21.7932C16.6528 22.8567 17.2924 23.7997 18.1249 24.533C18.5173 24.8546 18.9891 25.0535 19.4854 25.1064C19.9817 25.1594 20.4822 25.0642 20.9288 24.8321C21.9619 24.3197 22.9549 23.7237 23.8989 23.0494C24.3688 22.7114 24.8185 22.3436 25.2452 21.948C25.6652 21.5749 26.0087 21.1171 26.2552 20.602C26.5112 20.0776 26.6697 19.5072 26.7224 18.9211C26.7682 18.3162 26.8129 17.6978 26.8689 17.0867C26.9224 17.7012 26.9753 18.3084 27.0097 18.9289C27.0373 19.5776 26.9371 20.2253 26.7152 20.8319C26.4934 21.4385 26.1547 21.9911 25.72 22.4554C25.3037 22.9125 24.8564 23.3375 24.3814 23.7272C23.4334 24.5049 22.4163 25.1858 21.344 25.7608C20.7362 26.0712 20.0607 26.2089 19.3857 26.1601C18.7003 26.1044 18.0456 25.8394 17.5032 25.3982C16.5318 24.5439 15.7938 23.4366 15.3643 22.1884C14.9321 21.0141 14.6178 19.7961 14.4266 18.554C14.0386 16.1121 13.9408 13.6295 14.1355 11.1626Z" fill="black"/>
<path d="M19.9782 45.9393C20.2283 45.9303 20.4652 45.8202 20.6391 45.6322C20.8129 45.4443 20.9101 45.1932 20.9101 44.9318C20.9101 44.6705 20.8129 44.4194 20.6391 44.2314C20.4652 44.0435 20.2283 43.9334 19.9782 43.9243C19.7281 43.9334 19.4912 44.0435 19.3174 44.2314C19.1435 44.4194 19.0464 44.6705 19.0464 44.9318C19.0464 45.1932 19.1435 45.4443 19.3174 45.6322C19.4912 45.8202 19.7281 45.9303 19.9782 45.9393Z" fill="black"/>
<path d="M26.8688 13.4626C26.8688 13.4626 27.6179 9.79419 29.1596 10.8094C29.4144 10.9895 29.624 11.231 29.7708 11.5134C29.9176 11.7958 29.9973 12.1109 30.0031 12.4322C30.0585 13.6684 30.0555 15.9428 29.2998 16.1181C29.2998 16.1181 30.9816 20.451 31.1452 9.17838C31.1523 8.74565 31.1271 8.31301 31.07 7.88437C30.8017 5.90913 29.7503 0.702831 26.1743 1.48912C26.1743 1.48912 20.6565 -2.74242 15.7174 3.06084C15.1666 3.68558 14.5825 4.27758 13.9682 4.83405C13.6127 5.14113 13.326 5.52587 13.1282 5.96117C12.9304 6.39648 12.8264 6.87177 12.8235 7.35359V7.39147C12.8235 8.75574 12.5059 10.0996 11.8982 11.3072L11.2415 12.612C11.2415 12.612 13.2479 13.9967 15.7174 8.46829C15.7174 8.46829 16.7593 5.47884 19.4989 6.92965C19.4989 6.92965 23.0488 4.14893 24.4379 6.80875C24.4379 6.80875 24.8338 7.40621 25.2881 8.12634C25.8685 9.05015 26.2177 10.1113 26.3036 11.2126L26.8688 13.4626Z" fill="black"/>
<path d="M29.9518 16.9351C29.8943 17.4139 29.9381 17.9 30.0801 18.3592C30.2064 18.8173 30.3652 19.265 30.5553 19.6985C30.739 20.1389 30.9506 20.5694 31.1597 21.0074C31.3723 21.4444 31.5963 21.8776 31.7876 22.3465C31.4251 22.0124 31.099 21.6375 30.8152 21.2286C30.6657 21.0297 30.5491 20.8073 30.4148 20.5962C30.2979 20.3739 30.1844 20.1488 30.0817 19.9173C29.8783 19.4471 29.7442 18.9475 29.684 18.4354C29.5975 17.9179 29.6926 17.3852 29.9518 16.9351Z" fill="black"/>
<path d="M14.1343 14.0863C14.4075 13.7533 14.7659 13.5086 15.1675 13.381C15.5665 13.2443 15.9855 13.1824 16.4051 13.1982C16.8194 13.2162 17.2289 13.2974 17.6208 13.4391C17.8129 13.5125 18.0013 13.5962 18.1851 13.6899C18.3636 13.7943 18.5361 13.9095 18.7018 14.0347C18.4941 14.0174 18.2987 13.9776 18.1042 13.9419L17.5246 13.8493C17.1477 13.7913 16.7681 13.7545 16.3875 13.7388C15.6216 13.6939 14.855 13.8122 14.1343 14.0863Z" fill="black"/>
<path d="M19.4989 13.9009C19.8708 13.6186 20.2854 13.4033 20.7253 13.2639C21.1685 13.1111 21.6323 13.0335 22.099 13.0342C22.579 13.0333 23.0528 13.1475 23.484 13.3679C23.9044 13.6015 24.2397 13.9732 24.4379 14.4255C24.1068 14.1364 23.7299 13.9098 23.3243 13.756C22.9251 13.6337 22.511 13.5728 22.095 13.5751C21.6667 13.5726 21.2389 13.6056 20.8157 13.6739C20.3842 13.7385 19.9497 13.8181 19.4989 13.9009Z" fill="black"/>
<path d="M16.4501 16.3893C16.6516 16.382 16.8425 16.2933 16.9825 16.1418C17.1226 15.9904 17.2009 15.788 17.2009 15.5775C17.2009 15.3669 17.1226 15.1645 16.9825 15.0131C16.8425 14.8616 16.6516 14.7729 16.4501 14.7656C16.2486 14.7729 16.0577 14.8616 15.9176 15.0131C15.7775 15.1645 15.6992 15.3669 15.6992 15.5775C15.6992 15.788 15.7775 15.9904 15.9176 16.1418C16.0577 16.2933 16.2486 16.382 16.4501 16.3893Z" fill="black"/>
<path d="M20.6175 16.3893C20.819 16.382 21.0099 16.2933 21.15 16.1418C21.2901 15.9904 21.3684 15.788 21.3684 15.5775C21.3684 15.3669 21.2901 15.1645 21.15 15.0131C21.0099 14.8616 20.819 14.7729 20.6175 14.7656C20.4161 14.7729 20.2251 14.8616 20.0851 15.0131C19.945 15.1645 19.8667 15.3669 19.8667 15.5775C19.8667 15.788 19.945 15.9904 20.0851 16.1418C20.2251 16.2933 20.4161 16.382 20.6175 16.3893Z" fill="black"/>
<path d="M16.6814 17.6899C16.7107 17.9103 16.789 18.1204 16.9099 18.3036C16.9629 18.3612 17.0272 18.4061 17.0985 18.4353C17.1697 18.4646 17.2461 18.4774 17.3225 18.4729C17.5288 18.4759 17.735 18.4643 17.9398 18.4383C18.1751 18.4075 18.4123 18.3954 18.6493 18.4021C18.4752 18.5961 18.2646 18.7504 18.0308 18.8555C17.7969 18.9605 17.5448 19.0141 17.2903 19.0128C17.1393 18.9985 16.9925 18.9537 16.8579 18.8809C16.7169 18.7933 16.6091 18.6578 16.5522 18.4971C16.5069 18.3621 16.495 18.2173 16.5176 18.0762C16.5402 17.9351 16.5965 17.8022 16.6814 17.6899Z" fill="black"/>
<path d="M16.6461 20.0479C16.8607 20.3941 17.1262 20.7028 17.4329 20.9626C17.708 21.1843 18.0519 21.292 18.3985 21.2648C18.7651 21.221 19.12 21.1027 19.4431 20.9166C19.609 20.8095 19.7929 20.7258 19.9637 20.6133C20.1359 20.5023 20.3088 20.3887 20.5013 20.2897C20.3853 20.473 20.2598 20.6496 20.1254 20.8185C19.9802 20.9808 19.8247 21.1327 19.6599 21.2732C19.3085 21.5704 18.8822 21.755 18.4325 21.8046C18.1958 21.8214 17.9586 21.7823 17.7384 21.6902C17.5182 21.5981 17.3207 21.4554 17.1605 21.2726C16.8664 20.9334 16.6859 20.5036 16.6461 20.0479Z" fill="black"/>
<path d="M20.6753 51.3613C20.9397 52.1276 21.1007 52.8825 21.2929 53.6236C21.3816 53.9958 21.4887 54.3572 21.6035 54.7136C21.7088 55.0807 21.8854 55.4212 22.1224 55.7138C21.7394 55.569 21.4236 55.2771 21.2395 54.8976C21.0412 54.5424 20.8907 54.1603 20.7923 53.7622C20.5896 52.9798 20.5497 52.1612 20.6753 51.3613Z" fill="black"/>
<path d="M18.3029 50.8965C18.7733 50.9331 19.2314 51.0706 19.6487 51.3003C20.0748 51.512 20.454 51.8141 20.762 52.1874C20.2914 52.1519 19.8331 52.0144 19.4162 51.7836C18.9907 51.5709 18.6117 51.2689 18.3029 50.8965Z" fill="black"/>
<path d="M18.7339 53.5365C19.1547 53.4459 19.5896 53.4557 20.0062 53.5651C20.4271 53.656 20.8225 53.8461 21.1623 54.1208C20.7417 54.2127 20.3065 54.2029 19.89 54.0922C19.4695 54.0003 19.0743 53.8103 18.7339 53.5365Z" fill="black"/>
<path d="M19.4196 55.7142C19.847 55.67 20.2785 55.7272 20.6818 55.8816C21.0912 56.0179 21.4653 56.2501 21.7756 56.5605C21.3481 56.6059 20.9164 56.5486 20.5133 56.3931C20.1044 56.2557 19.7305 56.0236 19.4196 55.7142Z" fill="black"/>
<path d="M12.5708 90.0245L13.8244 101.493C14.2382 105.315 14.6765 109.134 15.1391 112.95C15.5996 116.764 16.0603 120.579 16.6154 124.376C16.8934 126.274 17.1879 128.169 17.5342 130.048C17.7084 130.986 17.8977 131.922 18.1091 132.844C18.2816 133.739 18.5547 134.61 18.9227 135.439L18.9387 135.471C18.9798 135.552 18.9967 135.644 18.987 135.735C18.6193 139.26 18.2871 142.788 17.8882 146.309L16.7294 156.876C16.3402 160.398 15.9507 163.92 15.5972 167.446C15.2375 170.971 14.8584 174.494 14.5354 178.023L14.4611 177.859C15.8358 178.746 17.2909 179.488 18.8052 180.075C20.3084 180.683 21.8833 181.076 23.4872 181.243C25.0744 181.422 26.6798 181.225 28.1843 180.667C29.6777 180.108 30.9861 179.112 31.9545 177.8L31.8846 177.995C31.9821 174.957 32.0271 171.916 32.1965 168.879C32.2762 167.36 32.3657 165.841 32.4898 164.32C32.5504 163.56 32.6221 162.8 32.7126 162.036C32.7862 161.241 32.934 160.455 33.154 159.689C33.1866 159.587 33.2533 159.5 33.342 159.445C33.4307 159.39 33.5354 159.369 33.6372 159.388L33.6785 159.395C34.9646 159.62 36.2704 159.697 37.5725 159.625C38.8727 159.563 40.1598 159.326 41.4022 158.921C42.6284 158.519 43.7754 157.891 44.7886 157.065C45.7874 156.232 46.6209 155.204 47.2425 154.038L47.2248 154.547C44.0217 147.553 40.9035 140.518 37.7386 133.506C37.6867 133.39 37.6751 133.258 37.706 133.134C38.616 129.461 39.5297 125.779 40.3888 122.088C41.2584 118.398 42.0708 114.694 42.8623 110.986C43.662 107.28 44.4007 103.559 45.0491 99.8216C45.7568 96.0948 46.2647 92.3297 46.5702 88.5437C46.5712 88.5296 46.5774 88.5166 46.5875 88.5072C46.5976 88.4979 46.6108 88.4931 46.6243 88.4937C46.6377 88.4944 46.6504 88.5005 46.6597 88.5107C46.6689 88.521 46.6739 88.5346 46.6737 88.5487C46.4968 92.3538 46.1126 96.1454 45.5228 99.9048C44.9593 103.667 44.3052 107.414 43.5899 111.147C42.8747 114.88 42.095 118.598 41.2822 122.309C40.4613 126.018 39.6401 129.724 38.7172 133.412L38.6844 133.04C41.8487 140.053 45.0594 147.042 48.1853 154.074L48.1891 154.082C48.2238 154.162 48.2399 154.248 48.2362 154.335C48.2325 154.422 48.2089 154.507 48.1676 154.583C47.4691 155.868 46.537 156.998 45.4237 157.91C44.3085 158.805 43.0483 159.483 41.7033 159.912C40.3765 160.333 39.0033 160.574 37.6175 160.629C36.2356 160.695 34.8509 160.599 33.4896 160.342L34.0139 160.048C33.8151 160.737 33.6763 161.444 33.5992 162.159C33.5008 162.902 33.4194 163.651 33.3489 164.403C33.2052 165.907 33.0953 167.418 32.995 168.93C32.8988 170.443 32.8003 171.956 32.7316 173.47L32.506 178.015L32.5053 178.026C32.5021 178.093 32.4777 178.159 32.4358 178.211C31.3736 179.582 29.9613 180.611 28.3623 181.179C26.7806 181.733 25.0999 181.907 23.445 181.689C21.811 181.481 20.2084 181.06 18.6751 180.435C17.1404 179.827 15.6672 179.062 14.2771 178.151C14.2514 178.133 14.2308 178.109 14.2177 178.08C14.2046 178.051 14.1994 178.019 14.2028 177.987C14.5741 174.463 14.8893 170.933 15.224 167.405C15.565 163.878 15.8698 160.347 16.175 156.816L17.0995 146.224C17.395 142.692 17.7571 139.167 18.0838 135.638L18.1481 135.934C17.7208 135.026 17.4048 134.065 17.2076 133.074C16.9773 132.128 16.8091 131.175 16.6363 130.225C16.3027 128.322 16.0235 126.416 15.7606 124.508C15.2427 120.691 14.7873 116.868 14.3943 113.04C14.0078 109.211 13.65 105.38 13.3209 101.546C13.0114 97.7107 12.7045 93.8754 12.4674 90.0339C12.4665 90.0198 12.471 90.0059 12.4798 89.9951C12.4887 89.9844 12.5012 89.9777 12.5147 89.9765C12.5282 89.9752 12.5416 89.9796 12.5521 89.9885C12.5625 89.9975 12.5692 90.0104 12.5708 90.0244L12.5708 90.0245Z" fill="black"/>
<path d="M23.3865 91.6587C23.0673 96.3845 22.6825 101.102 22.2323 105.812C21.7963 110.524 21.3 115.228 20.7922 119.931C20.265 124.632 19.725 129.331 19.125 134.023C18.5396 138.717 17.8876 143.403 17.1689 148.081C17.4869 143.355 17.8711 138.637 18.3216 133.927C18.7578 129.215 19.254 124.511 19.7633 119.808C20.2916 115.107 20.8317 110.408 21.4319 105.716C22.0177 101.022 22.6693 96.3366 23.3865 91.6587Z" fill="black"/>
<path d="M32.4783 171.034C32.564 167.332 32.8001 163.635 33.1482 159.951C33.4806 156.264 33.9453 152.591 34.499 148.931C34.7777 147.101 35.1061 145.279 35.4368 143.457C35.8194 141.646 36.1539 139.825 36.6241 138.033C37.4344 134.415 38.6153 130.899 40.1463 127.546C39.8733 128.429 39.5922 129.305 39.303 130.174L38.6027 132.841C38.1767 134.629 37.7578 136.417 37.4118 138.224C36.6904 141.83 36.0604 145.456 35.5216 149.102C34.9502 152.742 34.4437 156.394 33.9481 160.05L32.4783 171.034Z" fill="black"/>
<path d="M18.5336 96.5171C19.2666 96.5682 19.9934 96.6917 20.7042 96.8859C21.4059 97.066 22.0976 97.2864 22.7761 97.546C23.4555 97.805 24.12 98.1046 24.7664 98.4434C25.431 98.7757 26.0582 99.1839 26.6367 99.6605C25.9089 99.5761 25.1885 99.4335 24.4816 99.234C23.7839 99.0462 23.0955 98.8218 22.4193 98.5618C21.7422 98.3025 21.0782 98.0072 20.4299 97.6771C19.7655 97.3511 19.1308 96.9629 18.5336 96.5171Z" fill="black"/>
<path d="M35.8975 141.944C36.756 143.214 37.5127 144.556 38.1597 145.956C38.8198 147.347 39.4071 148.774 39.9187 150.231C40.1739 150.96 40.4029 151.699 40.633 152.437C40.8304 153.186 41.0619 153.923 41.2192 154.684C41.5837 156.191 41.831 157.727 41.9589 159.276C41.4104 157.825 40.9484 156.369 40.4443 154.926C39.9491 153.481 39.4615 152.038 38.9463 150.604C38.4538 149.162 37.9295 147.732 37.4204 146.291C36.9054 144.852 36.3907 143.413 35.8975 141.944Z" fill="black"/>
<path d="M29.9531 180.095C29.1486 172.429 29.5331 164.68 30.1691 157.009C30.8371 149.324 31.9645 141.69 33.5446 134.152C34.3623 130.389 35.2852 126.655 36.3133 122.948C37.3434 119.256 38.3091 115.548 39.2938 111.844C40.2632 108.137 41.185 104.415 42.0152 100.671C42.9087 96.9419 43.5787 93.1579 44.0211 89.3413C43.9365 91.2663 43.7484 93.1847 43.4576 95.0876C43.1929 96.9954 42.8525 98.8892 42.5119 100.783C41.7801 104.56 40.9431 108.313 40.0653 112.054C39.2006 115.798 38.2045 119.508 37.2207 123.218C36.2296 126.914 35.341 130.637 34.5551 134.387C33.7398 138.128 33.0365 141.893 32.4452 145.682C32.1461 147.575 31.9033 149.478 31.6424 151.379C31.4178 153.284 31.1613 155.186 30.9585 157.094C30.5338 160.908 30.2132 164.736 30.0269 168.572C29.7881 172.408 29.7635 176.256 29.9531 180.095Z" fill="black"/>
<path d="M7.26661 90.0693C7.59276 91.9379 7.87187 93.8037 8.17359 95.6614C8.47254 97.5176 8.78326 99.3725 9.19101 101.175C9.29956 101.622 9.41153 102.069 9.55196 102.494C9.66697 102.899 9.82812 103.288 10.032 103.654C10.0707 103.72 10.1166 103.782 10.1688 103.838C10.2251 103.901 10.3367 103.996 10.4144 104.074L10.915 104.566C11.2177 104.885 11.5358 105.188 11.8681 105.473C11.9315 105.524 11.9992 105.57 12.0704 105.609C12.0886 105.618 12.1193 105.63 12.0951 105.624C12.0495 105.628 12.0054 105.643 11.9661 105.668C11.8615 105.758 11.9159 105.766 11.9183 105.683C11.9317 105.596 11.9369 105.508 11.9338 105.419C11.9196 104.974 11.8692 104.53 11.7832 104.093C11.6119 103.184 11.4169 102.263 11.2031 101.347L11.1973 101.322C11.1842 101.266 11.1902 101.206 11.2144 101.154C11.2385 101.102 11.2793 101.06 11.3297 101.036C11.3801 101.012 11.437 101.007 11.4906 101.021C11.5443 101.036 11.5913 101.07 11.6238 101.117C11.8582 101.507 12.2026 101.812 12.6097 101.99C12.7093 102.018 12.8147 102.017 12.9134 101.985C13.0122 101.953 13.1002 101.893 13.1672 101.811C13.2495 101.726 13.3216 101.63 13.3819 101.527L13.541 101.19L13.4487 101.559C13.406 101.683 13.3491 101.801 13.2793 101.91C13.2047 102.034 13.0985 102.133 12.9729 102.196C12.8472 102.26 12.707 102.285 12.5682 102.27C12.3007 102.234 12.0465 102.126 11.8298 101.958C11.6166 101.805 11.4201 101.627 11.2441 101.429L11.6646 101.199C11.9816 102.089 12.2905 102.984 12.5296 103.916C12.6623 104.396 12.7547 104.887 12.8058 105.384C12.8175 105.532 12.8146 105.68 12.7971 105.827C12.7882 105.951 12.7538 106.072 12.6961 106.181C12.6384 106.29 12.5587 106.385 12.4627 106.459C12.33 106.552 12.1703 106.593 12.0115 106.574C11.9549 106.571 11.8988 106.561 11.8448 106.543C11.7993 106.531 11.7547 106.515 11.7114 106.496C11.5772 106.436 11.4491 106.362 11.3294 106.275C10.9446 105.984 10.5789 105.667 10.2348 105.325L9.73972 104.854C9.65306 104.77 9.5855 104.719 9.48302 104.614C9.37265 104.506 9.27486 104.384 9.19166 104.252C8.71271 103.373 8.37931 102.415 8.20548 101.42C7.99636 100.481 7.84482 99.5379 7.72397 98.5933C7.59366 97.6503 7.50611 96.7039 7.43033 95.7579C7.27786 93.8662 7.22321 91.9672 7.26661 90.0693Z" fill="black"/>
<path d="M11.2101 101.41C10.9925 100.953 10.8023 100.482 10.6404 100C10.4788 99.5234 10.3433 99.0375 10.2345 98.5447C10.0071 97.5657 9.94287 96.5531 10.0448 95.5513C10.0293 96.5443 10.178 97.5328 10.4843 98.473C10.6313 98.941 10.8037 99.3998 11.0006 99.8474C11.1942 100.291 11.4137 100.722 11.6577 101.138L11.6623 101.145C11.6986 101.206 11.7103 101.28 11.6947 101.35C11.6791 101.42 11.6375 101.481 11.5791 101.519C11.5207 101.557 11.4502 101.569 11.3831 101.552C11.3161 101.536 11.258 101.493 11.2216 101.432C11.2176 101.425 11.2135 101.417 11.2101 101.41Z" fill="black"/>
<path d="M36.8524 90.918C37.4228 92.6204 38.139 94.2657 38.9923 95.8338C39.4255 96.5798 39.9288 97.2788 40.4948 97.9204C41.1012 98.5657 41.7661 99.1481 42.4801 99.6595C41.5645 99.5179 40.6978 99.1377 39.9599 98.5541C39.2174 97.9626 38.5886 97.23 38.1064 96.3948C37.6373 95.5679 37.2881 94.6731 37.0702 93.7394C36.839 92.8197 36.7652 91.8645 36.8524 90.918Z" fill="black"/>
<path d="M0.532959 201.25C0.790964 200.617 1.1561 200.038 1.61086 199.54C1.79571 199.336 2.04731 199.213 2.31554 199.194C2.56539 199.207 2.8041 199.306 2.99442 199.475C3.44535 199.935 3.84197 200.449 4.17581 201.007C4.5594 201.581 4.95312 202.165 5.39363 202.739C5.85475 203.344 6.423 203.851 7.06743 204.233C7.73483 204.589 8.47935 204.759 9.2283 204.725C9.47431 204.725 9.72009 204.709 9.9641 204.676C6.43004 205.402 2.4036 205.164 0.532959 201.25Z" fill="black"/>
<path d="M29.967 188.831C29.5162 188.381 29.0446 187.51 28.7234 185.865C27.9098 181.751 25.3654 184.533 25.3654 184.533C21.3585 188.292 20.5556 184.883 18.4163 183.445C17.7931 183.027 14.8303 182.964 13.9027 185.139C13.5524 185.844 13.0857 186.478 12.5242 187.012C13.0921 186.962 13.6639 187.006 14.2187 187.142C14.7715 187.274 15.3073 187.474 15.8149 187.737C16.3363 188.007 16.811 188.365 17.2192 188.798C17.6635 189.23 17.9278 189.827 17.9552 190.46C17.5955 190.053 17.1712 189.714 16.701 189.458C16.2605 189.193 15.8098 188.944 15.3435 188.701C14.8769 188.457 14.4106 188.203 13.9339 187.938C13.4447 187.662 12.9737 187.353 12.5242 187.012H12.5192C11.6808 187.855 10.7817 188.629 9.82974 189.329C10.3744 189.203 10.9389 189.205 11.4828 189.334C12.0301 189.457 12.5539 189.674 13.0323 189.978C13.5188 190.282 13.9445 190.68 14.2863 191.152C14.6325 191.619 14.859 192.171 14.9444 192.754C14.4832 192.403 14.1203 192.045 13.7059 191.753C13.3159 191.448 12.9112 191.165 12.4934 190.904C11.6642 190.362 10.7935 189.913 9.82972 189.329H9.82444C9.10432 189.87 8.58082 190.216 8.58082 190.216C7.97456 190.53 7.41485 190.839 6.89158 191.147C7.46817 191.158 8.03841 191.275 8.57574 191.493C9.11831 191.697 9.62971 191.981 10.0939 192.338C10.5782 192.69 10.9948 193.135 11.3221 193.648C11.6702 194.164 11.8451 194.786 11.8196 195.417C11.4897 194.974 11.1163 194.567 10.7055 194.205C10.3219 193.848 9.90239 193.534 9.48261 193.209C8.64813 192.56 7.76202 191.964 6.8916 191.147H6.8863C-1.50842 196.072 0.128942 200.25 0.128942 200.25C0.241999 200.593 0.377087 200.928 0.533282 201.252C0.600278 200.516 0.84055 199.81 1.23265 199.195C1.46918 198.837 1.82645 198.586 2.23287 198.491C2.34206 198.469 2.45339 198.46 2.56459 198.464L2.88594 198.524C3.08424 198.591 3.27523 198.68 3.45576 198.789L3.91197 199.152C4.04658 199.287 4.16576 199.428 4.29531 199.569C4.54935 199.85 4.74115 200.121 4.96379 200.402C5.38354 200.965 5.77218 201.533 6.19198 202.047C6.54136 202.572 6.99847 203.01 7.53002 203.327C8.06158 203.644 8.6542 203.834 9.26476 203.882C10.5917 203.952 11.922 203.877 13.2343 203.66H13.2396C15.0965 202.806 16.7918 201.61 18.2452 200.131C22.0229 196.354 26.775 195.758 29.6872 193.48C29.7494 193.431 29.8064 193.382 29.8686 193.334C30.1868 193.063 30.4451 192.724 30.6256 192.34C30.806 191.955 30.9043 191.534 30.9136 191.106C30.923 190.678 30.8432 190.252 30.6798 189.86C30.5163 189.467 30.2731 189.116 29.967 188.831ZM24.1529 190.389C23.2711 191.394 22.2798 192.288 21.1991 193.052C20.6533 193.451 20.0699 193.79 19.458 194.064C19.8083 193.473 20.2145 192.92 20.6705 192.414C21.1127 191.912 21.5816 191.437 22.0748 190.99C22.5665 190.544 23.084 190.13 23.6244 189.751C24.1689 189.35 24.7525 189.011 25.3655 188.739C25.0149 189.33 24.6087 189.883 24.1529 190.389Z" fill="black"/>
<path d="M17.9552 179.936C18.0287 180.702 18.0047 181.475 17.884 182.235C17.7852 182.998 17.589 183.744 17.3006 184.453C17.2261 183.687 17.2501 182.914 17.372 182.154C17.4719 181.391 17.668 180.645 17.9552 179.936Z" fill="black"/>
<path d="M27.0302 185.706C26.997 184.909 27.0615 184.112 27.222 183.333C27.3605 182.549 27.5956 181.787 27.9215 181.066C27.9558 181.863 27.8913 182.66 27.7297 183.439C27.59 184.223 27.3549 184.984 27.0302 185.706Z" fill="black"/>
<path d="M40.4081 163.554C39.971 162.842 39.6014 162.088 39.3044 161.302C39.2578 161.172 39.206 161.037 39.1541 160.902C39.0505 160.61 38.9469 160.317 38.8535 160.02C39.0142 159.998 39.1749 159.976 39.3355 159.949C39.4392 160.198 39.5376 160.453 39.6361 160.707C39.6931 160.864 39.7501 161.021 39.8019 161.178C40.0783 161.947 40.2814 162.743 40.4081 163.554Z" fill="black"/>
<path d="M46.6692 155.885C47.1252 156.4 47.5073 156.981 47.8034 157.61C48.119 158.229 48.3457 158.894 48.4764 159.582C48.0195 159.068 47.6373 158.486 47.3421 157.856C47.0276 157.237 46.801 156.572 46.6692 155.885Z" fill="black"/>
<path d="M15.9866 47.834C17.7105 48.026 19.4052 48.3019 21.105 48.4898C21.9488 48.5966 22.7975 48.6559 23.6474 48.6675C24.0658 48.6745 24.4838 48.6365 24.8948 48.5542C25.0974 48.5172 25.2924 48.4438 25.4711 48.3374C25.6475 48.2199 25.7791 48.0419 25.8434 47.834C25.8365 47.9516 25.8074 48.0666 25.7579 48.1725C25.7083 48.2784 25.6393 48.3731 25.5547 48.4511C25.3807 48.6045 25.1826 48.7252 24.9691 48.8079C24.5489 48.9617 24.1109 49.0563 23.6667 49.0893C22.7944 49.1567 21.9179 49.136 21.0494 49.0276C19.324 48.8311 17.6255 48.4306 15.9866 47.834Z" fill="black"/>
</svg>
