<svg width="157" height="133" viewBox="0 0 157 133" fill="none" xmlns="http://www.w3.org/2000/svg">
<path d="M145.426 125.226C143.778 122.337 142.833 119.083 142.67 115.739C139.067 51.5654 121.327 50.2095 121.327 50.2095C119.07 58.0977 114.892 55.7248 114.892 55.7248L100.839 72.4403L106.681 86.6547L106.695 86.6822C108.274 88.0885 109.803 88.2305 111.261 87.4701H111.266C113.143 86.499 114.9 84.0345 116.492 80.8416C115.828 77.2044 113.915 65.3583 116.368 60.9378C116.368 60.9378 121.518 54.3048 124.841 57.4152C125.098 57.7053 125.374 57.9777 125.666 58.2305C129.827 61.8036 130.005 72.1747 129.532 83.9474L129.987 93.3015C129.987 93.3015 130.558 99.8705 130.79 108.281C131.022 116.691 132.462 118.428 133.573 119.664C133.573 119.664 138.304 124.493 141.207 126.096C144.11 127.695 145.35 129.197 144.106 129.733C144.106 129.733 143.995 130.668 143.281 130.406C143.281 130.406 142.67 132.349 141.43 131.515C141.421 131.571 141.408 131.626 141.39 131.68C142.013 131.868 142.646 132.019 143.285 132.133C146.642 132.649 150.07 132.342 153.288 131.236C149.631 130.901 147.085 128.089 145.426 125.226ZM104.224 75.3767C103.827 75.3164 103.443 75.1829 103.092 74.9827C102.745 74.792 102.42 74.5615 102.124 74.2956C101.826 74.0337 101.567 73.7298 101.352 73.3931C102.026 73.7963 102.646 74.2314 103.301 74.5796C103.932 74.9724 104.655 75.1829 105.393 75.1888C105.034 75.3814 104.623 75.4474 104.224 75.3767ZM115.244 76.2883C114.935 76.5597 114.548 76.7191 114.142 76.7418C113.743 76.7746 113.341 76.7327 112.956 76.6181C112.575 76.5156 112.208 76.3648 111.863 76.1692C111.517 75.9837 111.197 75.7494 110.914 75.4729C111.658 75.7111 112.354 75.9905 113.068 76.1783C113.77 76.4164 114.522 76.4544 115.244 76.2883Z" fill="black"/>
<path d="M83.6217 35.7675V35.8271L83.6307 35.763C83.6262 35.7675 83.6262 35.7675 83.6217 35.7675ZM86.8862 29.0062C82.7031 27.9938 81.3964 32.0158 81.3964 32.0158L81.392 32.0204C82.4132 32.4373 83.4255 32.8129 84.0543 33.0374C84.0543 33.0374 85.0979 31.1042 86.3109 32.7121L85.2228 39.7391C85.2228 39.7391 83.5192 39.7116 83.1803 38.6718L82.8012 38.1404C82.5604 38.9558 82.6273 39.7025 82.003 39.5742C81.9 40.016 81.7458 40.4436 81.5436 40.8477C81.6551 42.3181 85.1871 42.7808 85.1871 42.7808C85.1819 42.8234 85.1789 42.8662 85.1781 42.9091C85.1781 43.7428 86.4268 44.5032 87.2474 44.6361L93.9724 45.7355C94.1772 45.7697 94.3865 45.7619 94.5884 45.7126C94.7902 45.6633 94.9805 45.5735 95.1484 45.4483C95.3163 45.3231 95.4584 45.1651 95.5666 44.9832C95.6747 44.8013 95.7467 44.5993 95.7785 44.3887L97.8834 30.8019L86.8862 29.0062ZM94.4183 32.2586C93.6372 32.3138 92.8524 32.2583 92.086 32.0937C91.3277 31.9183 90.5893 31.6619 89.883 31.3287C89.1794 30.9997 88.5137 30.591 87.8985 30.1102C88.5986 30.4446 89.3076 30.7286 90.0167 30.9989C90.7231 31.2628 91.4456 31.4786 92.1796 31.6448C92.9099 31.8052 93.6538 31.8911 94.4005 31.9013C95.1564 31.8832 95.9065 31.7599 96.6302 31.5348C95.9513 31.9347 95.1973 32.1815 94.4183 32.2586H94.4183Z" fill="black"/>
<path d="M109.179 49.1678C108.542 51.305 108.046 53.484 107.695 55.6899C107.525 56.7866 107.427 57.8938 107.402 59.004C107.354 60.095 107.506 61.1856 107.848 62.2195C108.02 62.7106 108.311 63.1484 108.694 63.4911C108.867 63.6561 109.073 63.778 109.299 63.8476C109.524 63.9171 109.762 63.9323 109.994 63.892C110.473 63.7494 110.901 63.4674 111.227 63.0799C111.587 62.6823 111.907 62.2481 112.182 61.784C113.278 59.866 114.145 57.819 114.762 55.6874L114.764 55.6831C114.775 55.6475 114.799 55.6179 114.831 55.6007C114.864 55.5836 114.901 55.5803 114.936 55.5916L114.946 55.5955C115.485 55.8418 116.072 55.9571 116.662 55.9325C117.251 55.8854 117.816 55.6702 118.292 55.3113C119.234 54.5398 119.967 53.5324 120.421 52.386C120.915 51.2531 121.302 50.0736 121.576 48.8641C121.858 47.6577 122.067 46.4346 122.202 45.2017L122.316 45.3812C121.576 45.0961 120.943 44.5776 120.507 43.9001C120.065 43.2613 119.695 42.5729 119.404 41.8483C118.821 40.4139 118.39 38.9189 118.12 37.3894L118.618 37.4636C118.176 38.3696 117.676 39.2445 117.121 40.0824C116.571 40.9284 115.948 41.722 115.26 42.4539C114.563 43.2106 113.73 43.822 112.808 44.2544C112.325 44.4643 111.809 44.5805 111.286 44.5972C110.757 44.6067 110.232 44.5026 109.745 44.2914C109.683 44.2652 109.633 44.2172 109.603 44.1561L109.598 44.1477C109.401 43.7413 109.146 43.3679 108.84 43.0401C108.725 42.8889 108.572 42.7728 108.397 42.7044C108.222 42.6359 108.033 42.6177 107.849 42.6518C107.477 42.8146 107.18 43.1172 107.018 43.4978C106.839 43.9134 106.744 44.3623 106.74 44.817C106.641 45.7502 106.761 46.6941 107.089 47.5702C107.258 47.9847 107.543 48.3389 107.907 48.5884C108.287 48.8206 108.717 48.9537 109.159 48.9763L109.167 48.9771C109.205 48.9804 109.242 48.9964 109.27 49.0227C109.299 49.049 109.319 49.084 109.327 49.1227C109.447 49.7023 109.616 50.2699 109.834 50.8187C110.051 51.3706 110.314 51.9018 110.622 52.4063C110.937 52.9059 111.315 53.3615 111.744 53.7619C112.186 54.1514 112.69 54.4601 113.235 54.6745C113.238 54.6757 113.241 54.6775 113.244 54.68C113.247 54.6825 113.249 54.6855 113.251 54.6889C113.253 54.6922 113.254 54.6959 113.254 54.6997C113.254 54.7035 113.254 54.7073 113.253 54.711C113.25 54.7181 113.245 54.7239 113.238 54.7274C113.232 54.7308 113.224 54.7316 113.217 54.7295C112.652 54.5385 112.123 54.2491 111.653 53.8741C111.192 53.4845 110.782 53.0352 110.433 52.5376C110.093 52.0344 109.801 51.4982 109.562 50.9367C109.317 50.3747 109.122 49.7914 108.979 49.1937L109.147 49.34C108.637 49.3312 108.138 49.1931 107.693 48.938C107.251 48.6586 106.902 48.2487 106.692 47.7621C106.312 46.8213 106.158 45.8005 106.243 44.7859C106.247 43.8239 106.561 42.5804 107.681 42.1072C107.971 42.0073 108.286 42.0223 108.566 42.1493C108.816 42.2634 109.044 42.424 109.237 42.6231C109.593 42.9968 109.889 43.4248 110.116 43.892L109.97 43.7484C110.386 43.9222 110.832 44.0073 111.28 43.9986C111.729 43.99 112.171 43.8876 112.58 43.6979C113.428 43.2897 114.194 42.7215 114.838 42.0227C115.509 41.3242 116.119 40.5655 116.659 39.7556C117.207 38.9471 117.703 38.1023 118.143 37.2266L118.145 37.2223C118.17 37.1716 118.21 37.1303 118.26 37.1044C118.309 37.0785 118.365 37.0692 118.42 37.0779C118.475 37.0866 118.526 37.1128 118.566 37.1528C118.605 37.1928 118.631 37.2446 118.641 37.3008C118.763 38.0395 118.935 38.7851 119.123 39.5168C119.311 40.2493 119.541 40.9698 119.812 41.6747C120.073 42.3766 120.412 43.0458 120.82 43.6693C121.197 44.2931 121.755 44.7793 122.416 45.0587L122.422 45.061C122.458 45.0731 122.488 45.0975 122.507 45.1299C122.527 45.1622 122.535 45.2006 122.53 45.2384C122.363 46.4812 122.12 47.712 121.803 48.9235C121.499 50.1384 121.092 51.3238 120.587 52.4659C120.106 53.6341 119.358 54.6663 118.407 55.4754C117.904 55.8636 117.306 56.1 116.679 56.1583C116.052 56.1981 115.425 56.0945 114.842 55.8549L115.025 55.7631C114.734 56.8514 114.392 57.9209 113.998 58.9714C113.614 60.0343 113.141 61.0605 112.582 62.0382C112.295 62.5344 111.959 62.9992 111.579 63.4254C111.19 63.8917 110.675 64.2298 110.1 64.3976C109.793 64.4554 109.478 64.4386 109.178 64.3483C108.879 64.258 108.605 64.0968 108.378 63.8777C107.937 63.4766 107.604 62.9664 107.409 62.3957C107.057 61.3003 106.908 60.1465 106.972 58.9947C107.016 57.8649 107.144 56.7403 107.356 55.6308C107.765 53.4222 108.358 51.2536 109.126 49.1486C109.129 49.1414 109.134 49.1355 109.141 49.1323C109.148 49.1291 109.155 49.1288 109.162 49.1315C109.169 49.1343 109.175 49.1396 109.178 49.1463C109.181 49.153 109.182 49.1607 109.179 49.1678Z" fill="black"/>
<path d="M106.633 43.6022C108.209 40.4992 109.856 44.0186 109.856 44.0186C114.303 45.965 118.379 37.3437 118.379 37.3437C118.379 37.3437 119.496 44.2808 122.365 45.2187C122.646 43.9216 122.769 42.5936 122.732 41.2653C122.699 39.7298 122.247 38.2347 121.427 36.9506C120.607 35.6664 119.452 34.6451 118.094 34.0032C116.075 33.0901 113.819 32.8901 111.678 33.4343C105.046 34.9771 106.633 43.6022 106.633 43.6022Z" fill="black"/>
<path d="M107.212 48.2717C106.241 48.0731 105.242 48.0712 104.27 48.266C103.289 48.4162 102.316 48.625 101.349 48.8585C99.414 49.3304 97.5053 49.917 95.5989 50.5073C93.693 51.1021 91.8087 51.7697 89.9186 52.4188C88.0298 53.0707 86.147 53.75 84.2671 54.4244L84.429 54.1164L85.5085 59.7295C85.897 61.5941 86.2559 63.4653 86.6688 65.3244L86.5055 65.2375L88.2782 64.4777L90.0651 63.7515L91.8644 63.0547C92.4716 62.8427 93.073 62.6122 93.6858 62.4152C94.904 61.9979 96.1424 61.6403 97.401 61.3425C98.0295 61.1931 98.6674 61.0785 99.3097 60.9801C99.9674 60.8744 100.633 60.8306 101.299 60.8494C101.34 60.8515 101.38 60.8619 101.417 60.88C101.454 60.8981 101.488 60.9236 101.515 60.955C101.543 60.9863 101.564 61.023 101.578 61.0628C101.592 61.1026 101.598 61.1449 101.596 61.1871C101.595 61.201 101.594 61.2148 101.591 61.2285L101.586 61.256C101.242 63.1423 100.916 65.0346 100.748 66.9307C100.654 67.8692 100.631 68.8138 100.678 69.756C100.705 70.6689 100.906 71.5674 101.271 72.4003C101.709 73.2227 102.221 74.0013 102.8 74.726C103.357 75.5293 103.846 76.3812 104.26 77.2717C105.073 79.0291 105.767 80.8417 106.339 82.6968L106.291 82.6027C106.582 82.9655 106.936 83.2701 107.334 83.501C107.758 83.7351 108.2 83.9314 108.656 84.0878C109.592 84.3998 110.553 84.6266 111.528 84.7658C113.5 85.0462 115.487 85.2018 117.478 85.2319C117.488 85.232 117.497 85.2361 117.504 85.2432C117.511 85.2504 117.515 85.26 117.515 85.2701C117.515 85.2802 117.511 85.2899 117.505 85.2972C117.498 85.3045 117.488 85.3087 117.479 85.3091C115.477 85.4168 113.471 85.3744 111.476 85.1822C110.467 85.082 109.469 84.8908 108.493 84.6108C107.455 84.3609 106.515 83.7955 105.794 82.9885C105.776 82.9667 105.763 82.9419 105.753 82.9152L105.746 82.8941C105.136 81.09 104.413 79.3283 103.581 77.6203C103.177 76.7752 102.702 75.968 102.161 75.2077C101.541 74.45 101 73.6274 100.546 72.7536C100.136 71.8256 99.912 70.822 99.8887 69.803C99.8525 68.8196 99.8901 67.8348 100.001 66.8573C100.204 64.9174 100.552 63.0129 100.936 61.12L101.224 61.5265C100.61 61.4991 99.996 61.526 99.3872 61.607C98.7626 61.6864 98.1369 61.7818 97.5159 61.9127C96.2721 62.1614 95.0325 62.4631 93.8096 62.8309C93.1948 63.0024 92.5907 63.2132 91.9803 63.4026L90.1677 64.0347C89.5682 64.2596 88.9708 64.4908 88.3755 64.7282L86.5986 65.4638L86.5957 65.465C86.5665 65.4771 86.5338 65.4768 86.5048 65.4641C86.4759 65.4515 86.453 65.4275 86.4412 65.3975L86.4351 65.3769C86.0552 63.5104 85.6213 61.6559 85.2171 59.7949L83.9182 54.231C83.9039 54.1701 83.9114 54.1059 83.9393 54.0501C83.9672 53.9944 84.0135 53.9507 84.0701 53.927L84.0801 53.9229C85.9355 53.1469 87.8145 52.4486 89.7041 51.7733C91.5932 51.0981 93.5074 50.4977 95.4277 49.9188C97.3476 49.3379 99.2919 48.8339 101.26 48.4364C102.244 48.2263 103.238 48.0753 104.239 47.9844C105.242 47.8404 106.264 47.9136 107.238 48.1994C107.247 48.2027 107.255 48.2095 107.259 48.2184C107.263 48.2272 107.264 48.2374 107.261 48.2469C107.259 48.2564 107.252 48.2644 107.244 48.2692C107.235 48.2741 107.226 48.2754 107.216 48.2729L107.212 48.2717Z" fill="black"/>
<path d="M129.552 84.5772C129.505 84.5771 129.458 84.5582 129.424 84.5244C129.389 84.4905 129.368 84.4443 129.365 84.3952C129.362 84.346 129.378 84.2976 129.409 84.2599C129.439 84.2221 129.483 84.1979 129.531 84.1921C132.4 83.8463 134.617 83.4987 135.383 83.3743C134.375 81.4673 133.822 73.7465 133.797 73.3998C132.485 54.6849 121.375 50.432 121.263 50.3913C121.24 50.3828 121.219 50.3698 121.2 50.3528C121.182 50.3359 121.167 50.3154 121.156 50.2925C121.135 50.2463 121.132 50.1932 121.149 50.1449C121.165 50.0966 121.2 50.0571 121.245 50.035C121.29 50.0129 121.342 50.0101 121.389 50.0271C121.503 50.0687 132.841 54.3906 134.172 73.372C134.345 75.8342 134.983 82.4335 135.841 83.3859C135.864 83.4115 135.88 83.443 135.887 83.4771C135.894 83.5112 135.892 83.5466 135.881 83.5796C135.87 83.6126 135.851 83.6419 135.825 83.6644C135.799 83.6869 135.767 83.7019 135.734 83.7076C135.709 83.7116 133.144 84.1451 129.575 84.5759C129.567 84.5768 129.56 84.5772 129.552 84.5772Z" fill="black"/>
<path d="M84.29 54.7148C83.1336 55.0137 81.9729 55.291 80.8137 55.5758C80.7765 55.5849 80.7372 55.5785 80.7046 55.5579C80.6719 55.5373 80.6486 55.5043 80.6397 55.466L80.6389 55.4625L80.637 55.4532C80.203 53.3155 79.8059 51.1711 79.3885 49.0303L78.2136 42.5937C78.2031 42.536 78.2088 42.4764 78.2303 42.422C78.2517 42.3675 78.2878 42.3205 78.3344 42.2865C78.381 42.2526 78.4362 42.233 78.4933 42.2302C78.5504 42.2274 78.607 42.2414 78.6566 42.2706L78.8119 42.3625C78.8221 42.3681 78.8299 42.3775 78.8335 42.3888C78.8376 42.39 78.8259 42.3735 78.8166 42.3821C78.7917 42.3648 78.7883 42.3832 78.8251 42.362C78.9314 42.2967 79.0254 42.2123 79.1027 42.1128C79.3026 41.8687 79.48 41.606 79.6326 41.3282L79.6367 41.3212C79.6825 41.2418 79.7572 41.1845 79.8442 41.1617C79.9312 41.1389 80.0235 41.1526 80.1007 41.1997L80.1332 41.2222C80.1975 41.2866 80.2756 41.3347 80.3612 41.3626C80.4467 41.3906 80.5375 41.3977 80.6262 41.3833C80.8197 41.3062 80.9822 41.1644 81.0876 40.9809C81.3696 40.527 81.5754 40.0278 81.6965 39.504L81.7006 39.4879C81.7209 39.408 81.7705 39.3394 81.8391 39.2964C81.9077 39.2534 81.9898 39.2395 82.0682 39.2574C82.1331 39.2761 82.201 39.281 82.2677 39.2719C82.2594 39.2829 82.2863 39.2672 82.3256 39.1636C82.3964 38.9675 82.4547 38.688 82.5367 38.4335L82.5249 38.4996C82.5688 38.017 82.6299 37.546 82.6652 37.0824C82.6843 36.856 82.6907 36.6287 82.6845 36.4015C82.6843 36.2027 82.6459 36.0058 82.5717 35.8221L82.5654 35.809C82.5461 35.7685 82.5372 35.7235 82.5396 35.6784C82.5466 35.6071 82.58 35.5412 82.633 35.4945C82.6684 35.4638 82.7109 35.443 82.7565 35.4341L82.7911 35.43C82.8079 35.4282 82.8248 35.4276 82.8417 35.4283L82.9077 35.4311L83.0217 35.4412L83.2372 35.4667L83.4488 35.4951L83.5537 35.5098L83.6054 35.517L83.6298 35.5203L83.6413 35.5219C83.6413 35.5219 83.6461 35.5224 83.6412 35.522C83.5877 35.5173 83.5344 35.5337 83.4923 35.5679L83.6011 35.5239C83.7206 35.4992 83.8454 35.4841 83.9621 35.454C84.0744 35.422 84.1825 35.3763 84.2842 35.318C84.383 35.2676 84.4711 35.1976 84.5436 35.1121C84.616 35.0266 84.6712 34.9273 84.7062 34.8198C84.8201 34.325 84.761 33.8049 84.5393 33.3504L84.6379 33.4387C83.8949 33.1618 83.1622 32.8527 82.421 32.5703C81.6806 32.2854 80.9423 31.9943 80.22 31.6589C79.8579 31.4938 79.4978 31.3234 79.1433 31.1378C78.7789 30.9603 78.4313 30.7486 78.1047 30.5055C78.0173 30.4359 77.9395 30.3545 77.8734 30.2634C77.8204 30.1855 77.7623 30.1114 77.6994 30.0416C77.5737 29.901 77.4281 29.7807 77.2676 29.6846C76.9438 29.4912 76.5818 29.3751 76.2084 29.345L76.2441 29.3415C75.7813 29.5346 75.4025 29.8936 75.1779 30.3519C74.9463 30.8256 74.7949 31.3364 74.7303 31.8623L74.4792 33.4807C74.4001 34.0427 74.2336 34.588 73.9861 35.0957C73.4651 36.0182 73.1056 37.0273 72.9238 38.0773C72.8483 38.5821 72.8674 39.0971 72.9799 39.5947C73.0415 39.8398 73.1247 40.0787 73.2285 40.3083C73.3399 40.5584 73.4514 40.8083 73.5568 41.0655C73.8109 41.5965 73.9589 42.1743 73.9921 42.765C73.9645 43.3285 73.8932 43.8888 73.779 44.4407L73.2232 47.6693L72.1018 54.1254C71.9159 55.1922 71.7061 56.295 71.54 57.3321C71.3982 58.3742 71.4158 59.4327 71.592 60.4693C71.943 62.5661 72.9531 64.4872 74.4678 65.9383C74.7962 66.3056 75.2223 66.5659 75.6932 66.6869C76.1853 66.826 76.6905 66.9104 77.2001 66.9387C77.7139 66.9644 78.2289 66.9343 78.7365 66.8488C79.2512 66.7509 79.76 66.6221 80.26 66.4629C82.3059 65.866 84.3649 65.314 86.4173 64.7394C86.4268 64.7367 86.4369 64.738 86.4455 64.7429C86.454 64.7477 86.4604 64.7559 86.4632 64.7655C86.4661 64.7752 86.4651 64.7856 86.4606 64.7945C86.456 64.8034 86.4483 64.8102 86.4389 64.8133C84.4184 65.497 82.4045 66.2033 80.3773 66.8646C79.868 67.0492 79.3484 67.2029 78.8215 67.3247C78.2825 67.4379 77.7335 67.4922 77.1835 67.4867C76.6293 67.4808 76.0779 67.4066 75.5409 67.2657C75.2563 67.1968 74.9821 67.0884 74.7259 66.9437C74.4769 66.7914 74.2463 66.6094 74.0389 66.4014C72.3792 64.8869 71.2548 62.8501 70.8416 60.6096C70.6392 59.4925 70.608 58.3498 70.7491 57.2228C70.8253 56.6512 70.9285 56.1287 71.0238 55.5891L71.3132 53.9794L72.4981 47.5448L73.0956 44.3281C73.2075 43.8124 73.2844 43.2895 73.3257 42.7629C73.3031 42.2597 73.184 41.7661 72.975 41.3104C72.8798 41.0618 72.7755 40.8125 72.6714 40.5633C72.5575 40.2945 72.4679 40.0155 72.4036 39.7299C72.2853 39.1578 72.2775 38.5674 72.3807 37.9922C72.6071 36.8931 73.0195 35.8434 73.5993 34.8908C73.8461 34.4288 74.0164 33.9279 74.1032 33.4086L74.4031 31.7996C74.4901 31.2423 74.6688 30.7042 74.9314 30.2085C75.1974 29.6849 75.6437 29.2818 76.1833 29.0779C76.1936 29.0744 76.2046 29.0731 76.2155 29.074L76.2191 29.0744C76.6355 29.1103 77.0383 29.2438 77.3967 29.4645C77.5763 29.5751 77.7389 29.7127 77.8788 29.8727C77.9492 29.9525 78.014 30.0372 78.0728 30.1262C78.1249 30.1976 78.1859 30.2618 78.2541 30.317C78.8978 30.768 79.5905 31.1402 80.3181 31.4262C81.0395 31.7478 81.7796 32.0262 82.5215 32.2985C83.262 32.5744 83.999 32.8581 84.7517 33.1001C84.7726 33.1068 84.792 33.1178 84.8086 33.1324C84.8253 33.147 84.8389 33.1649 84.8487 33.1851L84.8504 33.1886C84.9792 33.4547 85.0718 33.7377 85.1256 34.0298C85.188 34.3351 85.1781 34.6514 85.0969 34.952C85.0034 35.2718 84.7939 35.5425 84.5117 35.7082C84.3804 35.791 84.2399 35.8572 84.0931 35.9053C83.9501 35.949 83.8054 35.9731 83.6607 36.0066L83.7693 35.9626C83.7196 35.9966 83.6602 36.0124 83.6007 36.0072L83.5941 36.0066L83.5793 36.0052L83.5512 36.0025L83.4981 35.9971L83.3932 35.9866L83.1852 35.9667L82.9805 35.9503L82.8839 35.9455L82.8444 35.9452C82.8369 35.9451 82.8325 35.9457 82.8423 35.9453L82.8506 35.9435C82.8917 35.935 82.9301 35.9159 82.9621 35.888C82.9868 35.8658 83.0069 35.8385 83.021 35.808C83.035 35.7775 83.0428 35.7444 83.0439 35.7106L83.0117 35.567C83.1336 35.8163 83.2028 36.0893 83.2147 36.3679C83.2309 36.6167 83.2332 36.8662 83.2215 37.1152C83.2019 37.6026 83.1576 38.0785 83.1323 38.5458C83.1313 38.5646 83.1283 38.5833 83.1234 38.6015L83.1205 38.6121C83.0524 38.8585 83.0092 39.0948 82.9091 39.3928C82.8785 39.4816 82.8363 39.5658 82.7836 39.643C82.7122 39.7465 82.613 39.8266 82.4982 39.8733C82.3189 39.9351 82.1262 39.9428 81.9428 39.8956L82.3144 39.6491C82.2447 39.9478 82.1546 40.2411 82.0448 40.5269C81.9347 40.8211 81.7937 41.1021 81.6242 41.3648C81.4355 41.682 81.1446 41.9212 80.802 42.0409C80.604 42.0962 80.3948 42.0925 80.1988 42.0301C80.0264 41.9721 79.8649 41.8841 79.7214 41.7701L80.2219 41.6641C80.0459 41.9886 79.8361 42.2925 79.5961 42.5704C79.459 42.7376 79.2907 42.875 79.1013 42.9748C78.9523 43.0491 78.7823 43.0662 78.6221 43.0231C78.5386 42.9889 78.461 42.9411 78.3923 42.8817C78.3431 42.8263 78.2973 42.768 78.2551 42.7071L78.8533 42.4759L79.9283 48.9308C80.2608 51.0872 80.6136 53.2399 80.9296 55.3993L80.753 55.2769C81.9265 55.0621 83.0984 54.8399 84.2746 54.6392C84.2842 54.6377 84.294 54.6399 84.3019 54.6456C84.3099 54.6512 84.3154 54.6598 84.3174 54.6695C84.3193 54.6792 84.3176 54.6894 84.3125 54.6978C84.3074 54.7062 84.2993 54.7123 84.2899 54.7148L84.29 54.7148Z" fill="black"/>
<path d="M78.3398 32.584L80.4521 33.4829C80.8039 33.6408 81.1571 33.7646 81.5075 33.9509C81.854 34.1421 82.1589 34.4039 82.4036 34.7202C82.9 35.3655 83.1267 36.1868 83.0339 37.0037L82.8908 39.3477C82.8894 39.3731 82.8831 39.3979 82.8722 39.4208C82.8614 39.4437 82.8463 39.4641 82.8278 39.481C82.8093 39.4979 82.7877 39.5108 82.7643 39.5191C82.7409 39.5273 82.7161 39.5308 82.6914 39.5292C82.6667 39.5276 82.6426 39.521 82.6203 39.5098C82.5981 39.4986 82.5783 39.483 82.5619 39.4639C82.5456 39.4448 82.5331 39.4225 82.5252 39.3984C82.5172 39.3744 82.514 39.3489 82.5157 39.3235L82.5163 39.3156L82.753 36.9796C82.812 36.6065 82.7983 36.225 82.7127 35.8573C82.6271 35.4896 82.4714 35.1431 82.2545 34.8377C82.0356 34.5296 81.7578 34.2708 81.4382 34.0769C81.1192 33.8888 80.7543 33.7411 80.4144 33.5713L78.3398 32.584Z" fill="black"/>
<path d="M77.6108 34.3413L79.1518 35.2607L80.6956 36.1878C80.9574 36.3705 81.1694 36.6189 81.3116 36.9094C81.4506 37.2137 81.5155 37.496 81.6187 37.7869L82.1849 39.5226C82.2007 39.5711 82.1971 39.6241 82.1749 39.67C82.1527 39.7158 82.1136 39.7507 82.0664 39.767C82.0191 39.7833 81.9675 39.7796 81.9228 39.7567C81.8782 39.7339 81.8443 39.6938 81.8284 39.6453L81.8255 39.6355L81.3491 37.8717C81.2646 37.5846 81.2018 37.2664 81.0994 37.0126C80.9864 36.7487 80.8098 36.5188 80.5861 36.3447L77.6108 34.3413Z" fill="black"/>
<path d="M76.9091 36.8042L78.3473 37.3812C78.8477 37.5803 79.2801 37.9261 79.5907 38.3756C79.9012 38.8251 80.0763 39.3584 80.0942 39.9093L80.1147 41.4991C80.1151 41.5502 80.0959 41.5994 80.0611 41.6359C80.0264 41.6725 79.9789 41.6934 79.9292 41.694C79.8794 41.6947 79.8315 41.6751 79.7958 41.6395C79.7601 41.604 79.7396 41.5553 79.7387 41.5042C79.7387 41.5005 79.7388 41.4955 79.7389 41.4919L79.8123 39.9116C79.8243 39.403 79.6901 38.9022 79.4266 38.4715C79.1577 38.0329 78.7697 37.6848 78.3105 37.47L76.9091 36.8042Z" fill="black"/>
<path d="M75.745 38.7134L76.8883 39.2484C77.0957 39.3228 77.2861 39.4397 77.448 39.5921C77.61 39.7446 77.74 39.9293 77.8301 40.135C77.9153 40.3446 77.963 40.5682 77.9708 40.7952C77.9899 41.0035 78.0229 41.2102 78.0695 41.4138C78.0955 41.603 78.1582 41.7849 78.2539 41.9487C78.3496 42.1126 78.4764 42.255 78.6267 42.3676L78.6304 42.3696C78.6523 42.3814 78.6717 42.3975 78.6875 42.417C78.7033 42.4365 78.7153 42.459 78.7226 42.4833C78.73 42.5075 78.7326 42.533 78.7304 42.5583C78.7281 42.5836 78.721 42.6082 78.7096 42.6307C78.6981 42.6532 78.6824 42.6731 78.6634 42.6894C78.6444 42.7056 78.6225 42.7179 78.5989 42.7254C78.5753 42.733 78.5504 42.7357 78.5258 42.7334C78.5012 42.7311 78.4772 42.7238 78.4553 42.712C78.4493 42.7088 78.4435 42.7052 78.4378 42.7013C78.2533 42.5533 78.1007 42.3675 77.9898 42.1558C77.8788 41.944 77.8119 41.7109 77.7933 41.4712C77.7596 41.2523 77.7406 41.0312 77.7363 40.8096C77.7457 40.6051 77.7183 40.4006 77.6555 40.2063C77.5861 40.0124 77.4787 39.8351 77.3399 39.6854C77.2012 39.5358 77.0341 39.4169 76.8489 39.3361L75.745 38.7134Z" fill="black"/>
<path d="M112.204 44.1519C112.526 44.0214 112.865 43.9417 113.211 43.9157C113.557 43.8851 113.905 43.8941 114.248 43.9426C114.594 43.9912 114.932 44.0858 115.254 44.2241C115.576 44.3587 115.873 44.5516 116.129 44.7935C115.795 44.6945 115.485 44.5829 115.162 44.5101C114.843 44.4312 114.521 44.3693 114.196 44.3246C113.546 44.2265 112.891 44.1923 112.204 44.1519Z" fill="black"/>
<path d="M118.922 44.8994C119.213 44.8086 119.517 44.7637 119.821 44.7662C120.126 44.7644 120.431 44.7969 120.729 44.8632C121.339 44.981 121.891 45.3125 122.29 45.8012C122.008 45.6759 121.745 45.5627 121.472 45.4695C121.198 45.3838 120.926 45.3017 120.646 45.2395C120.086 45.1082 119.518 45.0219 118.922 44.8994Z" fill="black"/>
<path d="M118.335 48.688C118.379 48.9485 118.358 49.2163 118.273 49.466C118.191 49.7412 118.015 49.9772 117.779 50.1316C117.654 50.2046 117.516 50.2488 117.373 50.2613C117.23 50.2738 117.087 50.2542 116.952 50.2038C116.829 50.1584 116.711 50.0992 116.601 50.0275C116.501 49.947 116.407 49.8595 116.318 49.7656C116.439 49.7884 116.559 49.8181 116.676 49.8545C116.794 49.869 116.905 49.9041 117.014 49.9093C117.212 49.9393 117.414 49.9006 117.588 49.7991C117.762 49.6836 117.906 49.5261 118.008 49.3403C118.129 49.1293 118.238 48.9116 118.335 48.688Z" fill="black"/>
<path d="M114.536 46.8173C114.682 46.812 114.821 46.7488 114.922 46.6407C115.024 46.5327 115.081 46.3884 115.081 46.2382C115.081 46.088 115.024 45.9437 114.922 45.8357C114.821 45.7277 114.682 45.6644 114.536 45.6592C114.39 45.6644 114.252 45.7277 114.15 45.8357C114.048 45.9437 113.992 46.088 113.992 46.2382C113.992 46.3884 114.048 46.5327 114.15 46.6407C114.252 46.7488 114.39 46.812 114.536 46.8173Z" fill="black"/>
<path d="M119.722 47.3837C119.868 47.3785 120.007 47.3152 120.108 47.2071C120.21 47.0991 120.267 46.9548 120.267 46.8046C120.267 46.6544 120.21 46.5101 120.108 46.4021C120.007 46.2941 119.868 46.2308 119.722 46.2256C119.576 46.2308 119.438 46.2941 119.336 46.4021C119.234 46.5101 119.178 46.6544 119.178 46.8046C119.178 46.9548 119.234 47.0991 119.336 47.2071C119.438 47.3152 119.576 47.3785 119.722 47.3837Z" fill="black"/>
<path d="M115.001 52.083C115.479 52.3176 116.002 52.4408 116.532 52.4437C116.779 52.4314 117.019 52.3544 117.229 52.2198C117.459 52.0721 117.674 51.9004 117.87 51.7075C117.786 51.9994 117.624 52.2613 117.402 52.4633C117.286 52.5693 117.156 52.6566 117.015 52.7223C116.799 52.8079 116.568 52.8448 116.337 52.8304C116.106 52.816 115.881 52.7507 115.677 52.639C115.412 52.5109 115.18 52.3204 115.001 52.083Z" fill="black"/>
<path d="M110.519 33.8079C110.519 33.8079 109.062 27.1909 115.366 28.5027C121.669 29.8144 118.095 34.0039 118.095 34.0039" fill="black"/>
<path d="M106.696 86.8717C106.659 86.8717 106.623 86.8602 106.592 86.8386C106.572 86.8246 106.554 86.8065 106.54 86.7854C106.527 86.7643 106.517 86.7407 106.512 86.7159C106.507 86.691 106.507 86.6654 106.512 86.6406C106.517 86.6158 106.527 86.5922 106.54 86.5711C106.947 85.948 106.723 84.1729 106.603 83.5412C106.598 83.5163 106.598 83.4908 106.603 83.4659C106.608 83.441 106.618 83.4174 106.631 83.3964C106.659 83.3539 106.702 83.3245 106.751 83.3146C106.8 83.3048 106.851 83.3153 106.892 83.3439C106.934 83.3724 106.962 83.4167 106.972 83.467C106.991 83.5658 107.428 85.9032 106.853 86.7858C106.836 86.8122 106.812 86.8339 106.785 86.8489C106.758 86.8639 106.727 86.8717 106.696 86.8717Z" fill="black"/>
<path d="M134.269 92.9984C134.234 92.9983 134.199 92.9883 134.169 92.9693C134.139 92.9504 134.114 92.9233 134.098 92.891C133.904 92.5032 133.446 85.8891 133.31 83.8716C133.308 83.8463 133.311 83.8209 133.319 83.7969C133.327 83.7728 133.339 83.7506 133.355 83.7315C133.372 83.7124 133.391 83.6968 133.413 83.6855C133.436 83.6742 133.46 83.6675 133.484 83.6658C133.509 83.6635 133.534 83.6664 133.557 83.6742C133.581 83.6821 133.603 83.6947 133.622 83.7114C133.64 83.7282 133.655 83.7486 133.666 83.7715C133.677 83.7944 133.683 83.8193 133.685 83.8447C133.911 87.2119 134.298 92.3546 134.435 92.721C134.449 92.7502 134.456 92.7826 134.455 92.8152C134.453 92.8477 134.444 92.8794 134.427 92.9072C134.411 92.935 134.387 92.9579 134.36 92.9739C134.332 92.9898 134.301 92.9983 134.269 92.9984V92.9984Z" fill="black"/>
<path d="M123.205 117.813C123.229 115.126 122.949 112.445 122.371 109.824C121.314 105.156 119.267 95.4497 118.125 89.3755C115.875 88.6122 113.585 87.9761 111.267 87.4698H111.262C109.166 87.0163 107.534 86.7644 106.682 86.6544C106.259 86.5949 106.027 86.572 106.027 86.572C78.5916 59.2701 73.8377 65.7474 73.8377 65.7474C60.9853 71.2124 46.4427 108.368 46.4427 108.368L37.6262 109.985C33.1488 110.896 33.3495 113.375 34.1299 115.111C35.1081 117.216 35.7094 119.484 35.9048 121.808C36.5515 130.731 33.1801 130.461 33.1801 130.461C33.1801 130.461 54.1443 134.263 60.5171 129.673C66.8897 125.088 90.2221 124.208 90.2221 124.208C117.858 125.633 123.392 122.312 123.392 122.312C123.58 122.252 123.762 122.184 123.945 122.11C123.361 120.924 123.2 119.275 123.205 117.813ZM72.4418 75.5688C72.8829 76.1056 73.4446 76.5238 74.0785 76.7873C74.3943 76.9138 74.7237 77.0015 75.0596 77.0484C75.4001 77.1052 75.7449 77.1297 76.0898 77.1217C76.4376 77.1171 76.7854 77.0576 77.1422 77.0346C77.49 76.9705 77.8379 76.8926 78.1991 76.8377C77.8691 76.9888 77.5302 77.1125 77.1868 77.2545C76.8345 77.3489 76.4771 77.4223 76.1165 77.4744C75.3706 77.5692 74.6134 77.4781 73.909 77.2087C73.2085 76.9168 72.6047 76.4238 72.1699 75.7886C71.7404 75.1743 71.4676 74.4594 71.3761 73.709C71.6281 74.3855 71.9883 75.0141 72.4418 75.5688ZM37.4745 120.631C37.3013 120.624 37.1373 120.549 37.0171 120.421C36.8968 120.293 36.8296 120.121 36.8296 119.943C36.8296 119.765 36.8968 119.594 37.0171 119.466C37.1373 119.338 37.3013 119.263 37.4745 119.256C37.6477 119.263 37.8117 119.338 37.932 119.466C38.0522 119.594 38.1195 119.765 38.1195 119.943C38.1195 120.121 38.0522 120.293 37.932 120.421C37.8117 120.549 37.6477 120.624 37.4745 120.631ZM36.8323 111.231C37.0055 111.237 37.1695 111.312 37.2898 111.441C37.4101 111.569 37.4773 111.74 37.4773 111.918C37.4773 112.096 37.4101 112.267 37.2898 112.395C37.1695 112.523 37.0055 112.598 36.8323 112.605C36.6591 112.598 36.4952 112.523 36.3749 112.395C36.2546 112.267 36.1874 112.096 36.1874 111.918C36.1874 111.74 36.2546 111.569 36.3749 111.441C36.4952 111.312 36.6591 111.237 36.8323 111.231ZM36.4042 114.969C36.5774 114.975 36.7414 115.05 36.8617 115.179C36.982 115.307 37.0492 115.478 37.0492 115.656C37.0492 115.834 36.982 116.005 36.8617 116.133C36.7414 116.261 36.5774 116.336 36.4042 116.343C36.231 116.336 36.0671 116.261 35.9468 116.133C35.8265 116.005 35.7593 115.834 35.7593 115.656C35.7593 115.478 35.8265 115.307 35.9468 115.179C36.0671 115.05 36.2311 114.975 36.4043 114.969H36.4042ZM36.7253 129.756C36.5521 129.749 36.3881 129.674 36.2679 129.546C36.1476 129.418 36.0804 129.247 36.0804 129.069C36.0804 128.891 36.1476 128.719 36.2679 128.591C36.3881 128.463 36.5521 128.388 36.7253 128.381C36.8985 128.388 37.0625 128.463 37.1828 128.591C37.303 128.719 37.3703 128.891 37.3703 129.069C37.3703 129.247 37.3031 129.418 37.1828 129.546C37.0625 129.674 36.8985 129.749 36.7253 129.756H36.7253ZM37.9026 125.578C37.7294 125.571 37.5654 125.496 37.4451 125.368C37.3248 125.24 37.2576 125.069 37.2576 124.891C37.2576 124.713 37.3248 124.542 37.4451 124.414C37.5654 124.285 37.7294 124.21 37.9026 124.204C38.0758 124.21 38.2397 124.285 38.36 124.414C38.4803 124.542 38.5475 124.713 38.5475 124.891C38.5475 125.069 38.4803 125.24 38.36 125.368C38.2398 125.496 38.0758 125.571 37.9026 125.578H37.9026ZM92.0371 99.5129C91.7918 99.5312 91.551 99.5724 91.3057 99.6045C90.8197 99.6686 90.338 99.7511 89.8519 99.829C88.8842 99.9939 87.9165 100.168 86.9487 100.351C85.0178 100.708 83.0883 101.083 81.1602 101.473L69.5966 103.796L58.0241 106.114L52.2401 107.259L46.4427 108.372C50.2734 107.461 54.1131 106.609 57.9572 105.77C61.8013 104.937 65.6544 104.144 69.5074 103.347C73.3694 102.591 77.2269 101.822 81.0978 101.125C82.7033 100.841 84.3117 100.565 85.923 100.296C85.6782 100.158 85.4531 99.9849 85.2541 99.7831C84.9954 99.5449 84.7546 99.2884 84.5183 99.0273C84.0589 98.4959 83.6264 97.9371 83.2072 97.3782C82.3643 96.2513 81.5884 95.074 80.8347 93.8922C80.09 92.7012 79.3586 91.4964 78.6718 90.2687C77.985 89.0411 77.3117 87.8088 76.6962 86.5399L77.8423 88.3035L78.9661 90.0855L81.2093 93.6402C81.954 94.8267 82.7121 96.004 83.4837 97.1721C83.8717 97.7538 84.2686 98.3264 84.6878 98.8807C84.8912 99.1652 85.1085 99.4389 85.3389 99.7007C85.525 99.9209 85.7344 100.119 85.9632 100.292C86.2798 100.237 86.5964 100.182 86.9131 100.131C87.8853 99.9801 88.8589 99.8396 89.8341 99.7099C90.678 99.5847 91.5282 99.5098 92.3805 99.4854L92.0371 99.5129Z" fill="black"/>
<path d="M131.802 116.494C131.299 114.848 130.899 112.343 130.791 108.276C130.61 101.707 130.221 96.2611 130.058 94.1941C131.886 94.1606 133.365 93.7496 134.265 92.8022C134.265 92.8022 138.943 107.287 131.802 116.494Z" fill="black"/>
<path d="M92.4043 99.4795L92.3783 99.4819C92.5106 99.482 92.6428 99.4765 92.7753 99.4839L92.4043 99.4795Z" fill="white"/>
<path d="M129.409 80.6398C129.587 82.9424 129.73 85.2465 129.889 87.5485L130.099 91.0031C130.173 92.1543 130.225 93.307 130.345 94.453C130.729 99.059 130.989 103.673 131.125 108.296C131.146 110.586 131.357 112.87 131.755 115.123C131.944 116.232 132.31 117.302 132.839 118.288C133.121 118.765 133.456 119.207 133.838 119.604C134.232 120.011 134.633 120.413 135.038 120.812C136.631 122.43 138.344 123.919 140.16 125.267C141.068 125.922 142.109 126.395 143.026 127.091C143.498 127.423 143.931 127.813 144.314 128.25C144.521 128.484 144.656 128.776 144.701 129.089C144.711 129.265 144.655 129.44 144.544 129.575C144.485 129.633 144.423 129.687 144.358 129.737L144.152 129.85L144.227 129.748C144.2 129.989 144.102 130.215 143.946 130.396C143.853 130.492 143.733 130.554 143.603 130.574C143.48 130.589 143.355 130.575 143.239 130.532L143.403 130.448C143.331 130.663 143.237 130.87 143.123 131.066C143.01 131.268 142.863 131.449 142.689 131.599C142.503 131.761 142.268 131.852 142.024 131.857C141.785 131.847 141.554 131.768 141.356 131.631L141.569 131.534C141.517 131.791 141.423 132.037 141.291 132.261C141.158 132.494 140.969 132.686 140.741 132.82C140.508 132.95 140.244 133.011 139.979 132.998C139.726 132.983 139.476 132.929 139.239 132.836C139.225 132.831 139.212 132.824 139.2 132.814L139.192 132.807C137.011 130.974 134.824 129.143 132.624 127.336L131.798 126.666C131.679 126.56 131.548 126.47 131.407 126.397C131.261 126.324 131.111 126.261 130.957 126.21C130.668 126.094 130.358 126.045 130.049 126.065C129.739 126.085 129.438 126.174 129.166 126.327C128.656 126.716 128.297 127.278 128.155 127.914C127.968 128.66 127.644 129.362 127.198 129.982C126.954 130.321 126.633 130.594 126.263 130.777C125.892 130.96 125.485 131.047 125.074 131.032C125.016 131.028 124.959 131.02 124.902 131.006C124.87 131 124.837 130.992 124.806 130.981L124.749 130.96L124.72 130.948C124.699 130.94 124.679 130.929 124.661 130.916C124.597 130.872 124.544 130.813 124.507 130.744C124.508 130.747 124.515 130.759 124.505 130.742L124.464 130.665C124.437 130.61 124.414 130.552 124.394 130.494C124.331 130.288 124.295 130.074 124.289 129.858C124.28 129.472 124.306 129.085 124.367 128.704C124.426 128.321 124.496 127.99 124.535 127.642C124.577 127.297 124.6 126.949 124.605 126.601C124.614 125.906 124.546 125.212 124.4 124.533C124.255 123.855 124.03 123.199 123.729 122.577C123.558 122.241 123.41 121.894 123.287 121.537C123.168 121.175 123.076 120.806 123.011 120.43C122.887 119.694 122.821 118.949 122.815 118.202C122.812 117.461 122.812 116.762 122.781 116.04C122.727 114.609 122.586 113.183 122.359 111.77C122.135 110.365 121.774 108.965 121.474 107.546C120.867 104.716 120.277 101.882 119.704 99.0445C119.129 96.2071 118.603 93.3592 118.125 90.5009C117.884 89.0727 117.666 87.6395 117.485 86.2007C117.393 85.4815 117.311 84.7607 117.249 84.0374C117.175 83.3139 117.154 82.5857 117.185 81.8589C117.185 81.8539 117.187 81.8489 117.189 81.8444C117.191 81.8398 117.194 81.8358 117.198 81.8324C117.202 81.8291 117.206 81.8265 117.211 81.8249C117.215 81.8233 117.22 81.8226 117.225 81.8229C117.235 81.8239 117.244 81.8287 117.25 81.8363C117.257 81.8439 117.26 81.8537 117.26 81.8639C117.257 82.5853 117.307 83.3059 117.409 84.0198C117.499 84.7363 117.608 85.4506 117.728 86.1632C117.968 87.5881 118.238 89.008 118.511 90.4273C119.062 93.265 119.687 96.0879 120.294 98.9143C120.91 101.739 121.546 104.559 122.202 107.374C122.512 108.783 122.875 110.186 123.114 111.639C123.352 113.084 123.502 114.542 123.562 116.006C123.596 116.732 123.599 117.481 123.605 118.188C123.612 118.89 123.676 119.59 123.795 120.281C123.855 120.618 123.936 120.952 124.038 121.278C124.148 121.605 124.281 121.923 124.435 122.23C124.755 122.91 124.994 123.628 125.145 124.368C125.296 125.106 125.364 125.86 125.346 126.615C125.338 126.99 125.309 127.366 125.261 127.738C125.215 128.11 125.134 128.487 125.08 128.819C125.023 129.152 124.996 129.489 125.001 129.827C125.002 129.974 125.024 130.12 125.064 130.26C125.072 130.288 125.083 130.314 125.094 130.34L125.117 130.382L125.147 130.44C125.128 130.386 125.092 130.34 125.045 130.309C125.012 130.29 125.009 130.29 125.015 130.292L125.018 130.292L125.023 130.293C125.021 130.296 125.043 130.298 125.054 130.301C125.083 130.309 125.113 130.313 125.143 130.315C125.44 130.321 125.733 130.253 125.999 130.118C126.265 129.983 126.495 129.784 126.671 129.538C127.067 128.992 127.36 128.373 127.534 127.716C127.732 126.932 128.197 126.248 128.845 125.788C129.197 125.578 129.594 125.463 129.999 125.452C130.388 125.446 130.774 125.511 131.14 125.645C131.32 125.709 131.495 125.785 131.665 125.874C131.838 125.967 131.999 126.081 132.146 126.213L132.963 126.91L139.406 132.545L139.359 132.517C139.562 132.601 139.776 132.654 139.994 132.673C140.202 132.688 140.41 132.645 140.596 132.548C140.782 132.444 140.938 132.291 141.048 132.105C141.164 131.916 141.248 131.708 141.295 131.49C141.3 131.467 141.309 131.446 141.323 131.428C141.337 131.41 141.355 131.396 141.376 131.387C141.396 131.377 141.418 131.372 141.441 131.373C141.463 131.374 141.485 131.38 141.505 131.391L141.508 131.393C141.661 131.502 141.84 131.565 142.026 131.578C142.208 131.574 142.383 131.506 142.521 131.385C142.816 131.109 143.036 130.757 143.159 130.367L143.161 130.362C143.172 130.329 143.196 130.303 143.226 130.288C143.257 130.273 143.292 130.271 143.324 130.283C143.396 130.317 143.477 130.329 143.556 130.317C143.635 130.305 143.709 130.269 143.768 130.213C143.885 130.073 143.959 129.901 143.982 129.717L143.983 129.711C143.987 129.69 143.995 129.67 144.008 129.653C144.021 129.637 144.038 129.624 144.057 129.616C144.298 129.516 144.487 129.338 144.461 129.099C144.419 128.839 144.305 128.597 144.133 128.402C143.769 127.975 143.351 127.6 142.891 127.286C141.989 126.616 140.951 126.159 140.009 125.497C139.068 124.849 138.188 124.124 137.315 123.391C136.443 122.657 135.594 121.896 134.759 121.118C134.342 120.729 133.929 120.337 133.52 119.937C133.1 119.523 132.729 119.06 132.414 118.557C131.828 117.533 131.412 116.416 131.181 115.252C130.733 112.968 130.491 110.646 130.459 108.316C130.332 103.706 130.128 99.0968 129.813 94.496C129.57 89.8794 129.454 85.2603 129.334 80.6437C129.334 80.6336 129.337 80.6238 129.344 80.6164C129.351 80.609 129.36 80.6046 129.37 80.6041C129.38 80.6035 129.389 80.607 129.397 80.6137C129.404 80.6204 129.408 80.6298 129.409 80.6399V80.6398Z" fill="black"/>
<path d="M134.883 126.253L141.547 131.358C141.567 131.373 141.584 131.392 141.596 131.414C141.609 131.436 141.618 131.46 141.621 131.485C141.625 131.51 141.623 131.536 141.617 131.56C141.611 131.585 141.601 131.608 141.586 131.628C141.571 131.649 141.553 131.666 141.531 131.679C141.51 131.692 141.487 131.7 141.462 131.704C141.438 131.708 141.413 131.706 141.389 131.7C141.365 131.694 141.342 131.683 141.323 131.668L141.316 131.662L134.883 126.253Z" fill="black"/>
<path d="M136.772 125.332L143.395 130.252C143.435 130.282 143.462 130.327 143.47 130.378C143.478 130.428 143.466 130.48 143.437 130.522C143.408 130.563 143.364 130.591 143.315 130.599C143.265 130.607 143.215 130.595 143.175 130.565L143.168 130.56L136.772 125.332Z" fill="black"/>
<path d="M138.841 125.46L144.221 129.581C144.261 129.612 144.287 129.657 144.294 129.708C144.301 129.758 144.288 129.81 144.258 129.851C144.229 129.892 144.184 129.919 144.135 129.926C144.086 129.934 144.036 129.921 143.996 129.891L143.988 129.884L138.841 125.46Z" fill="black"/>
<path d="M33.9949 112.108C31.5384 112.756 29.0412 113.227 26.5211 113.52C23.9984 113.82 21.4608 113.969 18.9212 113.966C16.3775 113.951 13.8393 113.722 11.3317 113.283L9.46097 112.906C8.83646 112.788 8.22894 112.585 7.61313 112.429C6.37674 112.13 5.18553 111.669 3.97778 111.273L3.96395 111.267L3.95938 111.264C3.55583 111.035 3.13682 110.835 2.70556 110.668C2.27994 110.499 1.83261 110.396 1.37782 110.361C1.17243 110.321 0.959941 110.352 0.773741 110.45C0.58754 110.548 0.438189 110.706 0.349166 110.9C0.236596 111.34 0.246021 111.803 0.376371 112.237C0.379984 112.252 0.380979 112.268 0.379311 112.284L0.37844 112.293C0.336245 112.619 0.363246 112.951 0.457593 113.266C0.502117 113.408 0.579002 113.537 0.681877 113.643C0.787463 113.734 0.915119 113.793 1.05107 113.814C1.09817 113.824 1.13978 113.852 1.16675 113.892C1.19372 113.933 1.20385 113.983 1.1949 114.031L1.19435 114.034L1.19346 114.039C1.16285 114.198 1.15281 114.36 1.16363 114.522C1.17287 114.681 1.20829 114.836 1.26837 114.982C1.32537 115.121 1.41414 115.244 1.52717 115.341C1.64235 115.438 1.77419 115.513 1.91596 115.561C1.96619 115.582 2.00743 115.62 2.03199 115.67C2.05655 115.719 2.06275 115.776 2.04944 115.83L2.04661 115.842C2.02221 115.954 2.02969 116.071 2.06817 116.179C2.11133 116.292 2.18579 116.388 2.28223 116.457C2.51695 116.614 2.78546 116.71 3.0644 116.736C3.11902 116.744 3.16943 116.771 3.20768 116.812C3.24594 116.853 3.26987 116.906 3.27572 116.962L3.278 116.985C3.30872 117.314 3.45567 117.62 3.69108 117.845C3.81358 117.95 3.95472 118.029 4.10666 118.078C4.30503 118.151 4.4973 118.24 4.68152 118.345C5.33055 118.748 6.02305 119.072 6.74504 119.311C7.46084 119.55 8.20055 119.705 8.95021 119.774C9.74937 119.822 10.542 119.951 11.3164 120.159C12.1005 120.385 12.8497 120.724 13.542 121.165C14.2467 121.596 14.8822 122.136 15.4262 122.766L15.8033 123.227C15.9204 123.376 16.0451 123.519 16.1769 123.655C16.435 123.934 16.7076 124.198 16.9937 124.446C17.5692 124.938 18.191 125.371 18.8499 125.737C19.5089 126.093 20.209 126.363 20.9337 126.54C21.6536 126.708 22.3948 126.758 23.1299 126.687C23.3124 126.666 23.4936 126.635 23.6727 126.594C23.8549 126.567 24.0338 126.52 24.2065 126.455C24.3805 126.394 24.5574 126.339 24.7302 126.273L25.2286 126.024C25.3974 125.945 25.558 125.848 25.708 125.736L26.1756 125.419C26.5017 125.189 26.8139 124.936 27.1512 124.725C29.8305 123.04 32.7657 121.828 35.8349 121.14C35.8446 121.138 35.8548 121.14 35.8632 121.145C35.8717 121.151 35.8777 121.159 35.88 121.169C35.8818 121.179 35.88 121.189 35.875 121.198C35.8699 121.206 35.8619 121.213 35.8525 121.215C34.3662 121.674 32.9125 122.238 31.5018 122.902C30.0906 123.542 28.7406 124.315 27.4693 125.212C27.1471 125.426 26.8537 125.679 26.5449 125.91L26.0482 126.268C25.8862 126.395 25.7129 126.506 25.5306 126.599L24.9866 126.889C24.7975 126.968 24.6028 127.035 24.4106 127.108C24.2196 127.185 24.0216 127.243 23.8196 127.28C23.6206 127.331 23.4189 127.372 23.2156 127.401C22.4014 127.507 21.5757 127.473 20.7724 127.3C19.9789 127.118 19.2111 126.834 18.4872 126.454C17.4074 125.884 16.4297 125.129 15.5961 124.223C15.4538 124.075 15.3188 123.92 15.1917 123.758L14.8188 123.3C13.8243 122.161 12.5431 121.325 11.1162 120.884C10.3867 120.677 9.63888 120.544 8.8838 120.488C8.08258 120.405 7.29412 120.222 6.53558 119.944C5.78138 119.672 5.06033 119.31 4.38669 118.868C4.23254 118.775 4.07124 118.695 3.90438 118.629C3.68728 118.549 3.48777 118.426 3.31743 118.266C2.98531 117.932 2.78989 117.479 2.77098 117.002L2.9846 117.251C2.81246 117.217 2.64297 117.171 2.47754 117.112C2.30139 117.047 2.13687 116.953 1.99065 116.833C1.8298 116.703 1.70931 116.528 1.64388 116.329C1.57829 116.123 1.57765 115.902 1.64203 115.696L1.77257 115.976C1.58218 115.902 1.40684 115.793 1.25552 115.653C1.10213 115.511 0.983479 115.334 0.909189 115.136C0.838046 114.945 0.799016 114.744 0.79378 114.541C0.787083 114.341 0.807192 114.141 0.85354 113.947L0.995833 114.171C0.792158 114.132 0.603368 114.035 0.451346 113.89C0.313975 113.743 0.213425 113.563 0.158259 113.367C0.0609391 113.002 0.0416616 112.62 0.101753 112.247L0.103706 112.303C-0.0352687 111.812 -0.0345512 111.291 0.105775 110.801C0.153771 110.673 0.226226 110.556 0.318872 110.457C0.411517 110.358 0.522487 110.279 0.64526 110.225C0.881141 110.129 1.13537 110.09 1.38822 110.111C1.86677 110.153 2.3367 110.267 2.78303 110.45C3.22918 110.614 3.66323 110.812 4.08181 111.04L4.06362 111.032C6.44926 111.861 8.90971 112.442 11.4082 112.768C13.9036 113.082 16.4139 113.254 18.9278 113.283C21.4427 113.329 23.9589 113.205 26.4709 113.007C27.7269 112.903 28.9805 112.768 30.2318 112.603C31.4859 112.457 32.7329 112.253 33.9774 112.033C33.9823 112.032 33.9873 112.032 33.9921 112.033C33.997 112.034 34.0016 112.036 34.0057 112.039C34.0099 112.042 34.0134 112.045 34.0162 112.049C34.019 112.054 34.021 112.058 34.022 112.063C34.0236 112.073 34.0217 112.083 34.0168 112.091C34.0118 112.099 34.004 112.106 33.9949 112.108Z" fill="black"/>
<path d="M0.219624 112.079C0.667851 112.063 1.11657 112.071 1.56403 112.103C2.00981 112.126 2.45156 112.201 2.88065 112.327C2.4444 112.265 2.00264 112.254 1.56403 112.295C1.12757 112.329 0.693032 112.384 0.262085 112.463L0.258601 112.463C0.234177 112.468 0.209126 112.467 0.184879 112.462C0.160631 112.456 0.137667 112.446 0.117308 112.432C0.0969481 112.417 0.0795941 112.398 0.0662381 112.377C0.0528822 112.355 0.0437901 112.332 0.0394819 112.306C0.0351737 112.281 0.0357365 112.256 0.0411355 112.231C0.0465344 112.206 0.0566604 112.182 0.0709402 112.161C0.0852199 112.141 0.103369 112.123 0.124344 112.109C0.145319 112.096 0.168707 112.086 0.193167 112.082C0.201917 112.08 0.210754 112.079 0.219624 112.079Z" fill="black"/>
<path d="M0.964464 113.81C1.35743 113.718 1.75898 113.671 2.16199 113.668C2.5604 113.655 2.95658 113.734 3.32119 113.9C2.94739 113.798 2.55611 113.785 2.17658 113.861C1.80191 113.925 1.43513 114.031 1.08259 114.177L1.07639 114.179C1.05339 114.189 1.0288 114.193 1.00401 114.193C0.979229 114.193 0.954743 114.188 0.931945 114.178C0.909146 114.168 0.888485 114.153 0.871144 114.135C0.853803 114.117 0.840118 114.095 0.830874 114.072C0.82163 114.048 0.81701 114.023 0.817271 113.997C0.817532 113.972 0.822672 113.947 0.832398 113.923C0.842124 113.9 0.856245 113.879 0.873955 113.861C0.891665 113.843 0.912614 113.829 0.935612 113.819C0.94499 113.816 0.954634 113.813 0.964464 113.81Z" fill="black"/>
<path d="M1.78163 115.587C2.12244 115.499 2.46973 115.44 2.81997 115.41C2.99467 115.395 3.1703 115.395 3.34497 115.411C3.5203 115.418 3.69075 115.472 3.83981 115.567C3.68243 115.503 3.51155 115.483 3.34399 115.507C3.17724 115.524 3.01218 115.555 2.85057 115.601C2.52783 115.69 2.21278 115.807 1.90858 115.95L1.90509 115.952C1.85949 115.973 1.80753 115.975 1.76064 115.957C1.71375 115.939 1.67578 115.902 1.65507 115.855C1.63437 115.808 1.63263 115.755 1.65024 115.707C1.66785 115.659 1.70336 115.62 1.74896 115.598C1.75951 115.594 1.77044 115.59 1.78163 115.587Z" fill="black"/>
<path d="M2.86816 116.886C2.99937 116.749 3.16885 116.656 3.35331 116.622C3.50693 116.585 3.664 116.566 3.82169 116.564C4.12369 116.564 4.42493 116.596 4.72035 116.66C4.42587 116.66 4.13223 116.692 3.84434 116.756C3.7071 116.787 3.57362 116.834 3.44629 116.895C3.34242 116.938 3.25125 117.009 3.18161 117.099C3.172 117.127 3.15645 117.153 3.13608 117.173C3.11571 117.194 3.09105 117.21 3.0639 117.22C3.03674 117.23 3.00777 117.234 2.97912 117.231C2.95046 117.228 2.92284 117.218 2.89826 117.202C2.87369 117.187 2.85278 117.166 2.83707 117.141C2.82136 117.117 2.81124 117.088 2.80746 117.059C2.80368 117.03 2.80633 117 2.81521 116.972C2.82409 116.944 2.83898 116.918 2.85879 116.896L2.86816 116.886Z" fill="black"/>
<path d="M26.3636 121.09C26.8271 121.233 27.3049 121.321 27.7879 121.353C28.015 121.358 28.2416 121.328 28.4599 121.264C28.6922 121.187 28.9151 121.083 29.1244 120.955C29.0046 121.203 28.813 121.408 28.5757 121.541C28.332 121.676 28.0583 121.744 27.7813 121.739C27.5122 121.729 27.2473 121.666 27.0014 121.553C26.7588 121.448 26.5412 121.29 26.3636 121.09Z" fill="black"/>
<path d="M80.9641 55.3796L81.992 60.2923L80.5999 55.4752C80.5857 55.4261 80.5911 55.3732 80.6149 55.3281C80.6387 55.2831 80.6789 55.2496 80.7267 55.235C80.7745 55.2205 80.826 55.226 80.8698 55.2504C80.9137 55.2748 80.9463 55.3161 80.9605 55.3652L80.9641 55.3796Z" fill="black"/>
<path d="M84.9121 39.9645C84.3584 39.9645 83.2827 39.7493 82.6275 38.2199C82.6076 38.173 82.6066 38.12 82.6247 38.0724C82.6428 38.0248 82.6785 37.9866 82.724 37.966C82.7695 37.9454 82.8211 37.9441 82.8675 37.9626C82.9139 37.981 82.9513 38.0175 82.9715 38.0642C83.6244 39.5883 84.6972 39.6111 85.0572 39.5758L86.1117 32.768C86.0191 32.6203 85.8929 32.498 85.7441 32.4115C85.5953 32.325 85.4282 32.2769 85.2573 32.2714C84.6685 32.3171 84.2212 33.1268 84.2169 33.1348C84.2049 33.157 84.1887 33.1765 84.1694 33.1922C84.15 33.208 84.1278 33.2196 84.1041 33.2266C84.0804 33.2335 84.0555 33.2356 84.031 33.2326C84.0065 33.2297 83.9828 33.2219 83.9612 33.2095C83.9397 33.1972 83.9207 33.1806 83.9054 33.1607C83.89 33.1409 83.8787 33.1181 83.8719 33.0937C83.8652 33.0693 83.8631 33.0438 83.866 33.0186C83.8688 32.9934 83.8765 32.9691 83.8885 32.9469C83.9105 32.9062 84.437 31.9489 85.2277 31.8867C85.4748 31.8863 85.7179 31.9513 85.9336 32.0754C86.1492 32.1995 86.3301 32.3786 86.4588 32.5953C86.4746 32.6162 86.486 32.6403 86.4923 32.6659C86.4987 32.6915 86.4999 32.7182 86.4958 32.7443L85.4069 39.7744C85.4011 39.8119 85.3846 39.8469 85.3595 39.8749C85.3344 39.9028 85.3018 39.9225 85.2658 39.9314C85.1493 39.9552 85.0308 39.9663 84.9121 39.9645Z" fill="black"/>
<path d="M116.701 82.1038C116.658 82.1038 116.616 82.0886 116.583 82.0607C116.549 82.0329 116.526 81.994 116.517 81.9508C116.517 81.9508 116.437 81.5575 116.31 80.874C116.3 80.8237 116.311 80.7716 116.339 80.7293C116.367 80.6869 116.41 80.6577 116.459 80.6481C116.508 80.6385 116.559 80.6492 116.6 80.678C116.641 80.7068 116.67 80.7512 116.679 80.8015C116.756 81.218 116.816 81.5262 116.851 81.702L129.837 80.398C129.862 80.3948 129.887 80.3967 129.911 80.4038C129.934 80.4108 129.957 80.4228 129.976 80.439C129.995 80.4553 130.011 80.4753 130.022 80.4981C130.034 80.5208 130.041 80.5456 130.042 80.5711C130.047 80.6221 130.032 80.6729 130 80.7124C129.969 80.7519 129.923 80.7769 129.873 80.7819L116.719 82.1029C116.713 82.1036 116.707 82.1039 116.701 82.1038Z" fill="black"/>
<path d="M126.06 34.1898C126.062 34.3341 126.099 34.4757 126.165 34.6029C126.232 34.73 126.327 34.8391 126.443 34.9211C126.674 35.0841 126.93 35.2065 127.2 35.283C127.737 35.4371 128.303 35.5808 128.84 35.7208C129.101 35.8051 129.378 35.8315 129.65 35.798C129.922 35.7646 130.185 35.6722 130.42 35.5269C130.646 35.3687 130.824 35.148 130.934 34.8902C131.044 34.6325 131.081 34.3482 131.04 34.07C130.977 33.8337 130.753 33.7109 130.5 33.6067C130.247 33.5048 129.967 33.4286 129.691 33.3266C129.405 33.2287 129.128 33.1077 128.862 32.9646C128.726 32.8898 128.595 32.8051 128.471 32.7109C128.357 32.641 128.253 32.5554 128.139 32.5007C127.926 32.3728 127.678 32.3205 127.433 32.352C127.188 32.3834 126.96 32.4968 126.784 32.6747C126.358 33.0619 126.097 33.6064 126.06 34.1898ZM126.015 34.1898C126.032 33.5733 126.224 32.9754 126.568 32.4701C126.762 32.1916 127.047 31.9943 127.371 31.9148C127.705 31.8483 128.051 31.9007 128.352 32.0635C128.492 32.1393 128.627 32.2251 128.756 32.3202C128.865 32.3993 128.975 32.4781 129.092 32.5498C129.331 32.6944 129.58 32.8193 129.838 32.9232C130.101 33.0321 130.374 33.1345 130.647 33.2763C130.793 33.3468 130.927 33.4403 131.044 33.5534C131.17 33.6793 131.252 33.8437 131.28 34.0219C131.287 34.3367 131.22 34.6488 131.086 34.9316C130.951 35.2144 130.752 35.4597 130.505 35.6468C130.26 35.835 129.981 35.9716 129.684 36.0488C129.388 36.126 129.079 36.1422 128.776 36.0965C128.189 36.0113 127.62 35.8261 127.092 35.5484C126.823 35.4102 126.577 35.2284 126.364 35.01C126.148 34.7941 126.022 34.4996 126.015 34.1898Z" fill="black"/>
<path d="M130.115 24.8245C130.12 25.0722 130.18 25.3155 130.29 25.5358C130.401 25.7561 130.559 25.9476 130.752 26.0956C131.138 26.3915 131.568 26.6196 132.026 26.7708C132.937 27.0787 133.892 27.3296 134.823 27.5515C135.281 27.681 135.761 27.7108 136.231 27.6389C136.701 27.5669 137.152 27.3949 137.554 27.1337C137.943 26.8545 138.252 26.4717 138.447 26.0263C138.642 25.5809 138.715 25.0895 138.659 24.6046C138.603 24.3897 138.481 24.1991 138.311 24.0615C138.126 23.9223 137.925 23.8079 137.712 23.7209C137.276 23.534 136.804 23.3957 136.339 23.2203C135.865 23.0521 135.404 22.8455 134.962 22.6025C134.739 22.4765 134.524 22.3356 134.318 22.1806C134.129 22.0456 133.933 21.9212 133.731 21.808C133.345 21.5828 132.897 21.4927 132.457 21.5515C132.012 21.6343 131.603 21.855 131.283 22.184C130.94 22.5275 130.663 22.9343 130.467 23.3833C130.256 23.8345 130.137 24.3247 130.115 24.8245ZM130.07 24.8245C130.089 24.3162 130.184 23.8139 130.352 23.3355C130.509 22.8429 130.752 22.3835 131.068 21.9794C131.395 21.5444 131.859 21.2397 132.38 21.1175C132.914 21.0184 133.465 21.1077 133.943 21.3708C134.172 21.4954 134.393 21.6354 134.603 21.7899C134.795 21.9285 134.987 22.0662 135.192 22.1876C135.607 22.4322 136.04 22.6426 136.487 22.8169C136.938 22.9991 137.402 23.1638 137.859 23.3904C138.097 23.5011 138.317 23.6483 138.512 23.8269C138.715 24.0208 138.85 24.2768 138.899 24.5565C138.924 25.0783 138.822 25.5981 138.602 26.0691C138.382 26.54 138.051 26.9471 137.639 27.2536C137.227 27.5577 136.76 27.7739 136.265 27.8896C135.771 28.0053 135.259 28.0181 134.759 27.9272C133.777 27.764 132.822 27.4642 131.918 27.0361C131.461 26.8233 131.041 26.5357 130.674 26.1845C130.489 26.0116 130.34 25.8019 130.236 25.5681C130.133 25.3343 130.076 25.0814 130.07 24.8245Z" fill="black"/>
<path d="M132.099 12.2132C131.963 12.5653 131.898 12.942 131.907 13.3207C131.925 13.6987 132.044 14.0643 132.251 14.3777C132.684 14.9936 133.256 15.493 133.917 15.8337C135.237 16.5255 136.616 17.0926 138.037 17.5281C139.451 17.9934 140.868 18.4561 142.277 18.9559C143.7 19.4299 145.046 20.1089 146.45 20.5508C147.843 21.0469 149.301 21.3174 150.775 21.3527C152.254 21.4243 153.705 20.9196 154.838 19.9395C155.38 19.4285 155.814 18.8076 156.111 18.1158C156.405 17.4206 156.603 16.6867 156.699 15.9353C156.891 14.43 156.844 12.9028 156.561 11.413C156.188 9.94873 155.586 8.55638 154.779 7.29025C153.987 6.01619 153.044 4.84884 151.97 3.81535C149.836 1.7658 147.02 0.378428 144.097 0.476733C142.638 0.502505 141.203 0.862643 139.897 1.53085C138.596 2.22614 137.437 3.17071 136.481 4.31362C134.526 6.59427 133.223 9.3991 132.099 12.2132ZM132.058 12.1961C132.601 10.7737 133.195 9.37103 133.867 8.00496C134.525 6.62473 135.327 5.32159 136.258 4.11824C137.199 2.89777 138.371 1.88563 139.703 1.14281C141.058 0.420019 142.557 0.0303655 144.083 0.0045919C145.608 -0.0419026 147.124 0.265182 148.518 0.903036C149.899 1.54352 151.164 2.42197 152.256 3.5004C153.347 4.56749 154.293 5.77974 155.07 7.10483C155.867 8.41746 156.451 9.8545 156.799 11.3597C157.047 12.8809 157.066 14.4322 156.855 15.9592C156.686 17.5076 156.012 18.9518 154.942 20.0566C153.783 21.0745 152.303 21.6257 150.779 21.6077C149.273 21.619 147.775 21.3845 146.34 20.9131C145.622 20.694 144.92 20.4157 144.227 20.1363C143.54 19.8544 142.843 19.5943 142.148 19.3298C140.755 18.8055 139.341 18.3341 137.945 17.7998C136.531 17.3057 135.163 16.6823 133.858 15.9371C133.197 15.5671 132.626 15.0476 132.189 14.4179C131.98 14.0919 131.862 13.7135 131.848 13.3236C131.843 12.9371 131.915 12.5536 132.058 12.1961Z" fill="black"/>
<path d="M86.3865 55.8743C86.5599 55.8681 86.7242 55.793 86.8448 55.6648C86.9653 55.5366 87.0327 55.3654 87.0327 55.1871C87.0327 55.0089 86.9653 54.8376 86.8448 54.7095C86.7242 54.5813 86.5599 54.5062 86.3865 54.5C86.2131 54.5062 86.0488 54.5813 85.9283 54.7095C85.8077 54.8376 85.7404 55.0089 85.7404 55.1871C85.7404 55.3654 85.8077 55.5366 85.9283 55.6648C86.0488 55.793 86.2131 55.8681 86.3865 55.8743Z" fill="black"/>
<path d="M87.029 59.0623C87.2024 59.0561 87.3667 58.981 87.4872 58.8528C87.6078 58.7246 87.6751 58.5533 87.6751 58.3751C87.6751 58.1969 87.6078 58.0256 87.4872 57.8974C87.3667 57.7693 87.2024 57.6942 87.029 57.688C86.8556 57.6942 86.6913 57.7693 86.5707 57.8974C86.4502 58.0256 86.3828 58.1969 86.3828 58.3751C86.3828 58.5533 86.4502 58.7246 86.5707 58.8528C86.6913 58.981 86.8556 59.0561 87.029 59.0623Z" fill="black"/>
<path d="M87.5644 61.9206C87.7378 61.9145 87.9021 61.8394 88.0226 61.7112C88.1432 61.583 88.2105 61.4117 88.2105 61.2335C88.2105 61.0553 88.1432 60.884 88.0226 60.7558C87.9021 60.6277 87.7378 60.5526 87.5644 60.5464C87.391 60.5526 87.2267 60.6277 87.1061 60.7558C86.9856 60.884 86.9182 61.0553 86.9182 61.2335C86.9182 61.4117 86.9856 61.583 87.1061 61.7112C87.2267 61.8394 87.391 61.9145 87.5644 61.9206Z" fill="black"/>
<path d="M88.0992 64.449C88.2726 64.4428 88.4369 64.3677 88.5574 64.2395C88.6779 64.1113 88.7453 63.9401 88.7453 63.7618C88.7453 63.5836 88.6779 63.4124 88.5574 63.2842C88.4369 63.156 88.2726 63.0809 88.0992 63.0747C87.9258 63.0809 87.7615 63.156 87.6409 63.2842C87.5204 63.4124 87.453 63.5836 87.453 63.7618C87.453 63.9401 87.5204 64.1113 87.6409 64.2395C87.7615 64.3677 87.9258 64.4428 88.0992 64.449Z" fill="black"/>
<path d="M117.746 80.9416C117.92 80.9355 118.084 80.8604 118.205 80.7322C118.325 80.604 118.393 80.4327 118.393 80.2545C118.393 80.0763 118.325 79.905 118.205 79.7768C118.084 79.6487 117.92 79.5736 117.746 79.5674C117.573 79.5736 117.409 79.6487 117.288 79.7768C117.168 79.905 117.1 80.0763 117.1 80.2545C117.1 80.4327 117.168 80.604 117.288 80.7322C117.409 80.8604 117.573 80.9355 117.746 80.9416Z" fill="black"/>
<path d="M120.101 80.6101C120.274 80.6039 120.439 80.5288 120.559 80.4007C120.68 80.2725 120.747 80.1012 120.747 79.923C120.747 79.7447 120.68 79.5735 120.559 79.4453C120.439 79.3171 120.274 79.242 120.101 79.2358C119.927 79.242 119.763 79.3171 119.643 79.4453C119.522 79.5735 119.455 79.7447 119.455 79.923C119.455 80.1012 119.522 80.2725 119.643 80.4007C119.763 80.5288 119.927 80.6039 120.101 80.6101Z" fill="black"/>
<path d="M122.884 80.1726C123.057 80.1664 123.222 80.0913 123.342 79.9631C123.463 79.835 123.53 79.6637 123.53 79.4855C123.53 79.3072 123.463 79.136 123.342 79.0078C123.222 78.8796 123.057 78.8045 122.884 78.7983C122.71 78.8045 122.546 78.8796 122.426 79.0078C122.305 79.136 122.238 79.3072 122.238 79.4855C122.238 79.6637 122.305 79.835 122.426 79.9631C122.546 80.0913 122.71 80.1664 122.884 80.1726Z" fill="black"/>
<path d="M125.666 79.842C125.84 79.8359 126.004 79.7608 126.124 79.6326C126.245 79.5044 126.312 79.3331 126.312 79.1549C126.312 78.9767 126.245 78.8054 126.124 78.6772C126.004 78.549 125.84 78.4739 125.666 78.4678C125.493 78.4739 125.328 78.549 125.208 78.6772C125.087 78.8054 125.02 78.9767 125.02 79.1549C125.02 79.3331 125.087 79.5044 125.208 79.6326C125.328 79.7608 125.493 79.8359 125.666 79.842Z" fill="black"/>
<path d="M128.45 79.511C128.623 79.5048 128.787 79.4297 128.908 79.3015C129.028 79.1733 129.096 79.0021 129.096 78.8238C129.096 78.6456 129.028 78.4744 128.908 78.3462C128.787 78.218 128.623 78.1429 128.45 78.1367C128.276 78.1429 128.112 78.218 127.991 78.3462C127.871 78.4744 127.803 78.6456 127.803 78.8238C127.803 79.0021 127.871 79.1733 127.991 79.3015C128.112 79.4297 128.276 79.5048 128.45 79.511Z" fill="black"/>
<path d="M107.632 50.8161C107.805 50.81 107.97 50.7349 108.09 50.6067C108.211 50.4785 108.278 50.3072 108.278 50.129C108.278 49.9508 108.211 49.7795 108.09 49.6514C107.97 49.5232 107.805 49.4481 107.632 49.4419C107.459 49.4481 107.294 49.5232 107.174 49.6514C107.053 49.7795 106.986 49.9508 106.986 50.129C106.986 50.3072 107.053 50.4785 107.174 50.6067C107.294 50.7349 107.459 50.81 107.632 50.8161Z" fill="black"/>
<path d="M106.829 53.7307C107.003 53.7245 107.167 53.6494 107.287 53.5213C107.408 53.3931 107.475 53.2218 107.475 53.0436C107.475 52.8653 107.408 52.6941 107.287 52.5659C107.167 52.4377 107.003 52.3626 106.829 52.3564C106.656 52.3626 106.492 52.4377 106.371 52.5659C106.25 52.6941 106.183 52.8653 106.183 53.0436C106.183 53.2218 106.25 53.3931 106.371 53.5213C106.492 53.6494 106.656 53.7245 106.829 53.7307Z" fill="black"/>
<path d="M106.133 57.4123C106.307 57.4062 106.471 57.3311 106.592 57.2029C106.712 57.0747 106.779 56.9034 106.779 56.7252C106.779 56.547 106.712 56.3757 106.592 56.2475C106.471 56.1193 106.307 56.0443 106.133 56.0381C105.96 56.0443 105.796 56.1193 105.675 56.2475C105.555 56.3757 105.487 56.547 105.487 56.7252C105.487 56.9034 105.555 57.0747 105.675 57.2029C105.796 57.3311 105.96 57.4062 106.133 57.4123Z" fill="black"/>
<path d="M105.919 60.9309C106.093 60.9247 106.257 60.8496 106.378 60.7214C106.498 60.5933 106.566 60.422 106.566 60.2438C106.566 60.0655 106.498 59.8943 106.378 59.7661C106.257 59.6379 106.093 59.5628 105.919 59.5566C105.746 59.5628 105.582 59.6379 105.461 59.7661C105.341 59.8943 105.273 60.0655 105.273 60.2438C105.273 60.422 105.341 60.5933 105.461 60.7214C105.582 60.8496 105.746 60.9247 105.919 60.9309Z" fill="black"/>
<path d="M106.723 64.3938C106.896 64.3876 107.061 64.3125 107.181 64.1843C107.302 64.0561 107.369 63.8849 107.369 63.7067C107.369 63.5284 107.302 63.3572 107.181 63.229C107.061 63.1008 106.896 63.0257 106.723 63.0195C106.549 63.0257 106.385 63.1008 106.265 63.229C106.144 63.3572 106.077 63.5284 106.077 63.7067C106.077 63.8849 106.144 64.0561 106.265 64.1843C106.385 64.3125 106.549 64.3876 106.723 64.3938Z" fill="black"/>
</svg>
